%TF.GenerationSoftware,KiCad,Pcbnew,8.0.7-8.0.7-0~ubuntu22.04.1*%
%TF.CreationDate,2024-12-29T11:33:44+01:00*%
%TF.ProjectId,monitor_consumo,6d6f6e69-746f-4725-9f63-6f6e73756d6f,rev?*%
%TF.SameCoordinates,Original*%
%TF.FileFunction,Soldermask,Bot*%
%TF.FilePolarity,Negative*%
%FSLAX46Y46*%
G04 Gerber Fmt 4.6, Leading zero omitted, Abs format (unit mm)*
G04 Created by KiCad (PCBNEW 8.0.7-8.0.7-0~ubuntu22.04.1) date 2024-12-29 11:33:44*
%MOMM*%
%LPD*%
G01*
G04 APERTURE LIST*
G04 Aperture macros list*
%AMRoundRect*
0 Rectangle with rounded corners*
0 $1 Rounding radius*
0 $2 $3 $4 $5 $6 $7 $8 $9 X,Y pos of 4 corners*
0 Add a 4 corners polygon primitive as box body*
4,1,4,$2,$3,$4,$5,$6,$7,$8,$9,$2,$3,0*
0 Add four circle primitives for the rounded corners*
1,1,$1+$1,$2,$3*
1,1,$1+$1,$4,$5*
1,1,$1+$1,$6,$7*
1,1,$1+$1,$8,$9*
0 Add four rect primitives between the rounded corners*
20,1,$1+$1,$2,$3,$4,$5,0*
20,1,$1+$1,$4,$5,$6,$7,0*
20,1,$1+$1,$6,$7,$8,$9,0*
20,1,$1+$1,$8,$9,$2,$3,0*%
G04 Aperture macros list end*
%ADD10R,1.700000X1.700000*%
%ADD11O,1.700000X1.700000*%
%ADD12R,2.400000X2.400000*%
%ADD13C,2.400000*%
%ADD14C,2.000000*%
%ADD15C,3.200000*%
%ADD16R,1.500000X1.500000*%
%ADD17R,2.200000X2.200000*%
%ADD18C,2.200000*%
%ADD19RoundRect,0.250001X1.099999X-1.099999X1.099999X1.099999X-1.099999X1.099999X-1.099999X-1.099999X0*%
%ADD20C,2.700000*%
%ADD21O,2.300000X1.600000*%
%ADD22C,1.524000*%
%ADD23RoundRect,0.250001X-1.099999X-1.099999X1.099999X-1.099999X1.099999X1.099999X-1.099999X1.099999X0*%
%ADD24R,4.600000X2.000000*%
%ADD25O,4.200000X2.000000*%
%ADD26O,2.000000X4.200000*%
G04 APERTURE END LIST*
D10*
%TO.C,J9*%
X191150000Y-89900000D03*
D11*
X191150000Y-92440000D03*
X191150000Y-94980000D03*
X191150000Y-97520000D03*
%TD*%
D12*
%TO.C,J15*%
X111550000Y-105400000D03*
D13*
X111550000Y-108900000D03*
%TD*%
D14*
%TO.C,F1*%
X171810000Y-120470000D03*
X171800000Y-125550000D03*
%TD*%
D12*
%TO.C,J11*%
X111550000Y-84425000D03*
D13*
X111550000Y-87925000D03*
%TD*%
D12*
%TO.C,J4*%
X174625000Y-51650000D03*
D13*
X171125000Y-51650000D03*
X167625000Y-51650000D03*
%TD*%
D12*
%TO.C,J17*%
X111550000Y-119425000D03*
D13*
X111550000Y-122925000D03*
%TD*%
D15*
%TO.C,H2*%
X108500000Y-134800000D03*
%TD*%
D16*
%TO.C,TP12*%
X124100000Y-123425000D03*
%TD*%
D17*
%TO.C,T1*%
X120690000Y-51400000D03*
D18*
X135690000Y-51400000D03*
X130690000Y-66900000D03*
X125690000Y-66900000D03*
%TD*%
D16*
%TO.C,TP14*%
X124075000Y-126475000D03*
%TD*%
%TO.C,TP7*%
X128400000Y-76550000D03*
%TD*%
D19*
%TO.C,J14*%
X109650000Y-66477500D03*
D20*
X109650000Y-61477500D03*
X109650000Y-56477500D03*
%TD*%
D21*
%TO.C,K1*%
X142590000Y-56550000D03*
X142590000Y-66710000D03*
X142590000Y-69250000D03*
X150210000Y-69250000D03*
X150210000Y-66710000D03*
X150210000Y-56550000D03*
%TD*%
D22*
%TO.C,U3*%
X140570000Y-85550000D03*
X140570000Y-88090000D03*
X140570000Y-90630000D03*
X140570000Y-93170000D03*
X140570000Y-95710000D03*
X140570000Y-98250000D03*
X140570000Y-100790000D03*
X140570000Y-103330000D03*
X140570000Y-105870000D03*
X140570000Y-108410000D03*
X140570000Y-110950000D03*
X140570000Y-113490000D03*
X140570000Y-116030000D03*
X163430000Y-116030000D03*
X163430000Y-113490000D03*
X163430000Y-110950000D03*
X163430000Y-108410000D03*
X163430000Y-105870000D03*
X163430000Y-103330000D03*
X163430000Y-100790000D03*
X163430000Y-98250000D03*
X163430000Y-95710000D03*
X163430000Y-93170000D03*
X163430000Y-90630000D03*
X163430000Y-88090000D03*
X163430000Y-85550000D03*
%TD*%
D16*
%TO.C,TP18*%
X126675000Y-126475000D03*
%TD*%
%TO.C,TP3*%
X125650000Y-76550000D03*
%TD*%
D15*
%TO.C,H3*%
X193600000Y-135000000D03*
%TD*%
%TO.C,H1*%
X193500000Y-49900000D03*
%TD*%
D21*
%TO.C,K3*%
X167290000Y-56600000D03*
X167290000Y-66760000D03*
X167290000Y-69300000D03*
X174910000Y-69300000D03*
X174910000Y-66760000D03*
X174910000Y-56600000D03*
%TD*%
D12*
%TO.C,J13*%
X111550000Y-98375000D03*
D13*
X111550000Y-101875000D03*
%TD*%
D10*
%TO.C,J6*%
X191150000Y-74840000D03*
D11*
X191150000Y-77380000D03*
X191150000Y-79920000D03*
X191150000Y-82460000D03*
X191150000Y-85000000D03*
%TD*%
D21*
%TO.C,K4*%
X179690000Y-56650000D03*
X179690000Y-66810000D03*
X179690000Y-69350000D03*
X187310000Y-69350000D03*
X187310000Y-66810000D03*
X187310000Y-56650000D03*
%TD*%
D16*
%TO.C,TP2*%
X128400000Y-79550000D03*
%TD*%
D15*
%TO.C,H4*%
X108400000Y-49800000D03*
%TD*%
D12*
%TO.C,J12*%
X111550000Y-91450000D03*
D13*
X111550000Y-94950000D03*
%TD*%
D12*
%TO.C,J5*%
X187100000Y-51625000D03*
D13*
X183600000Y-51625000D03*
X180100000Y-51625000D03*
%TD*%
D10*
%TO.C,J10*%
X186700000Y-101970000D03*
D11*
X186700000Y-104510000D03*
X186700000Y-107050000D03*
X186700000Y-109590000D03*
X186700000Y-112130000D03*
%TD*%
D16*
%TO.C,TP1*%
X125650000Y-79550000D03*
%TD*%
D21*
%TO.C,K2*%
X154890000Y-56550000D03*
X154890000Y-66710000D03*
X154890000Y-69250000D03*
X162510000Y-69250000D03*
X162510000Y-66710000D03*
X162510000Y-56550000D03*
%TD*%
D10*
%TO.C,J1*%
X191150000Y-101970000D03*
D11*
X191150000Y-104510000D03*
X191150000Y-107050000D03*
X191150000Y-109590000D03*
X191150000Y-112130000D03*
%TD*%
D16*
%TO.C,TP13*%
X126700000Y-123425000D03*
%TD*%
D12*
%TO.C,J2*%
X149650000Y-51675000D03*
D13*
X146150000Y-51675000D03*
X142650000Y-51675000D03*
%TD*%
D23*
%TO.C,J7*%
X169150000Y-132650000D03*
D20*
X174150000Y-132650000D03*
%TD*%
D12*
%TO.C,J3*%
X162000000Y-51725000D03*
D13*
X158500000Y-51725000D03*
X155000000Y-51725000D03*
%TD*%
D24*
%TO.C,J8*%
X182750000Y-125550000D03*
D25*
X182750000Y-131850000D03*
D26*
X187550000Y-128450000D03*
%TD*%
D12*
%TO.C,J16*%
X111550000Y-112425000D03*
D13*
X111550000Y-115925000D03*
%TD*%
M02*
