%TF.GenerationSoftware,KiCad,Pcbnew,8.0.7-8.0.7-0~ubuntu22.04.1*%
%TF.CreationDate,2024-12-29T11:33:37+01:00*%
%TF.ProjectId,monitor_consumo,6d6f6e69-746f-4725-9f63-6f6e73756d6f,rev?*%
%TF.SameCoordinates,Original*%
%TF.FileFunction,Drillmap*%
%TF.FilePolarity,Positive*%
%FSLAX45Y45*%
G04 Gerber Fmt 4.5, Leading zero omitted, Abs format (unit mm)*
G04 Created by KiCad (PCBNEW 8.0.7-8.0.7-0~ubuntu22.04.1) date 2024-12-29 11:33:37*
%MOMM*%
%LPD*%
G01*
G04 APERTURE LIST*
%ADD10C,0.050000*%
%ADD11C,0.200000*%
%ADD12C,0.100000*%
%ADD13C,0.120000*%
%ADD14C,0.170000*%
G04 APERTURE END LIST*
D10*
X10380000Y-4505000D02*
X19780000Y-4505000D01*
X19780000Y-14020000D01*
X10380000Y-14020000D01*
X10380000Y-4505000D01*
D11*
D12*
X11412500Y-12185000D02*
X11442500Y-12215000D01*
X11442500Y-12185000D02*
X11412500Y-12215000D01*
X11412500Y-12382500D02*
X11442500Y-12412500D01*
X11442500Y-12382500D02*
X11412500Y-12412500D01*
X11415000Y-12020000D02*
X11445000Y-12050000D01*
X11445000Y-12020000D02*
X11415000Y-12050000D01*
X11417500Y-8267500D02*
X11447500Y-8297500D01*
X11447500Y-8267500D02*
X11417500Y-8297500D01*
X11417500Y-11832500D02*
X11447500Y-11862500D01*
X11447500Y-11832500D02*
X11417500Y-11862500D01*
X11420000Y-8490000D02*
X11450000Y-8520000D01*
X11450000Y-8490000D02*
X11420000Y-8520000D01*
X11420000Y-8845000D02*
X11450000Y-8875000D01*
X11450000Y-8845000D02*
X11420000Y-8875000D01*
X11420000Y-9297500D02*
X11450000Y-9327500D01*
X11450000Y-9297500D02*
X11420000Y-9327500D01*
X11420000Y-11680000D02*
X11450000Y-11710000D01*
X11450000Y-11680000D02*
X11420000Y-11710000D01*
X11422500Y-9037500D02*
X11452500Y-9067500D01*
X11452500Y-9037500D02*
X11422500Y-9067500D01*
X11422500Y-9660000D02*
X11452500Y-9690000D01*
X11452500Y-9660000D02*
X11422500Y-9690000D01*
X11422500Y-10035000D02*
X11452500Y-10065000D01*
X11452500Y-10035000D02*
X11422500Y-10065000D01*
X11422500Y-10322500D02*
X11452500Y-10352500D01*
X11452500Y-10322500D02*
X11422500Y-10352500D01*
X11422500Y-10732500D02*
X11452500Y-10762500D01*
X11452500Y-10732500D02*
X11422500Y-10762500D01*
X11422500Y-11000000D02*
X11452500Y-11030000D01*
X11452500Y-11000000D02*
X11422500Y-11030000D01*
X11422500Y-11460000D02*
X11452500Y-11490000D01*
X11452500Y-11460000D02*
X11422500Y-11490000D01*
X11760000Y-9777500D02*
X11790000Y-9807500D01*
X11790000Y-9777500D02*
X11760000Y-9807500D01*
X11900000Y-9235000D02*
X11930000Y-9265000D01*
X11930000Y-9235000D02*
X11900000Y-9265000D01*
X11910000Y-8490000D02*
X11940000Y-8520000D01*
X11940000Y-8490000D02*
X11910000Y-8520000D01*
X11910000Y-11660000D02*
X11940000Y-11690000D01*
X11940000Y-11660000D02*
X11910000Y-11690000D01*
X11910000Y-11910000D02*
X11940000Y-11940000D01*
X11940000Y-11910000D02*
X11910000Y-11940000D01*
X11915000Y-10462500D02*
X11945000Y-10492500D01*
X11945000Y-10462500D02*
X11915000Y-10492500D01*
X11917500Y-10267500D02*
X11947500Y-10297500D01*
X11947500Y-10267500D02*
X11917500Y-10297500D01*
X11917500Y-10920000D02*
X11947500Y-10950000D01*
X11947500Y-10920000D02*
X11917500Y-10950000D01*
X11917500Y-11105000D02*
X11947500Y-11135000D01*
X11947500Y-11105000D02*
X11917500Y-11135000D01*
X12162500Y-9822500D02*
X12192500Y-9852500D01*
X12192500Y-9822500D02*
X12162500Y-9852500D01*
X12175000Y-9282500D02*
X12205000Y-9312500D01*
X12205000Y-9282500D02*
X12175000Y-9312500D01*
X12190000Y-9380000D02*
X12220000Y-9410000D01*
X12220000Y-9380000D02*
X12190000Y-9410000D01*
X12282574Y-11362574D02*
X12312574Y-11392574D01*
X12312574Y-11362574D02*
X12282574Y-11392574D01*
X12295000Y-11555000D02*
X12325000Y-11585000D01*
X12325000Y-11555000D02*
X12295000Y-11585000D01*
X12337500Y-9380000D02*
X12367500Y-9410000D01*
X12367500Y-9380000D02*
X12337500Y-9410000D01*
X12445000Y-8910000D02*
X12475000Y-8940000D01*
X12475000Y-8910000D02*
X12445000Y-8940000D01*
X12465000Y-10885000D02*
X12495000Y-10915000D01*
X12495000Y-10885000D02*
X12465000Y-10915000D01*
X12717500Y-10077500D02*
X12747500Y-10107500D01*
X12747500Y-10077500D02*
X12717500Y-10107500D01*
X12735000Y-9085000D02*
X12765000Y-9115000D01*
X12765000Y-9085000D02*
X12735000Y-9115000D01*
X12825000Y-11275000D02*
X12855000Y-11305000D01*
X12855000Y-11275000D02*
X12825000Y-11305000D01*
X12925000Y-11275000D02*
X12955000Y-11305000D01*
X12955000Y-11275000D02*
X12925000Y-11305000D01*
X12945000Y-9325000D02*
X12975000Y-9355000D01*
X12975000Y-9325000D02*
X12945000Y-9355000D01*
X12965000Y-9085000D02*
X12995000Y-9115000D01*
X12995000Y-9085000D02*
X12965000Y-9115000D01*
X12970000Y-7785000D02*
X13000000Y-7815000D01*
X13000000Y-7785000D02*
X12970000Y-7815000D01*
X12977500Y-10400000D02*
X13007500Y-10430000D01*
X13007500Y-10400000D02*
X12977500Y-10430000D01*
X13030000Y-8455000D02*
X13060000Y-8485000D01*
X13060000Y-8455000D02*
X13030000Y-8485000D01*
X13065000Y-9085000D02*
X13095000Y-9115000D01*
X13095000Y-9085000D02*
X13065000Y-9115000D01*
X13065000Y-9415000D02*
X13095000Y-9445000D01*
X13095000Y-9415000D02*
X13065000Y-9445000D01*
X13075000Y-11525000D02*
X13105000Y-11555000D01*
X13105000Y-11525000D02*
X13075000Y-11555000D01*
X13080000Y-10077500D02*
X13110000Y-10107500D01*
X13110000Y-10077500D02*
X13080000Y-10107500D01*
X13135000Y-11237500D02*
X13165000Y-11267500D01*
X13165000Y-11237500D02*
X13135000Y-11267500D01*
X13145000Y-9025000D02*
X13175000Y-9055000D01*
X13175000Y-9025000D02*
X13145000Y-9055000D01*
X13145000Y-9265000D02*
X13175000Y-9295000D01*
X13175000Y-9265000D02*
X13145000Y-9295000D01*
X13150000Y-8010000D02*
X13180000Y-8040000D01*
X13180000Y-8010000D02*
X13150000Y-8040000D01*
X13165000Y-7585000D02*
X13195000Y-7615000D01*
X13195000Y-7585000D02*
X13165000Y-7615000D01*
X13275000Y-11692500D02*
X13305000Y-11722500D01*
X13305000Y-11692500D02*
X13275000Y-11722500D01*
X13325000Y-8565000D02*
X13355000Y-8595000D01*
X13355000Y-8565000D02*
X13325000Y-8595000D01*
X13325000Y-8715000D02*
X13355000Y-8745000D01*
X13355000Y-8715000D02*
X13325000Y-8745000D01*
X13327500Y-10405000D02*
X13357500Y-10435000D01*
X13357500Y-10405000D02*
X13327500Y-10435000D01*
X13355000Y-12020000D02*
X13385000Y-12050000D01*
X13385000Y-12020000D02*
X13355000Y-12050000D01*
X13370000Y-7805000D02*
X13400000Y-7835000D01*
X13400000Y-7805000D02*
X13370000Y-7835000D01*
X13370000Y-7932500D02*
X13400000Y-7962500D01*
X13400000Y-7932500D02*
X13370000Y-7962500D01*
X13405000Y-8290000D02*
X13435000Y-8320000D01*
X13435000Y-8290000D02*
X13405000Y-8320000D01*
X13405000Y-8805000D02*
X13435000Y-8835000D01*
X13435000Y-8805000D02*
X13405000Y-8835000D01*
X13405000Y-10232500D02*
X13435000Y-10262500D01*
X13435000Y-10232500D02*
X13405000Y-10262500D01*
X13425000Y-10355000D02*
X13455000Y-10385000D01*
X13455000Y-10355000D02*
X13425000Y-10385000D01*
X13455000Y-7865000D02*
X13485000Y-7895000D01*
X13485000Y-7865000D02*
X13455000Y-7895000D01*
X13495000Y-8655000D02*
X13525000Y-8685000D01*
X13525000Y-8655000D02*
X13495000Y-8685000D01*
X13495000Y-10295000D02*
X13525000Y-10325000D01*
X13525000Y-10295000D02*
X13495000Y-10325000D01*
X13535000Y-7750000D02*
X13565000Y-7780000D01*
X13565000Y-7750000D02*
X13535000Y-7780000D01*
X13575000Y-8750000D02*
X13605000Y-8780000D01*
X13605000Y-8750000D02*
X13575000Y-8780000D01*
X13575000Y-8870000D02*
X13605000Y-8900000D01*
X13605000Y-8870000D02*
X13575000Y-8900000D01*
X13575000Y-10177500D02*
X13605000Y-10207500D01*
X13605000Y-10177500D02*
X13575000Y-10207500D01*
X13625000Y-10955000D02*
X13655000Y-10985000D01*
X13655000Y-10955000D02*
X13625000Y-10985000D01*
X13655000Y-7580000D02*
X13685000Y-7610000D01*
X13685000Y-7580000D02*
X13655000Y-7610000D01*
X13665870Y-8933550D02*
X13695870Y-8963550D01*
X13695870Y-8933550D02*
X13665870Y-8963550D01*
X13740000Y-8005000D02*
X13770000Y-8035000D01*
X13770000Y-8005000D02*
X13740000Y-8035000D01*
X14600000Y-7575000D02*
X14630000Y-7605000D01*
X14630000Y-7575000D02*
X14600000Y-7605000D01*
X14675000Y-9935000D02*
X14705000Y-9965000D01*
X14705000Y-9935000D02*
X14675000Y-9965000D01*
X14945000Y-10575000D02*
X14975000Y-10605000D01*
X14975000Y-10575000D02*
X14945000Y-10605000D01*
X14955000Y-10065000D02*
X14985000Y-10095000D01*
X14985000Y-10065000D02*
X14955000Y-10095000D01*
X15175000Y-7575000D02*
X15205000Y-7605000D01*
X15205000Y-7575000D02*
X15175000Y-7605000D01*
X15225000Y-10325000D02*
X15255000Y-10355000D01*
X15255000Y-10325000D02*
X15225000Y-10355000D01*
X15570000Y-8915000D02*
X15600000Y-8945000D01*
X15600000Y-8915000D02*
X15570000Y-8945000D01*
X15655000Y-8420000D02*
X15685000Y-8450000D01*
X15685000Y-8420000D02*
X15655000Y-8450000D01*
X15660000Y-11090000D02*
X15690000Y-11120000D01*
X15690000Y-11090000D02*
X15660000Y-11120000D01*
X16125000Y-8915000D02*
X16155000Y-8945000D01*
X16155000Y-8915000D02*
X16125000Y-8945000D01*
X16410000Y-7545000D02*
X16440000Y-7575000D01*
X16440000Y-7545000D02*
X16410000Y-7575000D01*
X16690000Y-10590000D02*
X16720000Y-10620000D01*
X16720000Y-10590000D02*
X16690000Y-10620000D01*
X16855000Y-10435000D02*
X16885000Y-10465000D01*
X16885000Y-10435000D02*
X16855000Y-10465000D01*
X16892500Y-11675000D02*
X16922500Y-11705000D01*
X16922500Y-11675000D02*
X16892500Y-11705000D01*
X16935000Y-7675000D02*
X16965000Y-7705000D01*
X16965000Y-7675000D02*
X16935000Y-7705000D01*
X16935000Y-8075000D02*
X16965000Y-8105000D01*
X16965000Y-8075000D02*
X16935000Y-8105000D01*
X16935000Y-8275000D02*
X16965000Y-8305000D01*
X16965000Y-8275000D02*
X16935000Y-8305000D01*
X16937500Y-7882500D02*
X16967500Y-7912500D01*
X16967500Y-7882500D02*
X16937500Y-7912500D01*
X17040000Y-8975000D02*
X17070000Y-9005000D01*
X17070000Y-8975000D02*
X17040000Y-9005000D01*
X17060000Y-11155000D02*
X17090000Y-11185000D01*
X17090000Y-11155000D02*
X17060000Y-11185000D01*
X17107500Y-8700000D02*
X17137500Y-8730000D01*
X17137500Y-8700000D02*
X17107500Y-8730000D01*
X17216000Y-8794000D02*
X17246000Y-8824000D01*
X17246000Y-8794000D02*
X17216000Y-8824000D01*
X17241000Y-9706000D02*
X17271000Y-9736000D01*
X17271000Y-9706000D02*
X17241000Y-9736000D01*
X17340000Y-9310000D02*
X17370000Y-9340000D01*
X17370000Y-9310000D02*
X17340000Y-9340000D01*
X17340000Y-9565000D02*
X17370000Y-9595000D01*
X17370000Y-9565000D02*
X17340000Y-9595000D01*
X17346000Y-9842000D02*
X17376000Y-9872000D01*
X17376000Y-9842000D02*
X17346000Y-9872000D01*
X17672500Y-7670000D02*
X17702500Y-7700000D01*
X17702500Y-7670000D02*
X17672500Y-7700000D01*
X17872500Y-11252500D02*
X17902500Y-11282500D01*
X17902500Y-11252500D02*
X17872500Y-11282500D01*
X17875000Y-10530000D02*
X17905000Y-10560000D01*
X17905000Y-10530000D02*
X17875000Y-10560000D01*
X17875000Y-10890000D02*
X17905000Y-10920000D01*
X17905000Y-10890000D02*
X17875000Y-10920000D01*
X17925000Y-8920000D02*
X17955000Y-8950000D01*
X17955000Y-8920000D02*
X17925000Y-8950000D01*
X17974000Y-9637000D02*
X18004000Y-9667000D01*
X18004000Y-9637000D02*
X17974000Y-9667000D01*
X17985000Y-7815000D02*
X18015000Y-7845000D01*
X18015000Y-7815000D02*
X17985000Y-7845000D01*
X18000000Y-8860000D02*
X18030000Y-8890000D01*
X18030000Y-8860000D02*
X18000000Y-8890000D01*
X18038000Y-9842000D02*
X18068000Y-9872000D01*
X18068000Y-9842000D02*
X18038000Y-9872000D01*
X18065000Y-8495000D02*
X18095000Y-8525000D01*
X18095000Y-8495000D02*
X18065000Y-8525000D01*
X18125000Y-8370000D02*
X18155000Y-8400000D01*
X18155000Y-8370000D02*
X18125000Y-8400000D01*
X18125000Y-9706000D02*
X18155000Y-9736000D01*
X18155000Y-9706000D02*
X18125000Y-9736000D01*
X18200000Y-9634000D02*
X18230000Y-9664000D01*
X18230000Y-9634000D02*
X18200000Y-9664000D01*
X18300000Y-8370000D02*
X18330000Y-8400000D01*
X18330000Y-8370000D02*
X18300000Y-8400000D01*
X18305000Y-8495000D02*
X18335000Y-8525000D01*
X18335000Y-8495000D02*
X18305000Y-8525000D01*
X18460000Y-7500000D02*
X18490000Y-7530000D01*
X18490000Y-7500000D02*
X18460000Y-7530000D01*
X18510000Y-9955000D02*
X18540000Y-9985000D01*
X18540000Y-9955000D02*
X18510000Y-9985000D01*
X18511000Y-9701000D02*
X18541000Y-9731000D01*
X18541000Y-9701000D02*
X18511000Y-9731000D01*
X18535000Y-9070000D02*
X18565000Y-9100000D01*
X18565000Y-9070000D02*
X18535000Y-9100000D01*
X18680000Y-9310000D02*
X18710000Y-9340000D01*
X18710000Y-9310000D02*
X18680000Y-9340000D01*
X18770000Y-9565000D02*
X18800000Y-9595000D01*
X18800000Y-9565000D02*
X18770000Y-9595000D01*
X18872500Y-9832500D02*
X18902500Y-9862500D01*
X18902500Y-9832500D02*
X18872500Y-9862500D01*
X18890000Y-9610000D02*
X18920000Y-9640000D01*
X18920000Y-9610000D02*
X18890000Y-9640000D01*
X19480000Y-9610000D02*
X19510000Y-9640000D01*
X19510000Y-9610000D02*
X19480000Y-9640000D01*
X15255000Y-12047500D02*
G75*
G02*
X15195000Y-12047500I-30000J0D01*
G01*
X15195000Y-12047500D02*
G75*
G02*
X15255000Y-12047500I30000J0D01*
G01*
X19280000Y-11567500D02*
G75*
G02*
X19220000Y-11567500I-30000J0D01*
G01*
X19220000Y-11567500D02*
G75*
G02*
X19280000Y-11567500I30000J0D01*
G01*
X12407500Y-12612500D02*
X12407500Y-12682500D01*
X12372500Y-12647500D02*
X12442500Y-12647500D01*
X12410000Y-12307500D02*
X12410000Y-12377500D01*
X12375000Y-12342500D02*
X12445000Y-12342500D01*
X12565000Y-7620000D02*
X12565000Y-7690000D01*
X12530000Y-7655000D02*
X12600000Y-7655000D01*
X12565000Y-7920000D02*
X12565000Y-7990000D01*
X12530000Y-7955000D02*
X12600000Y-7955000D01*
X12667500Y-12612500D02*
X12667500Y-12682500D01*
X12632500Y-12647500D02*
X12702500Y-12647500D01*
X12670000Y-12307500D02*
X12670000Y-12377500D01*
X12635000Y-12342500D02*
X12705000Y-12342500D01*
X12840000Y-7620000D02*
X12840000Y-7690000D01*
X12805000Y-7655000D02*
X12875000Y-7655000D01*
X12840000Y-7920000D02*
X12840000Y-7990000D01*
X12805000Y-7955000D02*
X12875000Y-7955000D01*
X14083941Y-8581941D02*
X14083941Y-8528059D01*
X14030059Y-8528059D01*
X14030059Y-8581941D01*
X14083941Y-8581941D01*
X14083941Y-8835941D02*
X14083941Y-8782059D01*
X14030059Y-8782059D01*
X14030059Y-8835941D01*
X14083941Y-8835941D01*
X14083941Y-9089941D02*
X14083941Y-9036059D01*
X14030059Y-9036059D01*
X14030059Y-9089941D01*
X14083941Y-9089941D01*
X14083941Y-9343941D02*
X14083941Y-9290059D01*
X14030059Y-9290059D01*
X14030059Y-9343941D01*
X14083941Y-9343941D01*
X14083941Y-9597941D02*
X14083941Y-9544059D01*
X14030059Y-9544059D01*
X14030059Y-9597941D01*
X14083941Y-9597941D01*
X14083941Y-9851941D02*
X14083941Y-9798059D01*
X14030059Y-9798059D01*
X14030059Y-9851941D01*
X14083941Y-9851941D01*
X14083941Y-10105941D02*
X14083941Y-10052059D01*
X14030059Y-10052059D01*
X14030059Y-10105941D01*
X14083941Y-10105941D01*
X14083941Y-10359941D02*
X14083941Y-10306059D01*
X14030059Y-10306059D01*
X14030059Y-10359941D01*
X14083941Y-10359941D01*
X14083941Y-10613941D02*
X14083941Y-10560059D01*
X14030059Y-10560059D01*
X14030059Y-10613941D01*
X14083941Y-10613941D01*
X14083941Y-10867941D02*
X14083941Y-10814059D01*
X14030059Y-10814059D01*
X14030059Y-10867941D01*
X14083941Y-10867941D01*
X14083941Y-11121941D02*
X14083941Y-11068059D01*
X14030059Y-11068059D01*
X14030059Y-11121941D01*
X14083941Y-11121941D01*
X14083941Y-11375941D02*
X14083941Y-11322059D01*
X14030059Y-11322059D01*
X14030059Y-11375941D01*
X14083941Y-11375941D01*
X14083941Y-11629941D02*
X14083941Y-11576059D01*
X14030059Y-11576059D01*
X14030059Y-11629941D01*
X14083941Y-11629941D01*
X16369941Y-8581941D02*
X16369941Y-8528059D01*
X16316059Y-8528059D01*
X16316059Y-8581941D01*
X16369941Y-8581941D01*
X16369941Y-8835941D02*
X16369941Y-8782059D01*
X16316059Y-8782059D01*
X16316059Y-8835941D01*
X16369941Y-8835941D01*
X16369941Y-9089941D02*
X16369941Y-9036059D01*
X16316059Y-9036059D01*
X16316059Y-9089941D01*
X16369941Y-9089941D01*
X16369941Y-9343941D02*
X16369941Y-9290059D01*
X16316059Y-9290059D01*
X16316059Y-9343941D01*
X16369941Y-9343941D01*
X16369941Y-9597941D02*
X16369941Y-9544059D01*
X16316059Y-9544059D01*
X16316059Y-9597941D01*
X16369941Y-9597941D01*
X16369941Y-9851941D02*
X16369941Y-9798059D01*
X16316059Y-9798059D01*
X16316059Y-9851941D01*
X16369941Y-9851941D01*
X16369941Y-10105941D02*
X16369941Y-10052059D01*
X16316059Y-10052059D01*
X16316059Y-10105941D01*
X16369941Y-10105941D01*
X16369941Y-10359941D02*
X16369941Y-10306059D01*
X16316059Y-10306059D01*
X16316059Y-10359941D01*
X16369941Y-10359941D01*
X16369941Y-10613941D02*
X16369941Y-10560059D01*
X16316059Y-10560059D01*
X16316059Y-10613941D01*
X16369941Y-10613941D01*
X16369941Y-10867941D02*
X16369941Y-10814059D01*
X16316059Y-10814059D01*
X16316059Y-10867941D01*
X16369941Y-10867941D01*
X16369941Y-11121941D02*
X16369941Y-11068059D01*
X16316059Y-11068059D01*
X16316059Y-11121941D01*
X16369941Y-11121941D01*
X16369941Y-11375941D02*
X16369941Y-11322059D01*
X16316059Y-11322059D01*
X16316059Y-11375941D01*
X16369941Y-11375941D01*
X16369941Y-11629941D02*
X16369941Y-11576059D01*
X16316059Y-11576059D01*
X16316059Y-11629941D01*
X16369941Y-11629941D01*
X14259000Y-5705000D02*
X14309000Y-5655000D01*
X14259000Y-5605000D01*
X14209000Y-5655000D01*
X14259000Y-5705000D01*
X14259000Y-6721000D02*
X14309000Y-6671000D01*
X14259000Y-6621000D01*
X14209000Y-6671000D01*
X14259000Y-6721000D01*
X14259000Y-6975000D02*
X14309000Y-6925000D01*
X14259000Y-6875000D01*
X14209000Y-6925000D01*
X14259000Y-6975000D01*
X15021000Y-5705000D02*
X15071000Y-5655000D01*
X15021000Y-5605000D01*
X14971000Y-5655000D01*
X15021000Y-5705000D01*
X15021000Y-6721000D02*
X15071000Y-6671000D01*
X15021000Y-6621000D01*
X14971000Y-6671000D01*
X15021000Y-6721000D01*
X15021000Y-6975000D02*
X15071000Y-6925000D01*
X15021000Y-6875000D01*
X14971000Y-6925000D01*
X15021000Y-6975000D01*
X15489000Y-5705000D02*
X15539000Y-5655000D01*
X15489000Y-5605000D01*
X15439000Y-5655000D01*
X15489000Y-5705000D01*
X15489000Y-6721000D02*
X15539000Y-6671000D01*
X15489000Y-6621000D01*
X15439000Y-6671000D01*
X15489000Y-6721000D01*
X15489000Y-6975000D02*
X15539000Y-6925000D01*
X15489000Y-6875000D01*
X15439000Y-6925000D01*
X15489000Y-6975000D01*
X16251000Y-5705000D02*
X16301000Y-5655000D01*
X16251000Y-5605000D01*
X16201000Y-5655000D01*
X16251000Y-5705000D01*
X16251000Y-6721000D02*
X16301000Y-6671000D01*
X16251000Y-6621000D01*
X16201000Y-6671000D01*
X16251000Y-6721000D01*
X16251000Y-6975000D02*
X16301000Y-6925000D01*
X16251000Y-6875000D01*
X16201000Y-6925000D01*
X16251000Y-6975000D01*
X16729000Y-5710000D02*
X16779000Y-5660000D01*
X16729000Y-5610000D01*
X16679000Y-5660000D01*
X16729000Y-5710000D01*
X16729000Y-6726000D02*
X16779000Y-6676000D01*
X16729000Y-6626000D01*
X16679000Y-6676000D01*
X16729000Y-6726000D01*
X16729000Y-6980000D02*
X16779000Y-6930000D01*
X16729000Y-6880000D01*
X16679000Y-6930000D01*
X16729000Y-6980000D01*
X17180000Y-12605000D02*
X17230000Y-12555000D01*
X17180000Y-12505000D01*
X17130000Y-12555000D01*
X17180000Y-12605000D01*
X17181000Y-12097000D02*
X17231000Y-12047000D01*
X17181000Y-11997000D01*
X17131000Y-12047000D01*
X17181000Y-12097000D01*
X17491000Y-5710000D02*
X17541000Y-5660000D01*
X17491000Y-5610000D01*
X17441000Y-5660000D01*
X17491000Y-5710000D01*
X17491000Y-6726000D02*
X17541000Y-6676000D01*
X17491000Y-6626000D01*
X17441000Y-6676000D01*
X17491000Y-6726000D01*
X17491000Y-6980000D02*
X17541000Y-6930000D01*
X17491000Y-6880000D01*
X17441000Y-6930000D01*
X17491000Y-6980000D01*
X17969000Y-5715000D02*
X18019000Y-5665000D01*
X17969000Y-5615000D01*
X17919000Y-5665000D01*
X17969000Y-5715000D01*
X17969000Y-6731000D02*
X18019000Y-6681000D01*
X17969000Y-6631000D01*
X17919000Y-6681000D01*
X17969000Y-6731000D01*
X17969000Y-6985000D02*
X18019000Y-6935000D01*
X17969000Y-6885000D01*
X17919000Y-6935000D01*
X17969000Y-6985000D01*
X18275000Y-12605000D02*
X18325000Y-12555000D01*
X18275000Y-12505000D01*
X18225000Y-12555000D01*
X18275000Y-12605000D01*
X18145000Y-12605000D02*
X18405000Y-12605000D01*
X18405000Y-12505000D02*
G75*
G02*
X18405000Y-12605000I0J-50000D01*
G01*
X18405000Y-12505000D02*
X18145000Y-12505000D01*
X18145000Y-12505000D02*
G75*
G03*
X18145000Y-12605000I0J-50000D01*
G01*
X18275000Y-13235000D02*
X18325000Y-13185000D01*
X18275000Y-13135000D01*
X18225000Y-13185000D01*
X18275000Y-13235000D01*
X18165000Y-13235000D02*
X18385000Y-13235000D01*
X18385000Y-13135000D02*
G75*
G02*
X18385000Y-13235000I0J-50000D01*
G01*
X18385000Y-13135000D02*
X18165000Y-13135000D01*
X18165000Y-13135000D02*
G75*
G03*
X18165000Y-13235000I0J-50000D01*
G01*
X18670000Y-10247000D02*
X18720000Y-10197000D01*
X18670000Y-10147000D01*
X18620000Y-10197000D01*
X18670000Y-10247000D01*
X18670000Y-10501000D02*
X18720000Y-10451000D01*
X18670000Y-10401000D01*
X18620000Y-10451000D01*
X18670000Y-10501000D01*
X18670000Y-10755000D02*
X18720000Y-10705000D01*
X18670000Y-10655000D01*
X18620000Y-10705000D01*
X18670000Y-10755000D01*
X18670000Y-11009000D02*
X18720000Y-10959000D01*
X18670000Y-10909000D01*
X18620000Y-10959000D01*
X18670000Y-11009000D01*
X18670000Y-11263000D02*
X18720000Y-11213000D01*
X18670000Y-11163000D01*
X18620000Y-11213000D01*
X18670000Y-11263000D01*
X18731000Y-5715000D02*
X18781000Y-5665000D01*
X18731000Y-5615000D01*
X18681000Y-5665000D01*
X18731000Y-5715000D01*
X18731000Y-6731000D02*
X18781000Y-6681000D01*
X18731000Y-6631000D01*
X18681000Y-6681000D01*
X18731000Y-6731000D01*
X18731000Y-6985000D02*
X18781000Y-6935000D01*
X18731000Y-6885000D01*
X18681000Y-6935000D01*
X18731000Y-6985000D01*
X18755000Y-12895000D02*
X18805000Y-12845000D01*
X18755000Y-12795000D01*
X18705000Y-12845000D01*
X18755000Y-12895000D01*
X18705000Y-12735000D02*
X18705000Y-12955000D01*
X18805000Y-12955000D02*
G75*
G02*
X18705000Y-12955000I-50000J0D01*
G01*
X18805000Y-12955000D02*
X18805000Y-12735000D01*
X18805000Y-12735000D02*
G75*
G03*
X18705000Y-12735000I-50000J0D01*
G01*
X19115000Y-7534000D02*
X19165000Y-7484000D01*
X19115000Y-7434000D01*
X19065000Y-7484000D01*
X19115000Y-7534000D01*
X19115000Y-7788000D02*
X19165000Y-7738000D01*
X19115000Y-7688000D01*
X19065000Y-7738000D01*
X19115000Y-7788000D01*
X19115000Y-8042000D02*
X19165000Y-7992000D01*
X19115000Y-7942000D01*
X19065000Y-7992000D01*
X19115000Y-8042000D01*
X19115000Y-8296000D02*
X19165000Y-8246000D01*
X19115000Y-8196000D01*
X19065000Y-8246000D01*
X19115000Y-8296000D01*
X19115000Y-8550000D02*
X19165000Y-8500000D01*
X19115000Y-8450000D01*
X19065000Y-8500000D01*
X19115000Y-8550000D01*
X19115000Y-9040000D02*
X19165000Y-8990000D01*
X19115000Y-8940000D01*
X19065000Y-8990000D01*
X19115000Y-9040000D01*
X19115000Y-9294000D02*
X19165000Y-9244000D01*
X19115000Y-9194000D01*
X19065000Y-9244000D01*
X19115000Y-9294000D01*
X19115000Y-9548000D02*
X19165000Y-9498000D01*
X19115000Y-9448000D01*
X19065000Y-9498000D01*
X19115000Y-9548000D01*
X19115000Y-9802000D02*
X19165000Y-9752000D01*
X19115000Y-9702000D01*
X19065000Y-9752000D01*
X19115000Y-9802000D01*
X19115000Y-10247000D02*
X19165000Y-10197000D01*
X19115000Y-10147000D01*
X19065000Y-10197000D01*
X19115000Y-10247000D01*
X19115000Y-10501000D02*
X19165000Y-10451000D01*
X19115000Y-10401000D01*
X19065000Y-10451000D01*
X19115000Y-10501000D01*
X19115000Y-10755000D02*
X19165000Y-10705000D01*
X19115000Y-10655000D01*
X19065000Y-10705000D01*
X19115000Y-10755000D01*
X19115000Y-11009000D02*
X19165000Y-10959000D01*
X19115000Y-10909000D01*
X19065000Y-10959000D01*
X19115000Y-11009000D01*
X19115000Y-11263000D02*
X19165000Y-11213000D01*
X19115000Y-11163000D01*
X19065000Y-11213000D01*
X19115000Y-11263000D01*
D13*
X11095000Y-8382500D02*
X11215000Y-8502500D01*
X11215000Y-8382500D02*
X11095000Y-8502500D01*
X11215000Y-8442500D02*
G75*
G02*
X11095000Y-8442500I-60000J0D01*
G01*
X11095000Y-8442500D02*
G75*
G02*
X11215000Y-8442500I60000J0D01*
G01*
X11095000Y-8732500D02*
X11215000Y-8852500D01*
X11215000Y-8732500D02*
X11095000Y-8852500D01*
X11215000Y-8792500D02*
G75*
G02*
X11095000Y-8792500I-60000J0D01*
G01*
X11095000Y-8792500D02*
G75*
G02*
X11215000Y-8792500I60000J0D01*
G01*
X11095000Y-9085000D02*
X11215000Y-9205000D01*
X11215000Y-9085000D02*
X11095000Y-9205000D01*
X11215000Y-9145000D02*
G75*
G02*
X11095000Y-9145000I-60000J0D01*
G01*
X11095000Y-9145000D02*
G75*
G02*
X11215000Y-9145000I60000J0D01*
G01*
X11095000Y-9435000D02*
X11215000Y-9555000D01*
X11215000Y-9435000D02*
X11095000Y-9555000D01*
X11215000Y-9495000D02*
G75*
G02*
X11095000Y-9495000I-60000J0D01*
G01*
X11095000Y-9495000D02*
G75*
G02*
X11215000Y-9495000I60000J0D01*
G01*
X11095000Y-9777500D02*
X11215000Y-9897500D01*
X11215000Y-9777500D02*
X11095000Y-9897500D01*
X11215000Y-9837500D02*
G75*
G02*
X11095000Y-9837500I-60000J0D01*
G01*
X11095000Y-9837500D02*
G75*
G02*
X11215000Y-9837500I60000J0D01*
G01*
X11095000Y-10127500D02*
X11215000Y-10247500D01*
X11215000Y-10127500D02*
X11095000Y-10247500D01*
X11215000Y-10187500D02*
G75*
G02*
X11095000Y-10187500I-60000J0D01*
G01*
X11095000Y-10187500D02*
G75*
G02*
X11215000Y-10187500I60000J0D01*
G01*
X11095000Y-10480000D02*
X11215000Y-10600000D01*
X11215000Y-10480000D02*
X11095000Y-10600000D01*
X11215000Y-10540000D02*
G75*
G02*
X11095000Y-10540000I-60000J0D01*
G01*
X11095000Y-10540000D02*
G75*
G02*
X11215000Y-10540000I60000J0D01*
G01*
X11095000Y-10830000D02*
X11215000Y-10950000D01*
X11215000Y-10830000D02*
X11095000Y-10950000D01*
X11215000Y-10890000D02*
G75*
G02*
X11095000Y-10890000I-60000J0D01*
G01*
X11095000Y-10890000D02*
G75*
G02*
X11215000Y-10890000I60000J0D01*
G01*
X11095000Y-11182500D02*
X11215000Y-11302500D01*
X11215000Y-11182500D02*
X11095000Y-11302500D01*
X11215000Y-11242500D02*
G75*
G02*
X11095000Y-11242500I-60000J0D01*
G01*
X11095000Y-11242500D02*
G75*
G02*
X11215000Y-11242500I60000J0D01*
G01*
X11095000Y-11532500D02*
X11215000Y-11652500D01*
X11215000Y-11532500D02*
X11095000Y-11652500D01*
X11215000Y-11592500D02*
G75*
G02*
X11095000Y-11592500I-60000J0D01*
G01*
X11095000Y-11592500D02*
G75*
G02*
X11215000Y-11592500I60000J0D01*
G01*
X11095000Y-11882500D02*
X11215000Y-12002500D01*
X11215000Y-11882500D02*
X11095000Y-12002500D01*
X11215000Y-11942500D02*
G75*
G02*
X11095000Y-11942500I-60000J0D01*
G01*
X11095000Y-11942500D02*
G75*
G02*
X11215000Y-11942500I60000J0D01*
G01*
X11095000Y-12232500D02*
X11215000Y-12352500D01*
X11215000Y-12232500D02*
X11095000Y-12352500D01*
X11215000Y-12292500D02*
G75*
G02*
X11095000Y-12292500I-60000J0D01*
G01*
X11095000Y-12292500D02*
G75*
G02*
X11215000Y-12292500I60000J0D01*
G01*
X12009000Y-5080000D02*
X12129000Y-5200000D01*
X12129000Y-5080000D02*
X12009000Y-5200000D01*
X12129000Y-5140000D02*
G75*
G02*
X12009000Y-5140000I-60000J0D01*
G01*
X12009000Y-5140000D02*
G75*
G02*
X12129000Y-5140000I60000J0D01*
G01*
X12509000Y-6630000D02*
X12629000Y-6750000D01*
X12629000Y-6630000D02*
X12509000Y-6750000D01*
X12629000Y-6690000D02*
G75*
G02*
X12509000Y-6690000I-60000J0D01*
G01*
X12509000Y-6690000D02*
G75*
G02*
X12629000Y-6690000I60000J0D01*
G01*
X13009000Y-6630000D02*
X13129000Y-6750000D01*
X13129000Y-6630000D02*
X13009000Y-6750000D01*
X13129000Y-6690000D02*
G75*
G02*
X13009000Y-6690000I-60000J0D01*
G01*
X13009000Y-6690000D02*
G75*
G02*
X13129000Y-6690000I60000J0D01*
G01*
X13509000Y-5080000D02*
X13629000Y-5200000D01*
X13629000Y-5080000D02*
X13509000Y-5200000D01*
X13629000Y-5140000D02*
G75*
G02*
X13509000Y-5140000I-60000J0D01*
G01*
X13509000Y-5140000D02*
G75*
G02*
X13629000Y-5140000I60000J0D01*
G01*
X14205000Y-5107500D02*
X14325000Y-5227500D01*
X14325000Y-5107500D02*
X14205000Y-5227500D01*
X14325000Y-5167500D02*
G75*
G02*
X14205000Y-5167500I-60000J0D01*
G01*
X14205000Y-5167500D02*
G75*
G02*
X14325000Y-5167500I60000J0D01*
G01*
X14555000Y-5107500D02*
X14675000Y-5227500D01*
X14675000Y-5107500D02*
X14555000Y-5227500D01*
X14675000Y-5167500D02*
G75*
G02*
X14555000Y-5167500I-60000J0D01*
G01*
X14555000Y-5167500D02*
G75*
G02*
X14675000Y-5167500I60000J0D01*
G01*
X14905000Y-5107500D02*
X15025000Y-5227500D01*
X15025000Y-5107500D02*
X14905000Y-5227500D01*
X15025000Y-5167500D02*
G75*
G02*
X14905000Y-5167500I-60000J0D01*
G01*
X14905000Y-5167500D02*
G75*
G02*
X15025000Y-5167500I60000J0D01*
G01*
X15440000Y-5112500D02*
X15560000Y-5232500D01*
X15560000Y-5112500D02*
X15440000Y-5232500D01*
X15560000Y-5172500D02*
G75*
G02*
X15440000Y-5172500I-60000J0D01*
G01*
X15440000Y-5172500D02*
G75*
G02*
X15560000Y-5172500I60000J0D01*
G01*
X15790000Y-5112500D02*
X15910000Y-5232500D01*
X15910000Y-5112500D02*
X15790000Y-5232500D01*
X15910000Y-5172500D02*
G75*
G02*
X15790000Y-5172500I-60000J0D01*
G01*
X15790000Y-5172500D02*
G75*
G02*
X15910000Y-5172500I60000J0D01*
G01*
X16140000Y-5112500D02*
X16260000Y-5232500D01*
X16260000Y-5112500D02*
X16140000Y-5232500D01*
X16260000Y-5172500D02*
G75*
G02*
X16140000Y-5172500I-60000J0D01*
G01*
X16140000Y-5172500D02*
G75*
G02*
X16260000Y-5172500I60000J0D01*
G01*
X16702500Y-5105000D02*
X16822500Y-5225000D01*
X16822500Y-5105000D02*
X16702500Y-5225000D01*
X16822500Y-5165000D02*
G75*
G02*
X16702500Y-5165000I-60000J0D01*
G01*
X16702500Y-5165000D02*
G75*
G02*
X16822500Y-5165000I60000J0D01*
G01*
X17052500Y-5105000D02*
X17172500Y-5225000D01*
X17172500Y-5105000D02*
X17052500Y-5225000D01*
X17172500Y-5165000D02*
G75*
G02*
X17052500Y-5165000I-60000J0D01*
G01*
X17052500Y-5165000D02*
G75*
G02*
X17172500Y-5165000I60000J0D01*
G01*
X17402500Y-5105000D02*
X17522500Y-5225000D01*
X17522500Y-5105000D02*
X17402500Y-5225000D01*
X17522500Y-5165000D02*
G75*
G02*
X17402500Y-5165000I-60000J0D01*
G01*
X17402500Y-5165000D02*
G75*
G02*
X17522500Y-5165000I60000J0D01*
G01*
X17950000Y-5102500D02*
X18070000Y-5222500D01*
X18070000Y-5102500D02*
X17950000Y-5222500D01*
X18070000Y-5162500D02*
G75*
G02*
X17950000Y-5162500I-60000J0D01*
G01*
X17950000Y-5162500D02*
G75*
G02*
X18070000Y-5162500I60000J0D01*
G01*
X18300000Y-5102500D02*
X18420000Y-5222500D01*
X18420000Y-5102500D02*
X18300000Y-5222500D01*
X18420000Y-5162500D02*
G75*
G02*
X18300000Y-5162500I-60000J0D01*
G01*
X18300000Y-5162500D02*
G75*
G02*
X18420000Y-5162500I60000J0D01*
G01*
X18650000Y-5102500D02*
X18770000Y-5222500D01*
X18770000Y-5102500D02*
X18650000Y-5222500D01*
X18770000Y-5162500D02*
G75*
G02*
X18650000Y-5162500I-60000J0D01*
G01*
X18650000Y-5162500D02*
G75*
G02*
X18770000Y-5162500I60000J0D01*
G01*
D14*
X10880000Y-5562750D02*
X11050000Y-5732750D01*
X11050000Y-5562750D02*
X10880000Y-5732750D01*
X10965000Y-5562750D02*
X10965000Y-5732750D01*
X10880000Y-5647750D02*
X11050000Y-5647750D01*
X10880000Y-6062750D02*
X11050000Y-6232750D01*
X11050000Y-6062750D02*
X10880000Y-6232750D01*
X10965000Y-6062750D02*
X10965000Y-6232750D01*
X10880000Y-6147750D02*
X11050000Y-6147750D01*
X10880000Y-6562750D02*
X11050000Y-6732750D01*
X11050000Y-6562750D02*
X10880000Y-6732750D01*
X10965000Y-6562750D02*
X10965000Y-6732750D01*
X10880000Y-6647750D02*
X11050000Y-6647750D01*
X16830000Y-13180000D02*
X17000000Y-13350000D01*
X17000000Y-13180000D02*
X16830000Y-13350000D01*
X16915000Y-13180000D02*
X16915000Y-13350000D01*
X16830000Y-13265000D02*
X17000000Y-13265000D01*
X17330000Y-13180000D02*
X17500000Y-13350000D01*
X17500000Y-13180000D02*
X17330000Y-13350000D01*
X17415000Y-13180000D02*
X17415000Y-13350000D01*
X17330000Y-13265000D02*
X17500000Y-13265000D01*
D11*
X10638277Y-14333984D02*
X10638277Y-14133984D01*
X10638277Y-14133984D02*
X10685896Y-14133984D01*
X10685896Y-14133984D02*
X10714467Y-14143508D01*
X10714467Y-14143508D02*
X10733515Y-14162555D01*
X10733515Y-14162555D02*
X10743039Y-14181603D01*
X10743039Y-14181603D02*
X10752563Y-14219698D01*
X10752563Y-14219698D02*
X10752563Y-14248269D01*
X10752563Y-14248269D02*
X10743039Y-14286365D01*
X10743039Y-14286365D02*
X10733515Y-14305412D01*
X10733515Y-14305412D02*
X10714467Y-14324460D01*
X10714467Y-14324460D02*
X10685896Y-14333984D01*
X10685896Y-14333984D02*
X10638277Y-14333984D01*
X10838277Y-14333984D02*
X10838277Y-14200650D01*
X10838277Y-14238746D02*
X10847801Y-14219698D01*
X10847801Y-14219698D02*
X10857324Y-14210174D01*
X10857324Y-14210174D02*
X10876372Y-14200650D01*
X10876372Y-14200650D02*
X10895420Y-14200650D01*
X10962086Y-14333984D02*
X10962086Y-14200650D01*
X10962086Y-14133984D02*
X10952563Y-14143508D01*
X10952563Y-14143508D02*
X10962086Y-14153031D01*
X10962086Y-14153031D02*
X10971610Y-14143508D01*
X10971610Y-14143508D02*
X10962086Y-14133984D01*
X10962086Y-14133984D02*
X10962086Y-14153031D01*
X11085896Y-14333984D02*
X11066848Y-14324460D01*
X11066848Y-14324460D02*
X11057324Y-14305412D01*
X11057324Y-14305412D02*
X11057324Y-14133984D01*
X11190658Y-14333984D02*
X11171610Y-14324460D01*
X11171610Y-14324460D02*
X11162086Y-14305412D01*
X11162086Y-14305412D02*
X11162086Y-14133984D01*
X11419229Y-14333984D02*
X11419229Y-14133984D01*
X11419229Y-14133984D02*
X11485896Y-14276841D01*
X11485896Y-14276841D02*
X11552562Y-14133984D01*
X11552562Y-14133984D02*
X11552562Y-14333984D01*
X11733515Y-14333984D02*
X11733515Y-14229222D01*
X11733515Y-14229222D02*
X11723991Y-14210174D01*
X11723991Y-14210174D02*
X11704943Y-14200650D01*
X11704943Y-14200650D02*
X11666848Y-14200650D01*
X11666848Y-14200650D02*
X11647801Y-14210174D01*
X11733515Y-14324460D02*
X11714467Y-14333984D01*
X11714467Y-14333984D02*
X11666848Y-14333984D01*
X11666848Y-14333984D02*
X11647801Y-14324460D01*
X11647801Y-14324460D02*
X11638277Y-14305412D01*
X11638277Y-14305412D02*
X11638277Y-14286365D01*
X11638277Y-14286365D02*
X11647801Y-14267317D01*
X11647801Y-14267317D02*
X11666848Y-14257793D01*
X11666848Y-14257793D02*
X11714467Y-14257793D01*
X11714467Y-14257793D02*
X11733515Y-14248269D01*
X11828753Y-14200650D02*
X11828753Y-14400650D01*
X11828753Y-14210174D02*
X11847801Y-14200650D01*
X11847801Y-14200650D02*
X11885896Y-14200650D01*
X11885896Y-14200650D02*
X11904943Y-14210174D01*
X11904943Y-14210174D02*
X11914467Y-14219698D01*
X11914467Y-14219698D02*
X11923991Y-14238746D01*
X11923991Y-14238746D02*
X11923991Y-14295888D01*
X11923991Y-14295888D02*
X11914467Y-14314936D01*
X11914467Y-14314936D02*
X11904943Y-14324460D01*
X11904943Y-14324460D02*
X11885896Y-14333984D01*
X11885896Y-14333984D02*
X11847801Y-14333984D01*
X11847801Y-14333984D02*
X11828753Y-14324460D01*
X12009705Y-14314936D02*
X12019229Y-14324460D01*
X12019229Y-14324460D02*
X12009705Y-14333984D01*
X12009705Y-14333984D02*
X12000182Y-14324460D01*
X12000182Y-14324460D02*
X12009705Y-14314936D01*
X12009705Y-14314936D02*
X12009705Y-14333984D01*
X12009705Y-14210174D02*
X12019229Y-14219698D01*
X12019229Y-14219698D02*
X12009705Y-14229222D01*
X12009705Y-14229222D02*
X12000182Y-14219698D01*
X12000182Y-14219698D02*
X12009705Y-14210174D01*
X12009705Y-14210174D02*
X12009705Y-14229222D01*
D12*
X10347500Y-14647500D02*
X10377500Y-14677500D01*
X10377500Y-14647500D02*
X10347500Y-14677500D01*
D11*
X10676372Y-14553984D02*
X10695420Y-14553984D01*
X10695420Y-14553984D02*
X10714467Y-14563508D01*
X10714467Y-14563508D02*
X10723991Y-14573031D01*
X10723991Y-14573031D02*
X10733515Y-14592079D01*
X10733515Y-14592079D02*
X10743039Y-14630174D01*
X10743039Y-14630174D02*
X10743039Y-14677793D01*
X10743039Y-14677793D02*
X10733515Y-14715888D01*
X10733515Y-14715888D02*
X10723991Y-14734936D01*
X10723991Y-14734936D02*
X10714467Y-14744460D01*
X10714467Y-14744460D02*
X10695420Y-14753984D01*
X10695420Y-14753984D02*
X10676372Y-14753984D01*
X10676372Y-14753984D02*
X10657324Y-14744460D01*
X10657324Y-14744460D02*
X10647801Y-14734936D01*
X10647801Y-14734936D02*
X10638277Y-14715888D01*
X10638277Y-14715888D02*
X10628753Y-14677793D01*
X10628753Y-14677793D02*
X10628753Y-14630174D01*
X10628753Y-14630174D02*
X10638277Y-14592079D01*
X10638277Y-14592079D02*
X10647801Y-14573031D01*
X10647801Y-14573031D02*
X10657324Y-14563508D01*
X10657324Y-14563508D02*
X10676372Y-14553984D01*
X10828753Y-14734936D02*
X10838277Y-14744460D01*
X10838277Y-14744460D02*
X10828753Y-14753984D01*
X10828753Y-14753984D02*
X10819229Y-14744460D01*
X10819229Y-14744460D02*
X10828753Y-14734936D01*
X10828753Y-14734936D02*
X10828753Y-14753984D01*
X10904944Y-14553984D02*
X11028753Y-14553984D01*
X11028753Y-14553984D02*
X10962086Y-14630174D01*
X10962086Y-14630174D02*
X10990658Y-14630174D01*
X10990658Y-14630174D02*
X11009705Y-14639698D01*
X11009705Y-14639698D02*
X11019229Y-14649222D01*
X11019229Y-14649222D02*
X11028753Y-14668269D01*
X11028753Y-14668269D02*
X11028753Y-14715888D01*
X11028753Y-14715888D02*
X11019229Y-14734936D01*
X11019229Y-14734936D02*
X11009705Y-14744460D01*
X11009705Y-14744460D02*
X10990658Y-14753984D01*
X10990658Y-14753984D02*
X10933515Y-14753984D01*
X10933515Y-14753984D02*
X10914467Y-14744460D01*
X10914467Y-14744460D02*
X10904944Y-14734936D01*
X11152563Y-14553984D02*
X11171610Y-14553984D01*
X11171610Y-14553984D02*
X11190658Y-14563508D01*
X11190658Y-14563508D02*
X11200182Y-14573031D01*
X11200182Y-14573031D02*
X11209705Y-14592079D01*
X11209705Y-14592079D02*
X11219229Y-14630174D01*
X11219229Y-14630174D02*
X11219229Y-14677793D01*
X11219229Y-14677793D02*
X11209705Y-14715888D01*
X11209705Y-14715888D02*
X11200182Y-14734936D01*
X11200182Y-14734936D02*
X11190658Y-14744460D01*
X11190658Y-14744460D02*
X11171610Y-14753984D01*
X11171610Y-14753984D02*
X11152563Y-14753984D01*
X11152563Y-14753984D02*
X11133515Y-14744460D01*
X11133515Y-14744460D02*
X11123991Y-14734936D01*
X11123991Y-14734936D02*
X11114467Y-14715888D01*
X11114467Y-14715888D02*
X11104944Y-14677793D01*
X11104944Y-14677793D02*
X11104944Y-14630174D01*
X11104944Y-14630174D02*
X11114467Y-14592079D01*
X11114467Y-14592079D02*
X11123991Y-14573031D01*
X11123991Y-14573031D02*
X11133515Y-14563508D01*
X11133515Y-14563508D02*
X11152563Y-14553984D01*
X11343039Y-14553984D02*
X11362086Y-14553984D01*
X11362086Y-14553984D02*
X11381134Y-14563508D01*
X11381134Y-14563508D02*
X11390658Y-14573031D01*
X11390658Y-14573031D02*
X11400182Y-14592079D01*
X11400182Y-14592079D02*
X11409705Y-14630174D01*
X11409705Y-14630174D02*
X11409705Y-14677793D01*
X11409705Y-14677793D02*
X11400182Y-14715888D01*
X11400182Y-14715888D02*
X11390658Y-14734936D01*
X11390658Y-14734936D02*
X11381134Y-14744460D01*
X11381134Y-14744460D02*
X11362086Y-14753984D01*
X11362086Y-14753984D02*
X11343039Y-14753984D01*
X11343039Y-14753984D02*
X11323991Y-14744460D01*
X11323991Y-14744460D02*
X11314467Y-14734936D01*
X11314467Y-14734936D02*
X11304943Y-14715888D01*
X11304943Y-14715888D02*
X11295420Y-14677793D01*
X11295420Y-14677793D02*
X11295420Y-14630174D01*
X11295420Y-14630174D02*
X11304943Y-14592079D01*
X11304943Y-14592079D02*
X11314467Y-14573031D01*
X11314467Y-14573031D02*
X11323991Y-14563508D01*
X11323991Y-14563508D02*
X11343039Y-14553984D01*
X11495420Y-14753984D02*
X11495420Y-14620650D01*
X11495420Y-14639698D02*
X11504943Y-14630174D01*
X11504943Y-14630174D02*
X11523991Y-14620650D01*
X11523991Y-14620650D02*
X11552563Y-14620650D01*
X11552563Y-14620650D02*
X11571610Y-14630174D01*
X11571610Y-14630174D02*
X11581134Y-14649222D01*
X11581134Y-14649222D02*
X11581134Y-14753984D01*
X11581134Y-14649222D02*
X11590658Y-14630174D01*
X11590658Y-14630174D02*
X11609705Y-14620650D01*
X11609705Y-14620650D02*
X11638277Y-14620650D01*
X11638277Y-14620650D02*
X11657324Y-14630174D01*
X11657324Y-14630174D02*
X11666848Y-14649222D01*
X11666848Y-14649222D02*
X11666848Y-14753984D01*
X11762086Y-14753984D02*
X11762086Y-14620650D01*
X11762086Y-14639698D02*
X11771610Y-14630174D01*
X11771610Y-14630174D02*
X11790658Y-14620650D01*
X11790658Y-14620650D02*
X11819229Y-14620650D01*
X11819229Y-14620650D02*
X11838277Y-14630174D01*
X11838277Y-14630174D02*
X11847801Y-14649222D01*
X11847801Y-14649222D02*
X11847801Y-14753984D01*
X11847801Y-14649222D02*
X11857324Y-14630174D01*
X11857324Y-14630174D02*
X11876372Y-14620650D01*
X11876372Y-14620650D02*
X11904943Y-14620650D01*
X11904943Y-14620650D02*
X11923991Y-14630174D01*
X11923991Y-14630174D02*
X11933515Y-14649222D01*
X11933515Y-14649222D02*
X11933515Y-14753984D01*
X12323991Y-14544460D02*
X12152563Y-14801603D01*
X12581134Y-14553984D02*
X12600182Y-14553984D01*
X12600182Y-14553984D02*
X12619229Y-14563508D01*
X12619229Y-14563508D02*
X12628753Y-14573031D01*
X12628753Y-14573031D02*
X12638277Y-14592079D01*
X12638277Y-14592079D02*
X12647801Y-14630174D01*
X12647801Y-14630174D02*
X12647801Y-14677793D01*
X12647801Y-14677793D02*
X12638277Y-14715888D01*
X12638277Y-14715888D02*
X12628753Y-14734936D01*
X12628753Y-14734936D02*
X12619229Y-14744460D01*
X12619229Y-14744460D02*
X12600182Y-14753984D01*
X12600182Y-14753984D02*
X12581134Y-14753984D01*
X12581134Y-14753984D02*
X12562086Y-14744460D01*
X12562086Y-14744460D02*
X12552563Y-14734936D01*
X12552563Y-14734936D02*
X12543039Y-14715888D01*
X12543039Y-14715888D02*
X12533515Y-14677793D01*
X12533515Y-14677793D02*
X12533515Y-14630174D01*
X12533515Y-14630174D02*
X12543039Y-14592079D01*
X12543039Y-14592079D02*
X12552563Y-14573031D01*
X12552563Y-14573031D02*
X12562086Y-14563508D01*
X12562086Y-14563508D02*
X12581134Y-14553984D01*
X12733515Y-14734936D02*
X12743039Y-14744460D01*
X12743039Y-14744460D02*
X12733515Y-14753984D01*
X12733515Y-14753984D02*
X12723991Y-14744460D01*
X12723991Y-14744460D02*
X12733515Y-14734936D01*
X12733515Y-14734936D02*
X12733515Y-14753984D01*
X12866848Y-14553984D02*
X12885896Y-14553984D01*
X12885896Y-14553984D02*
X12904944Y-14563508D01*
X12904944Y-14563508D02*
X12914467Y-14573031D01*
X12914467Y-14573031D02*
X12923991Y-14592079D01*
X12923991Y-14592079D02*
X12933515Y-14630174D01*
X12933515Y-14630174D02*
X12933515Y-14677793D01*
X12933515Y-14677793D02*
X12923991Y-14715888D01*
X12923991Y-14715888D02*
X12914467Y-14734936D01*
X12914467Y-14734936D02*
X12904944Y-14744460D01*
X12904944Y-14744460D02*
X12885896Y-14753984D01*
X12885896Y-14753984D02*
X12866848Y-14753984D01*
X12866848Y-14753984D02*
X12847801Y-14744460D01*
X12847801Y-14744460D02*
X12838277Y-14734936D01*
X12838277Y-14734936D02*
X12828753Y-14715888D01*
X12828753Y-14715888D02*
X12819229Y-14677793D01*
X12819229Y-14677793D02*
X12819229Y-14630174D01*
X12819229Y-14630174D02*
X12828753Y-14592079D01*
X12828753Y-14592079D02*
X12838277Y-14573031D01*
X12838277Y-14573031D02*
X12847801Y-14563508D01*
X12847801Y-14563508D02*
X12866848Y-14553984D01*
X13123991Y-14753984D02*
X13009706Y-14753984D01*
X13066848Y-14753984D02*
X13066848Y-14553984D01*
X13066848Y-14553984D02*
X13047801Y-14582555D01*
X13047801Y-14582555D02*
X13028753Y-14601603D01*
X13028753Y-14601603D02*
X13009706Y-14611127D01*
X13314467Y-14753984D02*
X13200182Y-14753984D01*
X13257325Y-14753984D02*
X13257325Y-14553984D01*
X13257325Y-14553984D02*
X13238277Y-14582555D01*
X13238277Y-14582555D02*
X13219229Y-14601603D01*
X13219229Y-14601603D02*
X13200182Y-14611127D01*
X13428753Y-14639698D02*
X13409706Y-14630174D01*
X13409706Y-14630174D02*
X13400182Y-14620650D01*
X13400182Y-14620650D02*
X13390658Y-14601603D01*
X13390658Y-14601603D02*
X13390658Y-14592079D01*
X13390658Y-14592079D02*
X13400182Y-14573031D01*
X13400182Y-14573031D02*
X13409706Y-14563508D01*
X13409706Y-14563508D02*
X13428753Y-14553984D01*
X13428753Y-14553984D02*
X13466848Y-14553984D01*
X13466848Y-14553984D02*
X13485896Y-14563508D01*
X13485896Y-14563508D02*
X13495420Y-14573031D01*
X13495420Y-14573031D02*
X13504944Y-14592079D01*
X13504944Y-14592079D02*
X13504944Y-14601603D01*
X13504944Y-14601603D02*
X13495420Y-14620650D01*
X13495420Y-14620650D02*
X13485896Y-14630174D01*
X13485896Y-14630174D02*
X13466848Y-14639698D01*
X13466848Y-14639698D02*
X13428753Y-14639698D01*
X13428753Y-14639698D02*
X13409706Y-14649222D01*
X13409706Y-14649222D02*
X13400182Y-14658746D01*
X13400182Y-14658746D02*
X13390658Y-14677793D01*
X13390658Y-14677793D02*
X13390658Y-14715888D01*
X13390658Y-14715888D02*
X13400182Y-14734936D01*
X13400182Y-14734936D02*
X13409706Y-14744460D01*
X13409706Y-14744460D02*
X13428753Y-14753984D01*
X13428753Y-14753984D02*
X13466848Y-14753984D01*
X13466848Y-14753984D02*
X13485896Y-14744460D01*
X13485896Y-14744460D02*
X13495420Y-14734936D01*
X13495420Y-14734936D02*
X13504944Y-14715888D01*
X13504944Y-14715888D02*
X13504944Y-14677793D01*
X13504944Y-14677793D02*
X13495420Y-14658746D01*
X13495420Y-14658746D02*
X13485896Y-14649222D01*
X13485896Y-14649222D02*
X13466848Y-14639698D01*
X13581134Y-14553984D02*
X13581134Y-14592079D01*
X13657325Y-14553984D02*
X13657325Y-14592079D01*
X13952563Y-14830174D02*
X13943039Y-14820650D01*
X13943039Y-14820650D02*
X13923991Y-14792079D01*
X13923991Y-14792079D02*
X13914468Y-14773031D01*
X13914468Y-14773031D02*
X13904944Y-14744460D01*
X13904944Y-14744460D02*
X13895420Y-14696841D01*
X13895420Y-14696841D02*
X13895420Y-14658746D01*
X13895420Y-14658746D02*
X13904944Y-14611127D01*
X13904944Y-14611127D02*
X13914468Y-14582555D01*
X13914468Y-14582555D02*
X13923991Y-14563508D01*
X13923991Y-14563508D02*
X13943039Y-14534936D01*
X13943039Y-14534936D02*
X13952563Y-14525412D01*
X14133515Y-14753984D02*
X14019229Y-14753984D01*
X14076372Y-14753984D02*
X14076372Y-14553984D01*
X14076372Y-14553984D02*
X14057325Y-14582555D01*
X14057325Y-14582555D02*
X14038277Y-14601603D01*
X14038277Y-14601603D02*
X14019229Y-14611127D01*
X14209706Y-14573031D02*
X14219229Y-14563508D01*
X14219229Y-14563508D02*
X14238277Y-14553984D01*
X14238277Y-14553984D02*
X14285896Y-14553984D01*
X14285896Y-14553984D02*
X14304944Y-14563508D01*
X14304944Y-14563508D02*
X14314468Y-14573031D01*
X14314468Y-14573031D02*
X14323991Y-14592079D01*
X14323991Y-14592079D02*
X14323991Y-14611127D01*
X14323991Y-14611127D02*
X14314468Y-14639698D01*
X14314468Y-14639698D02*
X14200182Y-14753984D01*
X14200182Y-14753984D02*
X14323991Y-14753984D01*
X14390658Y-14553984D02*
X14514468Y-14553984D01*
X14514468Y-14553984D02*
X14447801Y-14630174D01*
X14447801Y-14630174D02*
X14476372Y-14630174D01*
X14476372Y-14630174D02*
X14495420Y-14639698D01*
X14495420Y-14639698D02*
X14504944Y-14649222D01*
X14504944Y-14649222D02*
X14514468Y-14668269D01*
X14514468Y-14668269D02*
X14514468Y-14715888D01*
X14514468Y-14715888D02*
X14504944Y-14734936D01*
X14504944Y-14734936D02*
X14495420Y-14744460D01*
X14495420Y-14744460D02*
X14476372Y-14753984D01*
X14476372Y-14753984D02*
X14419229Y-14753984D01*
X14419229Y-14753984D02*
X14400182Y-14744460D01*
X14400182Y-14744460D02*
X14390658Y-14734936D01*
X14752563Y-14753984D02*
X14752563Y-14553984D01*
X14838277Y-14753984D02*
X14838277Y-14649222D01*
X14838277Y-14649222D02*
X14828753Y-14630174D01*
X14828753Y-14630174D02*
X14809706Y-14620650D01*
X14809706Y-14620650D02*
X14781134Y-14620650D01*
X14781134Y-14620650D02*
X14762087Y-14630174D01*
X14762087Y-14630174D02*
X14752563Y-14639698D01*
X14962087Y-14753984D02*
X14943039Y-14744460D01*
X14943039Y-14744460D02*
X14933515Y-14734936D01*
X14933515Y-14734936D02*
X14923991Y-14715888D01*
X14923991Y-14715888D02*
X14923991Y-14658746D01*
X14923991Y-14658746D02*
X14933515Y-14639698D01*
X14933515Y-14639698D02*
X14943039Y-14630174D01*
X14943039Y-14630174D02*
X14962087Y-14620650D01*
X14962087Y-14620650D02*
X14990658Y-14620650D01*
X14990658Y-14620650D02*
X15009706Y-14630174D01*
X15009706Y-14630174D02*
X15019230Y-14639698D01*
X15019230Y-14639698D02*
X15028753Y-14658746D01*
X15028753Y-14658746D02*
X15028753Y-14715888D01*
X15028753Y-14715888D02*
X15019230Y-14734936D01*
X15019230Y-14734936D02*
X15009706Y-14744460D01*
X15009706Y-14744460D02*
X14990658Y-14753984D01*
X14990658Y-14753984D02*
X14962087Y-14753984D01*
X15143039Y-14753984D02*
X15123991Y-14744460D01*
X15123991Y-14744460D02*
X15114468Y-14725412D01*
X15114468Y-14725412D02*
X15114468Y-14553984D01*
X15295420Y-14744460D02*
X15276372Y-14753984D01*
X15276372Y-14753984D02*
X15238277Y-14753984D01*
X15238277Y-14753984D02*
X15219230Y-14744460D01*
X15219230Y-14744460D02*
X15209706Y-14725412D01*
X15209706Y-14725412D02*
X15209706Y-14649222D01*
X15209706Y-14649222D02*
X15219230Y-14630174D01*
X15219230Y-14630174D02*
X15238277Y-14620650D01*
X15238277Y-14620650D02*
X15276372Y-14620650D01*
X15276372Y-14620650D02*
X15295420Y-14630174D01*
X15295420Y-14630174D02*
X15304944Y-14649222D01*
X15304944Y-14649222D02*
X15304944Y-14668269D01*
X15304944Y-14668269D02*
X15209706Y-14687317D01*
X15381134Y-14744460D02*
X15400182Y-14753984D01*
X15400182Y-14753984D02*
X15438277Y-14753984D01*
X15438277Y-14753984D02*
X15457325Y-14744460D01*
X15457325Y-14744460D02*
X15466849Y-14725412D01*
X15466849Y-14725412D02*
X15466849Y-14715888D01*
X15466849Y-14715888D02*
X15457325Y-14696841D01*
X15457325Y-14696841D02*
X15438277Y-14687317D01*
X15438277Y-14687317D02*
X15409706Y-14687317D01*
X15409706Y-14687317D02*
X15390658Y-14677793D01*
X15390658Y-14677793D02*
X15381134Y-14658746D01*
X15381134Y-14658746D02*
X15381134Y-14649222D01*
X15381134Y-14649222D02*
X15390658Y-14630174D01*
X15390658Y-14630174D02*
X15409706Y-14620650D01*
X15409706Y-14620650D02*
X15438277Y-14620650D01*
X15438277Y-14620650D02*
X15457325Y-14630174D01*
X15533515Y-14830174D02*
X15543039Y-14820650D01*
X15543039Y-14820650D02*
X15562087Y-14792079D01*
X15562087Y-14792079D02*
X15571611Y-14773031D01*
X15571611Y-14773031D02*
X15581134Y-14744460D01*
X15581134Y-14744460D02*
X15590658Y-14696841D01*
X15590658Y-14696841D02*
X15590658Y-14658746D01*
X15590658Y-14658746D02*
X15581134Y-14611127D01*
X15581134Y-14611127D02*
X15571611Y-14582555D01*
X15571611Y-14582555D02*
X15562087Y-14563508D01*
X15562087Y-14563508D02*
X15543039Y-14534936D01*
X15543039Y-14534936D02*
X15533515Y-14525412D01*
D12*
X10377500Y-14926500D02*
G75*
G02*
X10317500Y-14926500I-30000J0D01*
G01*
X10317500Y-14926500D02*
G75*
G02*
X10377500Y-14926500I30000J0D01*
G01*
D11*
X10676372Y-14817984D02*
X10695420Y-14817984D01*
X10695420Y-14817984D02*
X10714467Y-14827508D01*
X10714467Y-14827508D02*
X10723991Y-14837031D01*
X10723991Y-14837031D02*
X10733515Y-14856079D01*
X10733515Y-14856079D02*
X10743039Y-14894174D01*
X10743039Y-14894174D02*
X10743039Y-14941793D01*
X10743039Y-14941793D02*
X10733515Y-14979888D01*
X10733515Y-14979888D02*
X10723991Y-14998936D01*
X10723991Y-14998936D02*
X10714467Y-15008460D01*
X10714467Y-15008460D02*
X10695420Y-15017984D01*
X10695420Y-15017984D02*
X10676372Y-15017984D01*
X10676372Y-15017984D02*
X10657324Y-15008460D01*
X10657324Y-15008460D02*
X10647801Y-14998936D01*
X10647801Y-14998936D02*
X10638277Y-14979888D01*
X10638277Y-14979888D02*
X10628753Y-14941793D01*
X10628753Y-14941793D02*
X10628753Y-14894174D01*
X10628753Y-14894174D02*
X10638277Y-14856079D01*
X10638277Y-14856079D02*
X10647801Y-14837031D01*
X10647801Y-14837031D02*
X10657324Y-14827508D01*
X10657324Y-14827508D02*
X10676372Y-14817984D01*
X10828753Y-14998936D02*
X10838277Y-15008460D01*
X10838277Y-15008460D02*
X10828753Y-15017984D01*
X10828753Y-15017984D02*
X10819229Y-15008460D01*
X10819229Y-15008460D02*
X10828753Y-14998936D01*
X10828753Y-14998936D02*
X10828753Y-15017984D01*
X11009705Y-14817984D02*
X10971610Y-14817984D01*
X10971610Y-14817984D02*
X10952563Y-14827508D01*
X10952563Y-14827508D02*
X10943039Y-14837031D01*
X10943039Y-14837031D02*
X10923991Y-14865603D01*
X10923991Y-14865603D02*
X10914467Y-14903698D01*
X10914467Y-14903698D02*
X10914467Y-14979888D01*
X10914467Y-14979888D02*
X10923991Y-14998936D01*
X10923991Y-14998936D02*
X10933515Y-15008460D01*
X10933515Y-15008460D02*
X10952563Y-15017984D01*
X10952563Y-15017984D02*
X10990658Y-15017984D01*
X10990658Y-15017984D02*
X11009705Y-15008460D01*
X11009705Y-15008460D02*
X11019229Y-14998936D01*
X11019229Y-14998936D02*
X11028753Y-14979888D01*
X11028753Y-14979888D02*
X11028753Y-14932269D01*
X11028753Y-14932269D02*
X11019229Y-14913222D01*
X11019229Y-14913222D02*
X11009705Y-14903698D01*
X11009705Y-14903698D02*
X10990658Y-14894174D01*
X10990658Y-14894174D02*
X10952563Y-14894174D01*
X10952563Y-14894174D02*
X10933515Y-14903698D01*
X10933515Y-14903698D02*
X10923991Y-14913222D01*
X10923991Y-14913222D02*
X10914467Y-14932269D01*
X11152563Y-14817984D02*
X11171610Y-14817984D01*
X11171610Y-14817984D02*
X11190658Y-14827508D01*
X11190658Y-14827508D02*
X11200182Y-14837031D01*
X11200182Y-14837031D02*
X11209705Y-14856079D01*
X11209705Y-14856079D02*
X11219229Y-14894174D01*
X11219229Y-14894174D02*
X11219229Y-14941793D01*
X11219229Y-14941793D02*
X11209705Y-14979888D01*
X11209705Y-14979888D02*
X11200182Y-14998936D01*
X11200182Y-14998936D02*
X11190658Y-15008460D01*
X11190658Y-15008460D02*
X11171610Y-15017984D01*
X11171610Y-15017984D02*
X11152563Y-15017984D01*
X11152563Y-15017984D02*
X11133515Y-15008460D01*
X11133515Y-15008460D02*
X11123991Y-14998936D01*
X11123991Y-14998936D02*
X11114467Y-14979888D01*
X11114467Y-14979888D02*
X11104944Y-14941793D01*
X11104944Y-14941793D02*
X11104944Y-14894174D01*
X11104944Y-14894174D02*
X11114467Y-14856079D01*
X11114467Y-14856079D02*
X11123991Y-14837031D01*
X11123991Y-14837031D02*
X11133515Y-14827508D01*
X11133515Y-14827508D02*
X11152563Y-14817984D01*
X11343039Y-14817984D02*
X11362086Y-14817984D01*
X11362086Y-14817984D02*
X11381134Y-14827508D01*
X11381134Y-14827508D02*
X11390658Y-14837031D01*
X11390658Y-14837031D02*
X11400182Y-14856079D01*
X11400182Y-14856079D02*
X11409705Y-14894174D01*
X11409705Y-14894174D02*
X11409705Y-14941793D01*
X11409705Y-14941793D02*
X11400182Y-14979888D01*
X11400182Y-14979888D02*
X11390658Y-14998936D01*
X11390658Y-14998936D02*
X11381134Y-15008460D01*
X11381134Y-15008460D02*
X11362086Y-15017984D01*
X11362086Y-15017984D02*
X11343039Y-15017984D01*
X11343039Y-15017984D02*
X11323991Y-15008460D01*
X11323991Y-15008460D02*
X11314467Y-14998936D01*
X11314467Y-14998936D02*
X11304943Y-14979888D01*
X11304943Y-14979888D02*
X11295420Y-14941793D01*
X11295420Y-14941793D02*
X11295420Y-14894174D01*
X11295420Y-14894174D02*
X11304943Y-14856079D01*
X11304943Y-14856079D02*
X11314467Y-14837031D01*
X11314467Y-14837031D02*
X11323991Y-14827508D01*
X11323991Y-14827508D02*
X11343039Y-14817984D01*
X11495420Y-15017984D02*
X11495420Y-14884650D01*
X11495420Y-14903698D02*
X11504943Y-14894174D01*
X11504943Y-14894174D02*
X11523991Y-14884650D01*
X11523991Y-14884650D02*
X11552563Y-14884650D01*
X11552563Y-14884650D02*
X11571610Y-14894174D01*
X11571610Y-14894174D02*
X11581134Y-14913222D01*
X11581134Y-14913222D02*
X11581134Y-15017984D01*
X11581134Y-14913222D02*
X11590658Y-14894174D01*
X11590658Y-14894174D02*
X11609705Y-14884650D01*
X11609705Y-14884650D02*
X11638277Y-14884650D01*
X11638277Y-14884650D02*
X11657324Y-14894174D01*
X11657324Y-14894174D02*
X11666848Y-14913222D01*
X11666848Y-14913222D02*
X11666848Y-15017984D01*
X11762086Y-15017984D02*
X11762086Y-14884650D01*
X11762086Y-14903698D02*
X11771610Y-14894174D01*
X11771610Y-14894174D02*
X11790658Y-14884650D01*
X11790658Y-14884650D02*
X11819229Y-14884650D01*
X11819229Y-14884650D02*
X11838277Y-14894174D01*
X11838277Y-14894174D02*
X11847801Y-14913222D01*
X11847801Y-14913222D02*
X11847801Y-15017984D01*
X11847801Y-14913222D02*
X11857324Y-14894174D01*
X11857324Y-14894174D02*
X11876372Y-14884650D01*
X11876372Y-14884650D02*
X11904943Y-14884650D01*
X11904943Y-14884650D02*
X11923991Y-14894174D01*
X11923991Y-14894174D02*
X11933515Y-14913222D01*
X11933515Y-14913222D02*
X11933515Y-15017984D01*
X12323991Y-14808460D02*
X12152563Y-15065603D01*
X12581134Y-14817984D02*
X12600182Y-14817984D01*
X12600182Y-14817984D02*
X12619229Y-14827508D01*
X12619229Y-14827508D02*
X12628753Y-14837031D01*
X12628753Y-14837031D02*
X12638277Y-14856079D01*
X12638277Y-14856079D02*
X12647801Y-14894174D01*
X12647801Y-14894174D02*
X12647801Y-14941793D01*
X12647801Y-14941793D02*
X12638277Y-14979888D01*
X12638277Y-14979888D02*
X12628753Y-14998936D01*
X12628753Y-14998936D02*
X12619229Y-15008460D01*
X12619229Y-15008460D02*
X12600182Y-15017984D01*
X12600182Y-15017984D02*
X12581134Y-15017984D01*
X12581134Y-15017984D02*
X12562086Y-15008460D01*
X12562086Y-15008460D02*
X12552563Y-14998936D01*
X12552563Y-14998936D02*
X12543039Y-14979888D01*
X12543039Y-14979888D02*
X12533515Y-14941793D01*
X12533515Y-14941793D02*
X12533515Y-14894174D01*
X12533515Y-14894174D02*
X12543039Y-14856079D01*
X12543039Y-14856079D02*
X12552563Y-14837031D01*
X12552563Y-14837031D02*
X12562086Y-14827508D01*
X12562086Y-14827508D02*
X12581134Y-14817984D01*
X12733515Y-14998936D02*
X12743039Y-15008460D01*
X12743039Y-15008460D02*
X12733515Y-15017984D01*
X12733515Y-15017984D02*
X12723991Y-15008460D01*
X12723991Y-15008460D02*
X12733515Y-14998936D01*
X12733515Y-14998936D02*
X12733515Y-15017984D01*
X12866848Y-14817984D02*
X12885896Y-14817984D01*
X12885896Y-14817984D02*
X12904944Y-14827508D01*
X12904944Y-14827508D02*
X12914467Y-14837031D01*
X12914467Y-14837031D02*
X12923991Y-14856079D01*
X12923991Y-14856079D02*
X12933515Y-14894174D01*
X12933515Y-14894174D02*
X12933515Y-14941793D01*
X12933515Y-14941793D02*
X12923991Y-14979888D01*
X12923991Y-14979888D02*
X12914467Y-14998936D01*
X12914467Y-14998936D02*
X12904944Y-15008460D01*
X12904944Y-15008460D02*
X12885896Y-15017984D01*
X12885896Y-15017984D02*
X12866848Y-15017984D01*
X12866848Y-15017984D02*
X12847801Y-15008460D01*
X12847801Y-15008460D02*
X12838277Y-14998936D01*
X12838277Y-14998936D02*
X12828753Y-14979888D01*
X12828753Y-14979888D02*
X12819229Y-14941793D01*
X12819229Y-14941793D02*
X12819229Y-14894174D01*
X12819229Y-14894174D02*
X12828753Y-14856079D01*
X12828753Y-14856079D02*
X12838277Y-14837031D01*
X12838277Y-14837031D02*
X12847801Y-14827508D01*
X12847801Y-14827508D02*
X12866848Y-14817984D01*
X13009706Y-14837031D02*
X13019229Y-14827508D01*
X13019229Y-14827508D02*
X13038277Y-14817984D01*
X13038277Y-14817984D02*
X13085896Y-14817984D01*
X13085896Y-14817984D02*
X13104944Y-14827508D01*
X13104944Y-14827508D02*
X13114467Y-14837031D01*
X13114467Y-14837031D02*
X13123991Y-14856079D01*
X13123991Y-14856079D02*
X13123991Y-14875127D01*
X13123991Y-14875127D02*
X13114467Y-14903698D01*
X13114467Y-14903698D02*
X13000182Y-15017984D01*
X13000182Y-15017984D02*
X13123991Y-15017984D01*
X13190658Y-14817984D02*
X13314467Y-14817984D01*
X13314467Y-14817984D02*
X13247801Y-14894174D01*
X13247801Y-14894174D02*
X13276372Y-14894174D01*
X13276372Y-14894174D02*
X13295420Y-14903698D01*
X13295420Y-14903698D02*
X13304944Y-14913222D01*
X13304944Y-14913222D02*
X13314467Y-14932269D01*
X13314467Y-14932269D02*
X13314467Y-14979888D01*
X13314467Y-14979888D02*
X13304944Y-14998936D01*
X13304944Y-14998936D02*
X13295420Y-15008460D01*
X13295420Y-15008460D02*
X13276372Y-15017984D01*
X13276372Y-15017984D02*
X13219229Y-15017984D01*
X13219229Y-15017984D02*
X13200182Y-15008460D01*
X13200182Y-15008460D02*
X13190658Y-14998936D01*
X13485896Y-14817984D02*
X13447801Y-14817984D01*
X13447801Y-14817984D02*
X13428753Y-14827508D01*
X13428753Y-14827508D02*
X13419229Y-14837031D01*
X13419229Y-14837031D02*
X13400182Y-14865603D01*
X13400182Y-14865603D02*
X13390658Y-14903698D01*
X13390658Y-14903698D02*
X13390658Y-14979888D01*
X13390658Y-14979888D02*
X13400182Y-14998936D01*
X13400182Y-14998936D02*
X13409706Y-15008460D01*
X13409706Y-15008460D02*
X13428753Y-15017984D01*
X13428753Y-15017984D02*
X13466848Y-15017984D01*
X13466848Y-15017984D02*
X13485896Y-15008460D01*
X13485896Y-15008460D02*
X13495420Y-14998936D01*
X13495420Y-14998936D02*
X13504944Y-14979888D01*
X13504944Y-14979888D02*
X13504944Y-14932269D01*
X13504944Y-14932269D02*
X13495420Y-14913222D01*
X13495420Y-14913222D02*
X13485896Y-14903698D01*
X13485896Y-14903698D02*
X13466848Y-14894174D01*
X13466848Y-14894174D02*
X13428753Y-14894174D01*
X13428753Y-14894174D02*
X13409706Y-14903698D01*
X13409706Y-14903698D02*
X13400182Y-14913222D01*
X13400182Y-14913222D02*
X13390658Y-14932269D01*
X13581134Y-14817984D02*
X13581134Y-14856079D01*
X13657325Y-14817984D02*
X13657325Y-14856079D01*
X13952563Y-15094174D02*
X13943039Y-15084650D01*
X13943039Y-15084650D02*
X13923991Y-15056079D01*
X13923991Y-15056079D02*
X13914468Y-15037031D01*
X13914468Y-15037031D02*
X13904944Y-15008460D01*
X13904944Y-15008460D02*
X13895420Y-14960841D01*
X13895420Y-14960841D02*
X13895420Y-14922746D01*
X13895420Y-14922746D02*
X13904944Y-14875127D01*
X13904944Y-14875127D02*
X13914468Y-14846555D01*
X13914468Y-14846555D02*
X13923991Y-14827508D01*
X13923991Y-14827508D02*
X13943039Y-14798936D01*
X13943039Y-14798936D02*
X13952563Y-14789412D01*
X14019229Y-14837031D02*
X14028753Y-14827508D01*
X14028753Y-14827508D02*
X14047801Y-14817984D01*
X14047801Y-14817984D02*
X14095420Y-14817984D01*
X14095420Y-14817984D02*
X14114468Y-14827508D01*
X14114468Y-14827508D02*
X14123991Y-14837031D01*
X14123991Y-14837031D02*
X14133515Y-14856079D01*
X14133515Y-14856079D02*
X14133515Y-14875127D01*
X14133515Y-14875127D02*
X14123991Y-14903698D01*
X14123991Y-14903698D02*
X14009706Y-15017984D01*
X14009706Y-15017984D02*
X14133515Y-15017984D01*
X14371610Y-15017984D02*
X14371610Y-14817984D01*
X14457325Y-15017984D02*
X14457325Y-14913222D01*
X14457325Y-14913222D02*
X14447801Y-14894174D01*
X14447801Y-14894174D02*
X14428753Y-14884650D01*
X14428753Y-14884650D02*
X14400182Y-14884650D01*
X14400182Y-14884650D02*
X14381134Y-14894174D01*
X14381134Y-14894174D02*
X14371610Y-14903698D01*
X14581134Y-15017984D02*
X14562087Y-15008460D01*
X14562087Y-15008460D02*
X14552563Y-14998936D01*
X14552563Y-14998936D02*
X14543039Y-14979888D01*
X14543039Y-14979888D02*
X14543039Y-14922746D01*
X14543039Y-14922746D02*
X14552563Y-14903698D01*
X14552563Y-14903698D02*
X14562087Y-14894174D01*
X14562087Y-14894174D02*
X14581134Y-14884650D01*
X14581134Y-14884650D02*
X14609706Y-14884650D01*
X14609706Y-14884650D02*
X14628753Y-14894174D01*
X14628753Y-14894174D02*
X14638277Y-14903698D01*
X14638277Y-14903698D02*
X14647801Y-14922746D01*
X14647801Y-14922746D02*
X14647801Y-14979888D01*
X14647801Y-14979888D02*
X14638277Y-14998936D01*
X14638277Y-14998936D02*
X14628753Y-15008460D01*
X14628753Y-15008460D02*
X14609706Y-15017984D01*
X14609706Y-15017984D02*
X14581134Y-15017984D01*
X14762087Y-15017984D02*
X14743039Y-15008460D01*
X14743039Y-15008460D02*
X14733515Y-14989412D01*
X14733515Y-14989412D02*
X14733515Y-14817984D01*
X14914468Y-15008460D02*
X14895420Y-15017984D01*
X14895420Y-15017984D02*
X14857325Y-15017984D01*
X14857325Y-15017984D02*
X14838277Y-15008460D01*
X14838277Y-15008460D02*
X14828753Y-14989412D01*
X14828753Y-14989412D02*
X14828753Y-14913222D01*
X14828753Y-14913222D02*
X14838277Y-14894174D01*
X14838277Y-14894174D02*
X14857325Y-14884650D01*
X14857325Y-14884650D02*
X14895420Y-14884650D01*
X14895420Y-14884650D02*
X14914468Y-14894174D01*
X14914468Y-14894174D02*
X14923991Y-14913222D01*
X14923991Y-14913222D02*
X14923991Y-14932269D01*
X14923991Y-14932269D02*
X14828753Y-14951317D01*
X15000182Y-15008460D02*
X15019230Y-15017984D01*
X15019230Y-15017984D02*
X15057325Y-15017984D01*
X15057325Y-15017984D02*
X15076372Y-15008460D01*
X15076372Y-15008460D02*
X15085896Y-14989412D01*
X15085896Y-14989412D02*
X15085896Y-14979888D01*
X15085896Y-14979888D02*
X15076372Y-14960841D01*
X15076372Y-14960841D02*
X15057325Y-14951317D01*
X15057325Y-14951317D02*
X15028753Y-14951317D01*
X15028753Y-14951317D02*
X15009706Y-14941793D01*
X15009706Y-14941793D02*
X15000182Y-14922746D01*
X15000182Y-14922746D02*
X15000182Y-14913222D01*
X15000182Y-14913222D02*
X15009706Y-14894174D01*
X15009706Y-14894174D02*
X15028753Y-14884650D01*
X15028753Y-14884650D02*
X15057325Y-14884650D01*
X15057325Y-14884650D02*
X15076372Y-14894174D01*
X15152563Y-15094174D02*
X15162087Y-15084650D01*
X15162087Y-15084650D02*
X15181134Y-15056079D01*
X15181134Y-15056079D02*
X15190658Y-15037031D01*
X15190658Y-15037031D02*
X15200182Y-15008460D01*
X15200182Y-15008460D02*
X15209706Y-14960841D01*
X15209706Y-14960841D02*
X15209706Y-14922746D01*
X15209706Y-14922746D02*
X15200182Y-14875127D01*
X15200182Y-14875127D02*
X15190658Y-14846555D01*
X15190658Y-14846555D02*
X15181134Y-14827508D01*
X15181134Y-14827508D02*
X15162087Y-14798936D01*
X15162087Y-14798936D02*
X15152563Y-14789412D01*
D12*
X10342500Y-15155500D02*
X10342500Y-15225500D01*
X10307500Y-15190500D02*
X10377500Y-15190500D01*
D11*
X10676372Y-15081984D02*
X10695420Y-15081984D01*
X10695420Y-15081984D02*
X10714467Y-15091508D01*
X10714467Y-15091508D02*
X10723991Y-15101031D01*
X10723991Y-15101031D02*
X10733515Y-15120079D01*
X10733515Y-15120079D02*
X10743039Y-15158174D01*
X10743039Y-15158174D02*
X10743039Y-15205793D01*
X10743039Y-15205793D02*
X10733515Y-15243888D01*
X10733515Y-15243888D02*
X10723991Y-15262936D01*
X10723991Y-15262936D02*
X10714467Y-15272460D01*
X10714467Y-15272460D02*
X10695420Y-15281984D01*
X10695420Y-15281984D02*
X10676372Y-15281984D01*
X10676372Y-15281984D02*
X10657324Y-15272460D01*
X10657324Y-15272460D02*
X10647801Y-15262936D01*
X10647801Y-15262936D02*
X10638277Y-15243888D01*
X10638277Y-15243888D02*
X10628753Y-15205793D01*
X10628753Y-15205793D02*
X10628753Y-15158174D01*
X10628753Y-15158174D02*
X10638277Y-15120079D01*
X10638277Y-15120079D02*
X10647801Y-15101031D01*
X10647801Y-15101031D02*
X10657324Y-15091508D01*
X10657324Y-15091508D02*
X10676372Y-15081984D01*
X10828753Y-15262936D02*
X10838277Y-15272460D01*
X10838277Y-15272460D02*
X10828753Y-15281984D01*
X10828753Y-15281984D02*
X10819229Y-15272460D01*
X10819229Y-15272460D02*
X10828753Y-15262936D01*
X10828753Y-15262936D02*
X10828753Y-15281984D01*
X10904944Y-15081984D02*
X11038277Y-15081984D01*
X11038277Y-15081984D02*
X10952563Y-15281984D01*
X11152563Y-15081984D02*
X11171610Y-15081984D01*
X11171610Y-15081984D02*
X11190658Y-15091508D01*
X11190658Y-15091508D02*
X11200182Y-15101031D01*
X11200182Y-15101031D02*
X11209705Y-15120079D01*
X11209705Y-15120079D02*
X11219229Y-15158174D01*
X11219229Y-15158174D02*
X11219229Y-15205793D01*
X11219229Y-15205793D02*
X11209705Y-15243888D01*
X11209705Y-15243888D02*
X11200182Y-15262936D01*
X11200182Y-15262936D02*
X11190658Y-15272460D01*
X11190658Y-15272460D02*
X11171610Y-15281984D01*
X11171610Y-15281984D02*
X11152563Y-15281984D01*
X11152563Y-15281984D02*
X11133515Y-15272460D01*
X11133515Y-15272460D02*
X11123991Y-15262936D01*
X11123991Y-15262936D02*
X11114467Y-15243888D01*
X11114467Y-15243888D02*
X11104944Y-15205793D01*
X11104944Y-15205793D02*
X11104944Y-15158174D01*
X11104944Y-15158174D02*
X11114467Y-15120079D01*
X11114467Y-15120079D02*
X11123991Y-15101031D01*
X11123991Y-15101031D02*
X11133515Y-15091508D01*
X11133515Y-15091508D02*
X11152563Y-15081984D01*
X11343039Y-15081984D02*
X11362086Y-15081984D01*
X11362086Y-15081984D02*
X11381134Y-15091508D01*
X11381134Y-15091508D02*
X11390658Y-15101031D01*
X11390658Y-15101031D02*
X11400182Y-15120079D01*
X11400182Y-15120079D02*
X11409705Y-15158174D01*
X11409705Y-15158174D02*
X11409705Y-15205793D01*
X11409705Y-15205793D02*
X11400182Y-15243888D01*
X11400182Y-15243888D02*
X11390658Y-15262936D01*
X11390658Y-15262936D02*
X11381134Y-15272460D01*
X11381134Y-15272460D02*
X11362086Y-15281984D01*
X11362086Y-15281984D02*
X11343039Y-15281984D01*
X11343039Y-15281984D02*
X11323991Y-15272460D01*
X11323991Y-15272460D02*
X11314467Y-15262936D01*
X11314467Y-15262936D02*
X11304943Y-15243888D01*
X11304943Y-15243888D02*
X11295420Y-15205793D01*
X11295420Y-15205793D02*
X11295420Y-15158174D01*
X11295420Y-15158174D02*
X11304943Y-15120079D01*
X11304943Y-15120079D02*
X11314467Y-15101031D01*
X11314467Y-15101031D02*
X11323991Y-15091508D01*
X11323991Y-15091508D02*
X11343039Y-15081984D01*
X11495420Y-15281984D02*
X11495420Y-15148650D01*
X11495420Y-15167698D02*
X11504943Y-15158174D01*
X11504943Y-15158174D02*
X11523991Y-15148650D01*
X11523991Y-15148650D02*
X11552563Y-15148650D01*
X11552563Y-15148650D02*
X11571610Y-15158174D01*
X11571610Y-15158174D02*
X11581134Y-15177222D01*
X11581134Y-15177222D02*
X11581134Y-15281984D01*
X11581134Y-15177222D02*
X11590658Y-15158174D01*
X11590658Y-15158174D02*
X11609705Y-15148650D01*
X11609705Y-15148650D02*
X11638277Y-15148650D01*
X11638277Y-15148650D02*
X11657324Y-15158174D01*
X11657324Y-15158174D02*
X11666848Y-15177222D01*
X11666848Y-15177222D02*
X11666848Y-15281984D01*
X11762086Y-15281984D02*
X11762086Y-15148650D01*
X11762086Y-15167698D02*
X11771610Y-15158174D01*
X11771610Y-15158174D02*
X11790658Y-15148650D01*
X11790658Y-15148650D02*
X11819229Y-15148650D01*
X11819229Y-15148650D02*
X11838277Y-15158174D01*
X11838277Y-15158174D02*
X11847801Y-15177222D01*
X11847801Y-15177222D02*
X11847801Y-15281984D01*
X11847801Y-15177222D02*
X11857324Y-15158174D01*
X11857324Y-15158174D02*
X11876372Y-15148650D01*
X11876372Y-15148650D02*
X11904943Y-15148650D01*
X11904943Y-15148650D02*
X11923991Y-15158174D01*
X11923991Y-15158174D02*
X11933515Y-15177222D01*
X11933515Y-15177222D02*
X11933515Y-15281984D01*
X12323991Y-15072460D02*
X12152563Y-15329603D01*
X12581134Y-15081984D02*
X12600182Y-15081984D01*
X12600182Y-15081984D02*
X12619229Y-15091508D01*
X12619229Y-15091508D02*
X12628753Y-15101031D01*
X12628753Y-15101031D02*
X12638277Y-15120079D01*
X12638277Y-15120079D02*
X12647801Y-15158174D01*
X12647801Y-15158174D02*
X12647801Y-15205793D01*
X12647801Y-15205793D02*
X12638277Y-15243888D01*
X12638277Y-15243888D02*
X12628753Y-15262936D01*
X12628753Y-15262936D02*
X12619229Y-15272460D01*
X12619229Y-15272460D02*
X12600182Y-15281984D01*
X12600182Y-15281984D02*
X12581134Y-15281984D01*
X12581134Y-15281984D02*
X12562086Y-15272460D01*
X12562086Y-15272460D02*
X12552563Y-15262936D01*
X12552563Y-15262936D02*
X12543039Y-15243888D01*
X12543039Y-15243888D02*
X12533515Y-15205793D01*
X12533515Y-15205793D02*
X12533515Y-15158174D01*
X12533515Y-15158174D02*
X12543039Y-15120079D01*
X12543039Y-15120079D02*
X12552563Y-15101031D01*
X12552563Y-15101031D02*
X12562086Y-15091508D01*
X12562086Y-15091508D02*
X12581134Y-15081984D01*
X12733515Y-15262936D02*
X12743039Y-15272460D01*
X12743039Y-15272460D02*
X12733515Y-15281984D01*
X12733515Y-15281984D02*
X12723991Y-15272460D01*
X12723991Y-15272460D02*
X12733515Y-15262936D01*
X12733515Y-15262936D02*
X12733515Y-15281984D01*
X12866848Y-15081984D02*
X12885896Y-15081984D01*
X12885896Y-15081984D02*
X12904944Y-15091508D01*
X12904944Y-15091508D02*
X12914467Y-15101031D01*
X12914467Y-15101031D02*
X12923991Y-15120079D01*
X12923991Y-15120079D02*
X12933515Y-15158174D01*
X12933515Y-15158174D02*
X12933515Y-15205793D01*
X12933515Y-15205793D02*
X12923991Y-15243888D01*
X12923991Y-15243888D02*
X12914467Y-15262936D01*
X12914467Y-15262936D02*
X12904944Y-15272460D01*
X12904944Y-15272460D02*
X12885896Y-15281984D01*
X12885896Y-15281984D02*
X12866848Y-15281984D01*
X12866848Y-15281984D02*
X12847801Y-15272460D01*
X12847801Y-15272460D02*
X12838277Y-15262936D01*
X12838277Y-15262936D02*
X12828753Y-15243888D01*
X12828753Y-15243888D02*
X12819229Y-15205793D01*
X12819229Y-15205793D02*
X12819229Y-15158174D01*
X12819229Y-15158174D02*
X12828753Y-15120079D01*
X12828753Y-15120079D02*
X12838277Y-15101031D01*
X12838277Y-15101031D02*
X12847801Y-15091508D01*
X12847801Y-15091508D02*
X12866848Y-15081984D01*
X13009706Y-15101031D02*
X13019229Y-15091508D01*
X13019229Y-15091508D02*
X13038277Y-15081984D01*
X13038277Y-15081984D02*
X13085896Y-15081984D01*
X13085896Y-15081984D02*
X13104944Y-15091508D01*
X13104944Y-15091508D02*
X13114467Y-15101031D01*
X13114467Y-15101031D02*
X13123991Y-15120079D01*
X13123991Y-15120079D02*
X13123991Y-15139127D01*
X13123991Y-15139127D02*
X13114467Y-15167698D01*
X13114467Y-15167698D02*
X13000182Y-15281984D01*
X13000182Y-15281984D02*
X13123991Y-15281984D01*
X13190658Y-15081984D02*
X13323991Y-15081984D01*
X13323991Y-15081984D02*
X13238277Y-15281984D01*
X13485896Y-15081984D02*
X13447801Y-15081984D01*
X13447801Y-15081984D02*
X13428753Y-15091508D01*
X13428753Y-15091508D02*
X13419229Y-15101031D01*
X13419229Y-15101031D02*
X13400182Y-15129603D01*
X13400182Y-15129603D02*
X13390658Y-15167698D01*
X13390658Y-15167698D02*
X13390658Y-15243888D01*
X13390658Y-15243888D02*
X13400182Y-15262936D01*
X13400182Y-15262936D02*
X13409706Y-15272460D01*
X13409706Y-15272460D02*
X13428753Y-15281984D01*
X13428753Y-15281984D02*
X13466848Y-15281984D01*
X13466848Y-15281984D02*
X13485896Y-15272460D01*
X13485896Y-15272460D02*
X13495420Y-15262936D01*
X13495420Y-15262936D02*
X13504944Y-15243888D01*
X13504944Y-15243888D02*
X13504944Y-15196269D01*
X13504944Y-15196269D02*
X13495420Y-15177222D01*
X13495420Y-15177222D02*
X13485896Y-15167698D01*
X13485896Y-15167698D02*
X13466848Y-15158174D01*
X13466848Y-15158174D02*
X13428753Y-15158174D01*
X13428753Y-15158174D02*
X13409706Y-15167698D01*
X13409706Y-15167698D02*
X13400182Y-15177222D01*
X13400182Y-15177222D02*
X13390658Y-15196269D01*
X13581134Y-15081984D02*
X13581134Y-15120079D01*
X13657325Y-15081984D02*
X13657325Y-15120079D01*
X13952563Y-15358174D02*
X13943039Y-15348650D01*
X13943039Y-15348650D02*
X13923991Y-15320079D01*
X13923991Y-15320079D02*
X13914468Y-15301031D01*
X13914468Y-15301031D02*
X13904944Y-15272460D01*
X13904944Y-15272460D02*
X13895420Y-15224841D01*
X13895420Y-15224841D02*
X13895420Y-15186746D01*
X13895420Y-15186746D02*
X13904944Y-15139127D01*
X13904944Y-15139127D02*
X13914468Y-15110555D01*
X13914468Y-15110555D02*
X13923991Y-15091508D01*
X13923991Y-15091508D02*
X13943039Y-15062936D01*
X13943039Y-15062936D02*
X13952563Y-15053412D01*
X14057325Y-15167698D02*
X14038277Y-15158174D01*
X14038277Y-15158174D02*
X14028753Y-15148650D01*
X14028753Y-15148650D02*
X14019229Y-15129603D01*
X14019229Y-15129603D02*
X14019229Y-15120079D01*
X14019229Y-15120079D02*
X14028753Y-15101031D01*
X14028753Y-15101031D02*
X14038277Y-15091508D01*
X14038277Y-15091508D02*
X14057325Y-15081984D01*
X14057325Y-15081984D02*
X14095420Y-15081984D01*
X14095420Y-15081984D02*
X14114468Y-15091508D01*
X14114468Y-15091508D02*
X14123991Y-15101031D01*
X14123991Y-15101031D02*
X14133515Y-15120079D01*
X14133515Y-15120079D02*
X14133515Y-15129603D01*
X14133515Y-15129603D02*
X14123991Y-15148650D01*
X14123991Y-15148650D02*
X14114468Y-15158174D01*
X14114468Y-15158174D02*
X14095420Y-15167698D01*
X14095420Y-15167698D02*
X14057325Y-15167698D01*
X14057325Y-15167698D02*
X14038277Y-15177222D01*
X14038277Y-15177222D02*
X14028753Y-15186746D01*
X14028753Y-15186746D02*
X14019229Y-15205793D01*
X14019229Y-15205793D02*
X14019229Y-15243888D01*
X14019229Y-15243888D02*
X14028753Y-15262936D01*
X14028753Y-15262936D02*
X14038277Y-15272460D01*
X14038277Y-15272460D02*
X14057325Y-15281984D01*
X14057325Y-15281984D02*
X14095420Y-15281984D01*
X14095420Y-15281984D02*
X14114468Y-15272460D01*
X14114468Y-15272460D02*
X14123991Y-15262936D01*
X14123991Y-15262936D02*
X14133515Y-15243888D01*
X14133515Y-15243888D02*
X14133515Y-15205793D01*
X14133515Y-15205793D02*
X14123991Y-15186746D01*
X14123991Y-15186746D02*
X14114468Y-15177222D01*
X14114468Y-15177222D02*
X14095420Y-15167698D01*
X14371610Y-15281984D02*
X14371610Y-15081984D01*
X14457325Y-15281984D02*
X14457325Y-15177222D01*
X14457325Y-15177222D02*
X14447801Y-15158174D01*
X14447801Y-15158174D02*
X14428753Y-15148650D01*
X14428753Y-15148650D02*
X14400182Y-15148650D01*
X14400182Y-15148650D02*
X14381134Y-15158174D01*
X14381134Y-15158174D02*
X14371610Y-15167698D01*
X14581134Y-15281984D02*
X14562087Y-15272460D01*
X14562087Y-15272460D02*
X14552563Y-15262936D01*
X14552563Y-15262936D02*
X14543039Y-15243888D01*
X14543039Y-15243888D02*
X14543039Y-15186746D01*
X14543039Y-15186746D02*
X14552563Y-15167698D01*
X14552563Y-15167698D02*
X14562087Y-15158174D01*
X14562087Y-15158174D02*
X14581134Y-15148650D01*
X14581134Y-15148650D02*
X14609706Y-15148650D01*
X14609706Y-15148650D02*
X14628753Y-15158174D01*
X14628753Y-15158174D02*
X14638277Y-15167698D01*
X14638277Y-15167698D02*
X14647801Y-15186746D01*
X14647801Y-15186746D02*
X14647801Y-15243888D01*
X14647801Y-15243888D02*
X14638277Y-15262936D01*
X14638277Y-15262936D02*
X14628753Y-15272460D01*
X14628753Y-15272460D02*
X14609706Y-15281984D01*
X14609706Y-15281984D02*
X14581134Y-15281984D01*
X14762087Y-15281984D02*
X14743039Y-15272460D01*
X14743039Y-15272460D02*
X14733515Y-15253412D01*
X14733515Y-15253412D02*
X14733515Y-15081984D01*
X14914468Y-15272460D02*
X14895420Y-15281984D01*
X14895420Y-15281984D02*
X14857325Y-15281984D01*
X14857325Y-15281984D02*
X14838277Y-15272460D01*
X14838277Y-15272460D02*
X14828753Y-15253412D01*
X14828753Y-15253412D02*
X14828753Y-15177222D01*
X14828753Y-15177222D02*
X14838277Y-15158174D01*
X14838277Y-15158174D02*
X14857325Y-15148650D01*
X14857325Y-15148650D02*
X14895420Y-15148650D01*
X14895420Y-15148650D02*
X14914468Y-15158174D01*
X14914468Y-15158174D02*
X14923991Y-15177222D01*
X14923991Y-15177222D02*
X14923991Y-15196269D01*
X14923991Y-15196269D02*
X14828753Y-15215317D01*
X15000182Y-15272460D02*
X15019230Y-15281984D01*
X15019230Y-15281984D02*
X15057325Y-15281984D01*
X15057325Y-15281984D02*
X15076372Y-15272460D01*
X15076372Y-15272460D02*
X15085896Y-15253412D01*
X15085896Y-15253412D02*
X15085896Y-15243888D01*
X15085896Y-15243888D02*
X15076372Y-15224841D01*
X15076372Y-15224841D02*
X15057325Y-15215317D01*
X15057325Y-15215317D02*
X15028753Y-15215317D01*
X15028753Y-15215317D02*
X15009706Y-15205793D01*
X15009706Y-15205793D02*
X15000182Y-15186746D01*
X15000182Y-15186746D02*
X15000182Y-15177222D01*
X15000182Y-15177222D02*
X15009706Y-15158174D01*
X15009706Y-15158174D02*
X15028753Y-15148650D01*
X15028753Y-15148650D02*
X15057325Y-15148650D01*
X15057325Y-15148650D02*
X15076372Y-15158174D01*
X15152563Y-15358174D02*
X15162087Y-15348650D01*
X15162087Y-15348650D02*
X15181134Y-15320079D01*
X15181134Y-15320079D02*
X15190658Y-15301031D01*
X15190658Y-15301031D02*
X15200182Y-15272460D01*
X15200182Y-15272460D02*
X15209706Y-15224841D01*
X15209706Y-15224841D02*
X15209706Y-15186746D01*
X15209706Y-15186746D02*
X15200182Y-15139127D01*
X15200182Y-15139127D02*
X15190658Y-15110555D01*
X15190658Y-15110555D02*
X15181134Y-15091508D01*
X15181134Y-15091508D02*
X15162087Y-15062936D01*
X15162087Y-15062936D02*
X15152563Y-15053412D01*
D12*
X10366341Y-15481441D02*
X10366341Y-15427559D01*
X10312459Y-15427559D01*
X10312459Y-15481441D01*
X10366341Y-15481441D01*
D11*
X10676372Y-15345984D02*
X10695420Y-15345984D01*
X10695420Y-15345984D02*
X10714467Y-15355508D01*
X10714467Y-15355508D02*
X10723991Y-15365031D01*
X10723991Y-15365031D02*
X10733515Y-15384079D01*
X10733515Y-15384079D02*
X10743039Y-15422174D01*
X10743039Y-15422174D02*
X10743039Y-15469793D01*
X10743039Y-15469793D02*
X10733515Y-15507888D01*
X10733515Y-15507888D02*
X10723991Y-15526936D01*
X10723991Y-15526936D02*
X10714467Y-15536460D01*
X10714467Y-15536460D02*
X10695420Y-15545984D01*
X10695420Y-15545984D02*
X10676372Y-15545984D01*
X10676372Y-15545984D02*
X10657324Y-15536460D01*
X10657324Y-15536460D02*
X10647801Y-15526936D01*
X10647801Y-15526936D02*
X10638277Y-15507888D01*
X10638277Y-15507888D02*
X10628753Y-15469793D01*
X10628753Y-15469793D02*
X10628753Y-15422174D01*
X10628753Y-15422174D02*
X10638277Y-15384079D01*
X10638277Y-15384079D02*
X10647801Y-15365031D01*
X10647801Y-15365031D02*
X10657324Y-15355508D01*
X10657324Y-15355508D02*
X10676372Y-15345984D01*
X10828753Y-15526936D02*
X10838277Y-15536460D01*
X10838277Y-15536460D02*
X10828753Y-15545984D01*
X10828753Y-15545984D02*
X10819229Y-15536460D01*
X10819229Y-15536460D02*
X10828753Y-15526936D01*
X10828753Y-15526936D02*
X10828753Y-15545984D01*
X10904944Y-15345984D02*
X11038277Y-15345984D01*
X11038277Y-15345984D02*
X10952563Y-15545984D01*
X11200182Y-15345984D02*
X11162086Y-15345984D01*
X11162086Y-15345984D02*
X11143039Y-15355508D01*
X11143039Y-15355508D02*
X11133515Y-15365031D01*
X11133515Y-15365031D02*
X11114467Y-15393603D01*
X11114467Y-15393603D02*
X11104944Y-15431698D01*
X11104944Y-15431698D02*
X11104944Y-15507888D01*
X11104944Y-15507888D02*
X11114467Y-15526936D01*
X11114467Y-15526936D02*
X11123991Y-15536460D01*
X11123991Y-15536460D02*
X11143039Y-15545984D01*
X11143039Y-15545984D02*
X11181134Y-15545984D01*
X11181134Y-15545984D02*
X11200182Y-15536460D01*
X11200182Y-15536460D02*
X11209705Y-15526936D01*
X11209705Y-15526936D02*
X11219229Y-15507888D01*
X11219229Y-15507888D02*
X11219229Y-15460269D01*
X11219229Y-15460269D02*
X11209705Y-15441222D01*
X11209705Y-15441222D02*
X11200182Y-15431698D01*
X11200182Y-15431698D02*
X11181134Y-15422174D01*
X11181134Y-15422174D02*
X11143039Y-15422174D01*
X11143039Y-15422174D02*
X11123991Y-15431698D01*
X11123991Y-15431698D02*
X11114467Y-15441222D01*
X11114467Y-15441222D02*
X11104944Y-15460269D01*
X11295420Y-15365031D02*
X11304943Y-15355508D01*
X11304943Y-15355508D02*
X11323991Y-15345984D01*
X11323991Y-15345984D02*
X11371610Y-15345984D01*
X11371610Y-15345984D02*
X11390658Y-15355508D01*
X11390658Y-15355508D02*
X11400182Y-15365031D01*
X11400182Y-15365031D02*
X11409705Y-15384079D01*
X11409705Y-15384079D02*
X11409705Y-15403127D01*
X11409705Y-15403127D02*
X11400182Y-15431698D01*
X11400182Y-15431698D02*
X11285896Y-15545984D01*
X11285896Y-15545984D02*
X11409705Y-15545984D01*
X11495420Y-15545984D02*
X11495420Y-15412650D01*
X11495420Y-15431698D02*
X11504943Y-15422174D01*
X11504943Y-15422174D02*
X11523991Y-15412650D01*
X11523991Y-15412650D02*
X11552563Y-15412650D01*
X11552563Y-15412650D02*
X11571610Y-15422174D01*
X11571610Y-15422174D02*
X11581134Y-15441222D01*
X11581134Y-15441222D02*
X11581134Y-15545984D01*
X11581134Y-15441222D02*
X11590658Y-15422174D01*
X11590658Y-15422174D02*
X11609705Y-15412650D01*
X11609705Y-15412650D02*
X11638277Y-15412650D01*
X11638277Y-15412650D02*
X11657324Y-15422174D01*
X11657324Y-15422174D02*
X11666848Y-15441222D01*
X11666848Y-15441222D02*
X11666848Y-15545984D01*
X11762086Y-15545984D02*
X11762086Y-15412650D01*
X11762086Y-15431698D02*
X11771610Y-15422174D01*
X11771610Y-15422174D02*
X11790658Y-15412650D01*
X11790658Y-15412650D02*
X11819229Y-15412650D01*
X11819229Y-15412650D02*
X11838277Y-15422174D01*
X11838277Y-15422174D02*
X11847801Y-15441222D01*
X11847801Y-15441222D02*
X11847801Y-15545984D01*
X11847801Y-15441222D02*
X11857324Y-15422174D01*
X11857324Y-15422174D02*
X11876372Y-15412650D01*
X11876372Y-15412650D02*
X11904943Y-15412650D01*
X11904943Y-15412650D02*
X11923991Y-15422174D01*
X11923991Y-15422174D02*
X11933515Y-15441222D01*
X11933515Y-15441222D02*
X11933515Y-15545984D01*
X12323991Y-15336460D02*
X12152563Y-15593603D01*
X12581134Y-15345984D02*
X12600182Y-15345984D01*
X12600182Y-15345984D02*
X12619229Y-15355508D01*
X12619229Y-15355508D02*
X12628753Y-15365031D01*
X12628753Y-15365031D02*
X12638277Y-15384079D01*
X12638277Y-15384079D02*
X12647801Y-15422174D01*
X12647801Y-15422174D02*
X12647801Y-15469793D01*
X12647801Y-15469793D02*
X12638277Y-15507888D01*
X12638277Y-15507888D02*
X12628753Y-15526936D01*
X12628753Y-15526936D02*
X12619229Y-15536460D01*
X12619229Y-15536460D02*
X12600182Y-15545984D01*
X12600182Y-15545984D02*
X12581134Y-15545984D01*
X12581134Y-15545984D02*
X12562086Y-15536460D01*
X12562086Y-15536460D02*
X12552563Y-15526936D01*
X12552563Y-15526936D02*
X12543039Y-15507888D01*
X12543039Y-15507888D02*
X12533515Y-15469793D01*
X12533515Y-15469793D02*
X12533515Y-15422174D01*
X12533515Y-15422174D02*
X12543039Y-15384079D01*
X12543039Y-15384079D02*
X12552563Y-15365031D01*
X12552563Y-15365031D02*
X12562086Y-15355508D01*
X12562086Y-15355508D02*
X12581134Y-15345984D01*
X12733515Y-15526936D02*
X12743039Y-15536460D01*
X12743039Y-15536460D02*
X12733515Y-15545984D01*
X12733515Y-15545984D02*
X12723991Y-15536460D01*
X12723991Y-15536460D02*
X12733515Y-15526936D01*
X12733515Y-15526936D02*
X12733515Y-15545984D01*
X12866848Y-15345984D02*
X12885896Y-15345984D01*
X12885896Y-15345984D02*
X12904944Y-15355508D01*
X12904944Y-15355508D02*
X12914467Y-15365031D01*
X12914467Y-15365031D02*
X12923991Y-15384079D01*
X12923991Y-15384079D02*
X12933515Y-15422174D01*
X12933515Y-15422174D02*
X12933515Y-15469793D01*
X12933515Y-15469793D02*
X12923991Y-15507888D01*
X12923991Y-15507888D02*
X12914467Y-15526936D01*
X12914467Y-15526936D02*
X12904944Y-15536460D01*
X12904944Y-15536460D02*
X12885896Y-15545984D01*
X12885896Y-15545984D02*
X12866848Y-15545984D01*
X12866848Y-15545984D02*
X12847801Y-15536460D01*
X12847801Y-15536460D02*
X12838277Y-15526936D01*
X12838277Y-15526936D02*
X12828753Y-15507888D01*
X12828753Y-15507888D02*
X12819229Y-15469793D01*
X12819229Y-15469793D02*
X12819229Y-15422174D01*
X12819229Y-15422174D02*
X12828753Y-15384079D01*
X12828753Y-15384079D02*
X12838277Y-15365031D01*
X12838277Y-15365031D02*
X12847801Y-15355508D01*
X12847801Y-15355508D02*
X12866848Y-15345984D01*
X13000182Y-15345984D02*
X13123991Y-15345984D01*
X13123991Y-15345984D02*
X13057325Y-15422174D01*
X13057325Y-15422174D02*
X13085896Y-15422174D01*
X13085896Y-15422174D02*
X13104944Y-15431698D01*
X13104944Y-15431698D02*
X13114467Y-15441222D01*
X13114467Y-15441222D02*
X13123991Y-15460269D01*
X13123991Y-15460269D02*
X13123991Y-15507888D01*
X13123991Y-15507888D02*
X13114467Y-15526936D01*
X13114467Y-15526936D02*
X13104944Y-15536460D01*
X13104944Y-15536460D02*
X13085896Y-15545984D01*
X13085896Y-15545984D02*
X13028753Y-15545984D01*
X13028753Y-15545984D02*
X13009706Y-15536460D01*
X13009706Y-15536460D02*
X13000182Y-15526936D01*
X13247801Y-15345984D02*
X13266848Y-15345984D01*
X13266848Y-15345984D02*
X13285896Y-15355508D01*
X13285896Y-15355508D02*
X13295420Y-15365031D01*
X13295420Y-15365031D02*
X13304944Y-15384079D01*
X13304944Y-15384079D02*
X13314467Y-15422174D01*
X13314467Y-15422174D02*
X13314467Y-15469793D01*
X13314467Y-15469793D02*
X13304944Y-15507888D01*
X13304944Y-15507888D02*
X13295420Y-15526936D01*
X13295420Y-15526936D02*
X13285896Y-15536460D01*
X13285896Y-15536460D02*
X13266848Y-15545984D01*
X13266848Y-15545984D02*
X13247801Y-15545984D01*
X13247801Y-15545984D02*
X13228753Y-15536460D01*
X13228753Y-15536460D02*
X13219229Y-15526936D01*
X13219229Y-15526936D02*
X13209706Y-15507888D01*
X13209706Y-15507888D02*
X13200182Y-15469793D01*
X13200182Y-15469793D02*
X13200182Y-15422174D01*
X13200182Y-15422174D02*
X13209706Y-15384079D01*
X13209706Y-15384079D02*
X13219229Y-15365031D01*
X13219229Y-15365031D02*
X13228753Y-15355508D01*
X13228753Y-15355508D02*
X13247801Y-15345984D01*
X13438277Y-15345984D02*
X13457325Y-15345984D01*
X13457325Y-15345984D02*
X13476372Y-15355508D01*
X13476372Y-15355508D02*
X13485896Y-15365031D01*
X13485896Y-15365031D02*
X13495420Y-15384079D01*
X13495420Y-15384079D02*
X13504944Y-15422174D01*
X13504944Y-15422174D02*
X13504944Y-15469793D01*
X13504944Y-15469793D02*
X13495420Y-15507888D01*
X13495420Y-15507888D02*
X13485896Y-15526936D01*
X13485896Y-15526936D02*
X13476372Y-15536460D01*
X13476372Y-15536460D02*
X13457325Y-15545984D01*
X13457325Y-15545984D02*
X13438277Y-15545984D01*
X13438277Y-15545984D02*
X13419229Y-15536460D01*
X13419229Y-15536460D02*
X13409706Y-15526936D01*
X13409706Y-15526936D02*
X13400182Y-15507888D01*
X13400182Y-15507888D02*
X13390658Y-15469793D01*
X13390658Y-15469793D02*
X13390658Y-15422174D01*
X13390658Y-15422174D02*
X13400182Y-15384079D01*
X13400182Y-15384079D02*
X13409706Y-15365031D01*
X13409706Y-15365031D02*
X13419229Y-15355508D01*
X13419229Y-15355508D02*
X13438277Y-15345984D01*
X13581134Y-15345984D02*
X13581134Y-15384079D01*
X13657325Y-15345984D02*
X13657325Y-15384079D01*
X13952563Y-15622174D02*
X13943039Y-15612650D01*
X13943039Y-15612650D02*
X13923991Y-15584079D01*
X13923991Y-15584079D02*
X13914468Y-15565031D01*
X13914468Y-15565031D02*
X13904944Y-15536460D01*
X13904944Y-15536460D02*
X13895420Y-15488841D01*
X13895420Y-15488841D02*
X13895420Y-15450746D01*
X13895420Y-15450746D02*
X13904944Y-15403127D01*
X13904944Y-15403127D02*
X13914468Y-15374555D01*
X13914468Y-15374555D02*
X13923991Y-15355508D01*
X13923991Y-15355508D02*
X13943039Y-15326936D01*
X13943039Y-15326936D02*
X13952563Y-15317412D01*
X14019229Y-15365031D02*
X14028753Y-15355508D01*
X14028753Y-15355508D02*
X14047801Y-15345984D01*
X14047801Y-15345984D02*
X14095420Y-15345984D01*
X14095420Y-15345984D02*
X14114468Y-15355508D01*
X14114468Y-15355508D02*
X14123991Y-15365031D01*
X14123991Y-15365031D02*
X14133515Y-15384079D01*
X14133515Y-15384079D02*
X14133515Y-15403127D01*
X14133515Y-15403127D02*
X14123991Y-15431698D01*
X14123991Y-15431698D02*
X14009706Y-15545984D01*
X14009706Y-15545984D02*
X14133515Y-15545984D01*
X14304944Y-15345984D02*
X14266848Y-15345984D01*
X14266848Y-15345984D02*
X14247801Y-15355508D01*
X14247801Y-15355508D02*
X14238277Y-15365031D01*
X14238277Y-15365031D02*
X14219229Y-15393603D01*
X14219229Y-15393603D02*
X14209706Y-15431698D01*
X14209706Y-15431698D02*
X14209706Y-15507888D01*
X14209706Y-15507888D02*
X14219229Y-15526936D01*
X14219229Y-15526936D02*
X14228753Y-15536460D01*
X14228753Y-15536460D02*
X14247801Y-15545984D01*
X14247801Y-15545984D02*
X14285896Y-15545984D01*
X14285896Y-15545984D02*
X14304944Y-15536460D01*
X14304944Y-15536460D02*
X14314468Y-15526936D01*
X14314468Y-15526936D02*
X14323991Y-15507888D01*
X14323991Y-15507888D02*
X14323991Y-15460269D01*
X14323991Y-15460269D02*
X14314468Y-15441222D01*
X14314468Y-15441222D02*
X14304944Y-15431698D01*
X14304944Y-15431698D02*
X14285896Y-15422174D01*
X14285896Y-15422174D02*
X14247801Y-15422174D01*
X14247801Y-15422174D02*
X14228753Y-15431698D01*
X14228753Y-15431698D02*
X14219229Y-15441222D01*
X14219229Y-15441222D02*
X14209706Y-15460269D01*
X14562087Y-15545984D02*
X14562087Y-15345984D01*
X14647801Y-15545984D02*
X14647801Y-15441222D01*
X14647801Y-15441222D02*
X14638277Y-15422174D01*
X14638277Y-15422174D02*
X14619230Y-15412650D01*
X14619230Y-15412650D02*
X14590658Y-15412650D01*
X14590658Y-15412650D02*
X14571610Y-15422174D01*
X14571610Y-15422174D02*
X14562087Y-15431698D01*
X14771610Y-15545984D02*
X14752563Y-15536460D01*
X14752563Y-15536460D02*
X14743039Y-15526936D01*
X14743039Y-15526936D02*
X14733515Y-15507888D01*
X14733515Y-15507888D02*
X14733515Y-15450746D01*
X14733515Y-15450746D02*
X14743039Y-15431698D01*
X14743039Y-15431698D02*
X14752563Y-15422174D01*
X14752563Y-15422174D02*
X14771610Y-15412650D01*
X14771610Y-15412650D02*
X14800182Y-15412650D01*
X14800182Y-15412650D02*
X14819230Y-15422174D01*
X14819230Y-15422174D02*
X14828753Y-15431698D01*
X14828753Y-15431698D02*
X14838277Y-15450746D01*
X14838277Y-15450746D02*
X14838277Y-15507888D01*
X14838277Y-15507888D02*
X14828753Y-15526936D01*
X14828753Y-15526936D02*
X14819230Y-15536460D01*
X14819230Y-15536460D02*
X14800182Y-15545984D01*
X14800182Y-15545984D02*
X14771610Y-15545984D01*
X14952563Y-15545984D02*
X14933515Y-15536460D01*
X14933515Y-15536460D02*
X14923991Y-15517412D01*
X14923991Y-15517412D02*
X14923991Y-15345984D01*
X15104944Y-15536460D02*
X15085896Y-15545984D01*
X15085896Y-15545984D02*
X15047801Y-15545984D01*
X15047801Y-15545984D02*
X15028753Y-15536460D01*
X15028753Y-15536460D02*
X15019230Y-15517412D01*
X15019230Y-15517412D02*
X15019230Y-15441222D01*
X15019230Y-15441222D02*
X15028753Y-15422174D01*
X15028753Y-15422174D02*
X15047801Y-15412650D01*
X15047801Y-15412650D02*
X15085896Y-15412650D01*
X15085896Y-15412650D02*
X15104944Y-15422174D01*
X15104944Y-15422174D02*
X15114468Y-15441222D01*
X15114468Y-15441222D02*
X15114468Y-15460269D01*
X15114468Y-15460269D02*
X15019230Y-15479317D01*
X15190658Y-15536460D02*
X15209706Y-15545984D01*
X15209706Y-15545984D02*
X15247801Y-15545984D01*
X15247801Y-15545984D02*
X15266849Y-15536460D01*
X15266849Y-15536460D02*
X15276372Y-15517412D01*
X15276372Y-15517412D02*
X15276372Y-15507888D01*
X15276372Y-15507888D02*
X15266849Y-15488841D01*
X15266849Y-15488841D02*
X15247801Y-15479317D01*
X15247801Y-15479317D02*
X15219230Y-15479317D01*
X15219230Y-15479317D02*
X15200182Y-15469793D01*
X15200182Y-15469793D02*
X15190658Y-15450746D01*
X15190658Y-15450746D02*
X15190658Y-15441222D01*
X15190658Y-15441222D02*
X15200182Y-15422174D01*
X15200182Y-15422174D02*
X15219230Y-15412650D01*
X15219230Y-15412650D02*
X15247801Y-15412650D01*
X15247801Y-15412650D02*
X15266849Y-15422174D01*
X15343039Y-15622174D02*
X15352563Y-15612650D01*
X15352563Y-15612650D02*
X15371611Y-15584079D01*
X15371611Y-15584079D02*
X15381134Y-15565031D01*
X15381134Y-15565031D02*
X15390658Y-15536460D01*
X15390658Y-15536460D02*
X15400182Y-15488841D01*
X15400182Y-15488841D02*
X15400182Y-15450746D01*
X15400182Y-15450746D02*
X15390658Y-15403127D01*
X15390658Y-15403127D02*
X15381134Y-15374555D01*
X15381134Y-15374555D02*
X15371611Y-15355508D01*
X15371611Y-15355508D02*
X15352563Y-15326936D01*
X15352563Y-15326936D02*
X15343039Y-15317412D01*
D12*
X10327500Y-15768500D02*
X10377500Y-15718500D01*
X10327500Y-15668500D01*
X10277500Y-15718500D01*
X10327500Y-15768500D01*
D11*
X10743039Y-15809984D02*
X10628753Y-15809984D01*
X10685896Y-15809984D02*
X10685896Y-15609984D01*
X10685896Y-15609984D02*
X10666848Y-15638555D01*
X10666848Y-15638555D02*
X10647801Y-15657603D01*
X10647801Y-15657603D02*
X10628753Y-15667127D01*
X10828753Y-15790936D02*
X10838277Y-15800460D01*
X10838277Y-15800460D02*
X10828753Y-15809984D01*
X10828753Y-15809984D02*
X10819229Y-15800460D01*
X10819229Y-15800460D02*
X10828753Y-15790936D01*
X10828753Y-15790936D02*
X10828753Y-15809984D01*
X10962086Y-15609984D02*
X10981134Y-15609984D01*
X10981134Y-15609984D02*
X11000182Y-15619508D01*
X11000182Y-15619508D02*
X11009705Y-15629031D01*
X11009705Y-15629031D02*
X11019229Y-15648079D01*
X11019229Y-15648079D02*
X11028753Y-15686174D01*
X11028753Y-15686174D02*
X11028753Y-15733793D01*
X11028753Y-15733793D02*
X11019229Y-15771888D01*
X11019229Y-15771888D02*
X11009705Y-15790936D01*
X11009705Y-15790936D02*
X11000182Y-15800460D01*
X11000182Y-15800460D02*
X10981134Y-15809984D01*
X10981134Y-15809984D02*
X10962086Y-15809984D01*
X10962086Y-15809984D02*
X10943039Y-15800460D01*
X10943039Y-15800460D02*
X10933515Y-15790936D01*
X10933515Y-15790936D02*
X10923991Y-15771888D01*
X10923991Y-15771888D02*
X10914467Y-15733793D01*
X10914467Y-15733793D02*
X10914467Y-15686174D01*
X10914467Y-15686174D02*
X10923991Y-15648079D01*
X10923991Y-15648079D02*
X10933515Y-15629031D01*
X10933515Y-15629031D02*
X10943039Y-15619508D01*
X10943039Y-15619508D02*
X10962086Y-15609984D01*
X11152563Y-15609984D02*
X11171610Y-15609984D01*
X11171610Y-15609984D02*
X11190658Y-15619508D01*
X11190658Y-15619508D02*
X11200182Y-15629031D01*
X11200182Y-15629031D02*
X11209705Y-15648079D01*
X11209705Y-15648079D02*
X11219229Y-15686174D01*
X11219229Y-15686174D02*
X11219229Y-15733793D01*
X11219229Y-15733793D02*
X11209705Y-15771888D01*
X11209705Y-15771888D02*
X11200182Y-15790936D01*
X11200182Y-15790936D02*
X11190658Y-15800460D01*
X11190658Y-15800460D02*
X11171610Y-15809984D01*
X11171610Y-15809984D02*
X11152563Y-15809984D01*
X11152563Y-15809984D02*
X11133515Y-15800460D01*
X11133515Y-15800460D02*
X11123991Y-15790936D01*
X11123991Y-15790936D02*
X11114467Y-15771888D01*
X11114467Y-15771888D02*
X11104944Y-15733793D01*
X11104944Y-15733793D02*
X11104944Y-15686174D01*
X11104944Y-15686174D02*
X11114467Y-15648079D01*
X11114467Y-15648079D02*
X11123991Y-15629031D01*
X11123991Y-15629031D02*
X11133515Y-15619508D01*
X11133515Y-15619508D02*
X11152563Y-15609984D01*
X11343039Y-15609984D02*
X11362086Y-15609984D01*
X11362086Y-15609984D02*
X11381134Y-15619508D01*
X11381134Y-15619508D02*
X11390658Y-15629031D01*
X11390658Y-15629031D02*
X11400182Y-15648079D01*
X11400182Y-15648079D02*
X11409705Y-15686174D01*
X11409705Y-15686174D02*
X11409705Y-15733793D01*
X11409705Y-15733793D02*
X11400182Y-15771888D01*
X11400182Y-15771888D02*
X11390658Y-15790936D01*
X11390658Y-15790936D02*
X11381134Y-15800460D01*
X11381134Y-15800460D02*
X11362086Y-15809984D01*
X11362086Y-15809984D02*
X11343039Y-15809984D01*
X11343039Y-15809984D02*
X11323991Y-15800460D01*
X11323991Y-15800460D02*
X11314467Y-15790936D01*
X11314467Y-15790936D02*
X11304943Y-15771888D01*
X11304943Y-15771888D02*
X11295420Y-15733793D01*
X11295420Y-15733793D02*
X11295420Y-15686174D01*
X11295420Y-15686174D02*
X11304943Y-15648079D01*
X11304943Y-15648079D02*
X11314467Y-15629031D01*
X11314467Y-15629031D02*
X11323991Y-15619508D01*
X11323991Y-15619508D02*
X11343039Y-15609984D01*
X11495420Y-15809984D02*
X11495420Y-15676650D01*
X11495420Y-15695698D02*
X11504943Y-15686174D01*
X11504943Y-15686174D02*
X11523991Y-15676650D01*
X11523991Y-15676650D02*
X11552563Y-15676650D01*
X11552563Y-15676650D02*
X11571610Y-15686174D01*
X11571610Y-15686174D02*
X11581134Y-15705222D01*
X11581134Y-15705222D02*
X11581134Y-15809984D01*
X11581134Y-15705222D02*
X11590658Y-15686174D01*
X11590658Y-15686174D02*
X11609705Y-15676650D01*
X11609705Y-15676650D02*
X11638277Y-15676650D01*
X11638277Y-15676650D02*
X11657324Y-15686174D01*
X11657324Y-15686174D02*
X11666848Y-15705222D01*
X11666848Y-15705222D02*
X11666848Y-15809984D01*
X11762086Y-15809984D02*
X11762086Y-15676650D01*
X11762086Y-15695698D02*
X11771610Y-15686174D01*
X11771610Y-15686174D02*
X11790658Y-15676650D01*
X11790658Y-15676650D02*
X11819229Y-15676650D01*
X11819229Y-15676650D02*
X11838277Y-15686174D01*
X11838277Y-15686174D02*
X11847801Y-15705222D01*
X11847801Y-15705222D02*
X11847801Y-15809984D01*
X11847801Y-15705222D02*
X11857324Y-15686174D01*
X11857324Y-15686174D02*
X11876372Y-15676650D01*
X11876372Y-15676650D02*
X11904943Y-15676650D01*
X11904943Y-15676650D02*
X11923991Y-15686174D01*
X11923991Y-15686174D02*
X11933515Y-15705222D01*
X11933515Y-15705222D02*
X11933515Y-15809984D01*
X12323991Y-15600460D02*
X12152563Y-15857603D01*
X12581134Y-15609984D02*
X12600182Y-15609984D01*
X12600182Y-15609984D02*
X12619229Y-15619508D01*
X12619229Y-15619508D02*
X12628753Y-15629031D01*
X12628753Y-15629031D02*
X12638277Y-15648079D01*
X12638277Y-15648079D02*
X12647801Y-15686174D01*
X12647801Y-15686174D02*
X12647801Y-15733793D01*
X12647801Y-15733793D02*
X12638277Y-15771888D01*
X12638277Y-15771888D02*
X12628753Y-15790936D01*
X12628753Y-15790936D02*
X12619229Y-15800460D01*
X12619229Y-15800460D02*
X12600182Y-15809984D01*
X12600182Y-15809984D02*
X12581134Y-15809984D01*
X12581134Y-15809984D02*
X12562086Y-15800460D01*
X12562086Y-15800460D02*
X12552563Y-15790936D01*
X12552563Y-15790936D02*
X12543039Y-15771888D01*
X12543039Y-15771888D02*
X12533515Y-15733793D01*
X12533515Y-15733793D02*
X12533515Y-15686174D01*
X12533515Y-15686174D02*
X12543039Y-15648079D01*
X12543039Y-15648079D02*
X12552563Y-15629031D01*
X12552563Y-15629031D02*
X12562086Y-15619508D01*
X12562086Y-15619508D02*
X12581134Y-15609984D01*
X12733515Y-15790936D02*
X12743039Y-15800460D01*
X12743039Y-15800460D02*
X12733515Y-15809984D01*
X12733515Y-15809984D02*
X12723991Y-15800460D01*
X12723991Y-15800460D02*
X12733515Y-15790936D01*
X12733515Y-15790936D02*
X12733515Y-15809984D01*
X12866848Y-15609984D02*
X12885896Y-15609984D01*
X12885896Y-15609984D02*
X12904944Y-15619508D01*
X12904944Y-15619508D02*
X12914467Y-15629031D01*
X12914467Y-15629031D02*
X12923991Y-15648079D01*
X12923991Y-15648079D02*
X12933515Y-15686174D01*
X12933515Y-15686174D02*
X12933515Y-15733793D01*
X12933515Y-15733793D02*
X12923991Y-15771888D01*
X12923991Y-15771888D02*
X12914467Y-15790936D01*
X12914467Y-15790936D02*
X12904944Y-15800460D01*
X12904944Y-15800460D02*
X12885896Y-15809984D01*
X12885896Y-15809984D02*
X12866848Y-15809984D01*
X12866848Y-15809984D02*
X12847801Y-15800460D01*
X12847801Y-15800460D02*
X12838277Y-15790936D01*
X12838277Y-15790936D02*
X12828753Y-15771888D01*
X12828753Y-15771888D02*
X12819229Y-15733793D01*
X12819229Y-15733793D02*
X12819229Y-15686174D01*
X12819229Y-15686174D02*
X12828753Y-15648079D01*
X12828753Y-15648079D02*
X12838277Y-15629031D01*
X12838277Y-15629031D02*
X12847801Y-15619508D01*
X12847801Y-15619508D02*
X12866848Y-15609984D01*
X13000182Y-15609984D02*
X13123991Y-15609984D01*
X13123991Y-15609984D02*
X13057325Y-15686174D01*
X13057325Y-15686174D02*
X13085896Y-15686174D01*
X13085896Y-15686174D02*
X13104944Y-15695698D01*
X13104944Y-15695698D02*
X13114467Y-15705222D01*
X13114467Y-15705222D02*
X13123991Y-15724269D01*
X13123991Y-15724269D02*
X13123991Y-15771888D01*
X13123991Y-15771888D02*
X13114467Y-15790936D01*
X13114467Y-15790936D02*
X13104944Y-15800460D01*
X13104944Y-15800460D02*
X13085896Y-15809984D01*
X13085896Y-15809984D02*
X13028753Y-15809984D01*
X13028753Y-15809984D02*
X13009706Y-15800460D01*
X13009706Y-15800460D02*
X13000182Y-15790936D01*
X13219229Y-15809984D02*
X13257325Y-15809984D01*
X13257325Y-15809984D02*
X13276372Y-15800460D01*
X13276372Y-15800460D02*
X13285896Y-15790936D01*
X13285896Y-15790936D02*
X13304944Y-15762365D01*
X13304944Y-15762365D02*
X13314467Y-15724269D01*
X13314467Y-15724269D02*
X13314467Y-15648079D01*
X13314467Y-15648079D02*
X13304944Y-15629031D01*
X13304944Y-15629031D02*
X13295420Y-15619508D01*
X13295420Y-15619508D02*
X13276372Y-15609984D01*
X13276372Y-15609984D02*
X13238277Y-15609984D01*
X13238277Y-15609984D02*
X13219229Y-15619508D01*
X13219229Y-15619508D02*
X13209706Y-15629031D01*
X13209706Y-15629031D02*
X13200182Y-15648079D01*
X13200182Y-15648079D02*
X13200182Y-15695698D01*
X13200182Y-15695698D02*
X13209706Y-15714746D01*
X13209706Y-15714746D02*
X13219229Y-15724269D01*
X13219229Y-15724269D02*
X13238277Y-15733793D01*
X13238277Y-15733793D02*
X13276372Y-15733793D01*
X13276372Y-15733793D02*
X13295420Y-15724269D01*
X13295420Y-15724269D02*
X13304944Y-15714746D01*
X13304944Y-15714746D02*
X13314467Y-15695698D01*
X13485896Y-15676650D02*
X13485896Y-15809984D01*
X13438277Y-15600460D02*
X13390658Y-15743317D01*
X13390658Y-15743317D02*
X13514467Y-15743317D01*
X13581134Y-15609984D02*
X13581134Y-15648079D01*
X13657325Y-15609984D02*
X13657325Y-15648079D01*
X13952563Y-15886174D02*
X13943039Y-15876650D01*
X13943039Y-15876650D02*
X13923991Y-15848079D01*
X13923991Y-15848079D02*
X13914468Y-15829031D01*
X13914468Y-15829031D02*
X13904944Y-15800460D01*
X13904944Y-15800460D02*
X13895420Y-15752841D01*
X13895420Y-15752841D02*
X13895420Y-15714746D01*
X13895420Y-15714746D02*
X13904944Y-15667127D01*
X13904944Y-15667127D02*
X13914468Y-15638555D01*
X13914468Y-15638555D02*
X13923991Y-15619508D01*
X13923991Y-15619508D02*
X13943039Y-15590936D01*
X13943039Y-15590936D02*
X13952563Y-15581412D01*
X14114468Y-15676650D02*
X14114468Y-15809984D01*
X14066848Y-15600460D02*
X14019229Y-15743317D01*
X14019229Y-15743317D02*
X14143039Y-15743317D01*
X14314468Y-15609984D02*
X14219229Y-15609984D01*
X14219229Y-15609984D02*
X14209706Y-15705222D01*
X14209706Y-15705222D02*
X14219229Y-15695698D01*
X14219229Y-15695698D02*
X14238277Y-15686174D01*
X14238277Y-15686174D02*
X14285896Y-15686174D01*
X14285896Y-15686174D02*
X14304944Y-15695698D01*
X14304944Y-15695698D02*
X14314468Y-15705222D01*
X14314468Y-15705222D02*
X14323991Y-15724269D01*
X14323991Y-15724269D02*
X14323991Y-15771888D01*
X14323991Y-15771888D02*
X14314468Y-15790936D01*
X14314468Y-15790936D02*
X14304944Y-15800460D01*
X14304944Y-15800460D02*
X14285896Y-15809984D01*
X14285896Y-15809984D02*
X14238277Y-15809984D01*
X14238277Y-15809984D02*
X14219229Y-15800460D01*
X14219229Y-15800460D02*
X14209706Y-15790936D01*
X14562087Y-15809984D02*
X14562087Y-15609984D01*
X14647801Y-15809984D02*
X14647801Y-15705222D01*
X14647801Y-15705222D02*
X14638277Y-15686174D01*
X14638277Y-15686174D02*
X14619230Y-15676650D01*
X14619230Y-15676650D02*
X14590658Y-15676650D01*
X14590658Y-15676650D02*
X14571610Y-15686174D01*
X14571610Y-15686174D02*
X14562087Y-15695698D01*
X14771610Y-15809984D02*
X14752563Y-15800460D01*
X14752563Y-15800460D02*
X14743039Y-15790936D01*
X14743039Y-15790936D02*
X14733515Y-15771888D01*
X14733515Y-15771888D02*
X14733515Y-15714746D01*
X14733515Y-15714746D02*
X14743039Y-15695698D01*
X14743039Y-15695698D02*
X14752563Y-15686174D01*
X14752563Y-15686174D02*
X14771610Y-15676650D01*
X14771610Y-15676650D02*
X14800182Y-15676650D01*
X14800182Y-15676650D02*
X14819230Y-15686174D01*
X14819230Y-15686174D02*
X14828753Y-15695698D01*
X14828753Y-15695698D02*
X14838277Y-15714746D01*
X14838277Y-15714746D02*
X14838277Y-15771888D01*
X14838277Y-15771888D02*
X14828753Y-15790936D01*
X14828753Y-15790936D02*
X14819230Y-15800460D01*
X14819230Y-15800460D02*
X14800182Y-15809984D01*
X14800182Y-15809984D02*
X14771610Y-15809984D01*
X14952563Y-15809984D02*
X14933515Y-15800460D01*
X14933515Y-15800460D02*
X14923991Y-15781412D01*
X14923991Y-15781412D02*
X14923991Y-15609984D01*
X15104944Y-15800460D02*
X15085896Y-15809984D01*
X15085896Y-15809984D02*
X15047801Y-15809984D01*
X15047801Y-15809984D02*
X15028753Y-15800460D01*
X15028753Y-15800460D02*
X15019230Y-15781412D01*
X15019230Y-15781412D02*
X15019230Y-15705222D01*
X15019230Y-15705222D02*
X15028753Y-15686174D01*
X15028753Y-15686174D02*
X15047801Y-15676650D01*
X15047801Y-15676650D02*
X15085896Y-15676650D01*
X15085896Y-15676650D02*
X15104944Y-15686174D01*
X15104944Y-15686174D02*
X15114468Y-15705222D01*
X15114468Y-15705222D02*
X15114468Y-15724269D01*
X15114468Y-15724269D02*
X15019230Y-15743317D01*
X15190658Y-15800460D02*
X15209706Y-15809984D01*
X15209706Y-15809984D02*
X15247801Y-15809984D01*
X15247801Y-15809984D02*
X15266849Y-15800460D01*
X15266849Y-15800460D02*
X15276372Y-15781412D01*
X15276372Y-15781412D02*
X15276372Y-15771888D01*
X15276372Y-15771888D02*
X15266849Y-15752841D01*
X15266849Y-15752841D02*
X15247801Y-15743317D01*
X15247801Y-15743317D02*
X15219230Y-15743317D01*
X15219230Y-15743317D02*
X15200182Y-15733793D01*
X15200182Y-15733793D02*
X15190658Y-15714746D01*
X15190658Y-15714746D02*
X15190658Y-15705222D01*
X15190658Y-15705222D02*
X15200182Y-15686174D01*
X15200182Y-15686174D02*
X15219230Y-15676650D01*
X15219230Y-15676650D02*
X15247801Y-15676650D01*
X15247801Y-15676650D02*
X15266849Y-15686174D01*
X15514468Y-15733793D02*
X15666849Y-15733793D01*
X15590658Y-15809984D02*
X15590658Y-15657603D01*
X15895420Y-15609984D02*
X16019230Y-15609984D01*
X16019230Y-15609984D02*
X15952563Y-15686174D01*
X15952563Y-15686174D02*
X15981134Y-15686174D01*
X15981134Y-15686174D02*
X16000182Y-15695698D01*
X16000182Y-15695698D02*
X16009706Y-15705222D01*
X16009706Y-15705222D02*
X16019230Y-15724269D01*
X16019230Y-15724269D02*
X16019230Y-15771888D01*
X16019230Y-15771888D02*
X16009706Y-15790936D01*
X16009706Y-15790936D02*
X16000182Y-15800460D01*
X16000182Y-15800460D02*
X15981134Y-15809984D01*
X15981134Y-15809984D02*
X15923992Y-15809984D01*
X15923992Y-15809984D02*
X15904944Y-15800460D01*
X15904944Y-15800460D02*
X15895420Y-15790936D01*
X16247801Y-15800460D02*
X16266849Y-15809984D01*
X16266849Y-15809984D02*
X16304944Y-15809984D01*
X16304944Y-15809984D02*
X16323992Y-15800460D01*
X16323992Y-15800460D02*
X16333515Y-15781412D01*
X16333515Y-15781412D02*
X16333515Y-15771888D01*
X16333515Y-15771888D02*
X16323992Y-15752841D01*
X16323992Y-15752841D02*
X16304944Y-15743317D01*
X16304944Y-15743317D02*
X16276373Y-15743317D01*
X16276373Y-15743317D02*
X16257325Y-15733793D01*
X16257325Y-15733793D02*
X16247801Y-15714746D01*
X16247801Y-15714746D02*
X16247801Y-15705222D01*
X16247801Y-15705222D02*
X16257325Y-15686174D01*
X16257325Y-15686174D02*
X16276373Y-15676650D01*
X16276373Y-15676650D02*
X16304944Y-15676650D01*
X16304944Y-15676650D02*
X16323992Y-15686174D01*
X16447801Y-15809984D02*
X16428754Y-15800460D01*
X16428754Y-15800460D02*
X16419230Y-15781412D01*
X16419230Y-15781412D02*
X16419230Y-15609984D01*
X16552563Y-15809984D02*
X16533515Y-15800460D01*
X16533515Y-15800460D02*
X16523992Y-15790936D01*
X16523992Y-15790936D02*
X16514468Y-15771888D01*
X16514468Y-15771888D02*
X16514468Y-15714746D01*
X16514468Y-15714746D02*
X16523992Y-15695698D01*
X16523992Y-15695698D02*
X16533515Y-15686174D01*
X16533515Y-15686174D02*
X16552563Y-15676650D01*
X16552563Y-15676650D02*
X16581135Y-15676650D01*
X16581135Y-15676650D02*
X16600182Y-15686174D01*
X16600182Y-15686174D02*
X16609706Y-15695698D01*
X16609706Y-15695698D02*
X16619230Y-15714746D01*
X16619230Y-15714746D02*
X16619230Y-15771888D01*
X16619230Y-15771888D02*
X16609706Y-15790936D01*
X16609706Y-15790936D02*
X16600182Y-15800460D01*
X16600182Y-15800460D02*
X16581135Y-15809984D01*
X16581135Y-15809984D02*
X16552563Y-15809984D01*
X16676373Y-15676650D02*
X16752563Y-15676650D01*
X16704944Y-15609984D02*
X16704944Y-15781412D01*
X16704944Y-15781412D02*
X16714468Y-15800460D01*
X16714468Y-15800460D02*
X16733515Y-15809984D01*
X16733515Y-15809984D02*
X16752563Y-15809984D01*
X16809706Y-15800460D02*
X16828754Y-15809984D01*
X16828754Y-15809984D02*
X16866849Y-15809984D01*
X16866849Y-15809984D02*
X16885897Y-15800460D01*
X16885897Y-15800460D02*
X16895420Y-15781412D01*
X16895420Y-15781412D02*
X16895420Y-15771888D01*
X16895420Y-15771888D02*
X16885897Y-15752841D01*
X16885897Y-15752841D02*
X16866849Y-15743317D01*
X16866849Y-15743317D02*
X16838277Y-15743317D01*
X16838277Y-15743317D02*
X16819230Y-15733793D01*
X16819230Y-15733793D02*
X16809706Y-15714746D01*
X16809706Y-15714746D02*
X16809706Y-15705222D01*
X16809706Y-15705222D02*
X16819230Y-15686174D01*
X16819230Y-15686174D02*
X16838277Y-15676650D01*
X16838277Y-15676650D02*
X16866849Y-15676650D01*
X16866849Y-15676650D02*
X16885897Y-15686174D01*
X16962087Y-15886174D02*
X16971611Y-15876650D01*
X16971611Y-15876650D02*
X16990658Y-15848079D01*
X16990658Y-15848079D02*
X17000182Y-15829031D01*
X17000182Y-15829031D02*
X17009706Y-15800460D01*
X17009706Y-15800460D02*
X17019230Y-15752841D01*
X17019230Y-15752841D02*
X17019230Y-15714746D01*
X17019230Y-15714746D02*
X17009706Y-15667127D01*
X17009706Y-15667127D02*
X17000182Y-15638555D01*
X17000182Y-15638555D02*
X16990658Y-15619508D01*
X16990658Y-15619508D02*
X16971611Y-15590936D01*
X16971611Y-15590936D02*
X16962087Y-15581412D01*
D13*
X10257500Y-15922500D02*
X10377500Y-16042500D01*
X10377500Y-15922500D02*
X10257500Y-16042500D01*
X10377500Y-15982500D02*
G75*
G02*
X10257500Y-15982500I-60000J0D01*
G01*
X10257500Y-15982500D02*
G75*
G02*
X10377500Y-15982500I60000J0D01*
G01*
D11*
X10743039Y-16073984D02*
X10628753Y-16073984D01*
X10685896Y-16073984D02*
X10685896Y-15873984D01*
X10685896Y-15873984D02*
X10666848Y-15902555D01*
X10666848Y-15902555D02*
X10647801Y-15921603D01*
X10647801Y-15921603D02*
X10628753Y-15931127D01*
X10828753Y-16054936D02*
X10838277Y-16064460D01*
X10838277Y-16064460D02*
X10828753Y-16073984D01*
X10828753Y-16073984D02*
X10819229Y-16064460D01*
X10819229Y-16064460D02*
X10828753Y-16054936D01*
X10828753Y-16054936D02*
X10828753Y-16073984D01*
X10914467Y-15893031D02*
X10923991Y-15883508D01*
X10923991Y-15883508D02*
X10943039Y-15873984D01*
X10943039Y-15873984D02*
X10990658Y-15873984D01*
X10990658Y-15873984D02*
X11009705Y-15883508D01*
X11009705Y-15883508D02*
X11019229Y-15893031D01*
X11019229Y-15893031D02*
X11028753Y-15912079D01*
X11028753Y-15912079D02*
X11028753Y-15931127D01*
X11028753Y-15931127D02*
X11019229Y-15959698D01*
X11019229Y-15959698D02*
X10904944Y-16073984D01*
X10904944Y-16073984D02*
X11028753Y-16073984D01*
X11152563Y-15873984D02*
X11171610Y-15873984D01*
X11171610Y-15873984D02*
X11190658Y-15883508D01*
X11190658Y-15883508D02*
X11200182Y-15893031D01*
X11200182Y-15893031D02*
X11209705Y-15912079D01*
X11209705Y-15912079D02*
X11219229Y-15950174D01*
X11219229Y-15950174D02*
X11219229Y-15997793D01*
X11219229Y-15997793D02*
X11209705Y-16035888D01*
X11209705Y-16035888D02*
X11200182Y-16054936D01*
X11200182Y-16054936D02*
X11190658Y-16064460D01*
X11190658Y-16064460D02*
X11171610Y-16073984D01*
X11171610Y-16073984D02*
X11152563Y-16073984D01*
X11152563Y-16073984D02*
X11133515Y-16064460D01*
X11133515Y-16064460D02*
X11123991Y-16054936D01*
X11123991Y-16054936D02*
X11114467Y-16035888D01*
X11114467Y-16035888D02*
X11104944Y-15997793D01*
X11104944Y-15997793D02*
X11104944Y-15950174D01*
X11104944Y-15950174D02*
X11114467Y-15912079D01*
X11114467Y-15912079D02*
X11123991Y-15893031D01*
X11123991Y-15893031D02*
X11133515Y-15883508D01*
X11133515Y-15883508D02*
X11152563Y-15873984D01*
X11343039Y-15873984D02*
X11362086Y-15873984D01*
X11362086Y-15873984D02*
X11381134Y-15883508D01*
X11381134Y-15883508D02*
X11390658Y-15893031D01*
X11390658Y-15893031D02*
X11400182Y-15912079D01*
X11400182Y-15912079D02*
X11409705Y-15950174D01*
X11409705Y-15950174D02*
X11409705Y-15997793D01*
X11409705Y-15997793D02*
X11400182Y-16035888D01*
X11400182Y-16035888D02*
X11390658Y-16054936D01*
X11390658Y-16054936D02*
X11381134Y-16064460D01*
X11381134Y-16064460D02*
X11362086Y-16073984D01*
X11362086Y-16073984D02*
X11343039Y-16073984D01*
X11343039Y-16073984D02*
X11323991Y-16064460D01*
X11323991Y-16064460D02*
X11314467Y-16054936D01*
X11314467Y-16054936D02*
X11304943Y-16035888D01*
X11304943Y-16035888D02*
X11295420Y-15997793D01*
X11295420Y-15997793D02*
X11295420Y-15950174D01*
X11295420Y-15950174D02*
X11304943Y-15912079D01*
X11304943Y-15912079D02*
X11314467Y-15893031D01*
X11314467Y-15893031D02*
X11323991Y-15883508D01*
X11323991Y-15883508D02*
X11343039Y-15873984D01*
X11495420Y-16073984D02*
X11495420Y-15940650D01*
X11495420Y-15959698D02*
X11504943Y-15950174D01*
X11504943Y-15950174D02*
X11523991Y-15940650D01*
X11523991Y-15940650D02*
X11552563Y-15940650D01*
X11552563Y-15940650D02*
X11571610Y-15950174D01*
X11571610Y-15950174D02*
X11581134Y-15969222D01*
X11581134Y-15969222D02*
X11581134Y-16073984D01*
X11581134Y-15969222D02*
X11590658Y-15950174D01*
X11590658Y-15950174D02*
X11609705Y-15940650D01*
X11609705Y-15940650D02*
X11638277Y-15940650D01*
X11638277Y-15940650D02*
X11657324Y-15950174D01*
X11657324Y-15950174D02*
X11666848Y-15969222D01*
X11666848Y-15969222D02*
X11666848Y-16073984D01*
X11762086Y-16073984D02*
X11762086Y-15940650D01*
X11762086Y-15959698D02*
X11771610Y-15950174D01*
X11771610Y-15950174D02*
X11790658Y-15940650D01*
X11790658Y-15940650D02*
X11819229Y-15940650D01*
X11819229Y-15940650D02*
X11838277Y-15950174D01*
X11838277Y-15950174D02*
X11847801Y-15969222D01*
X11847801Y-15969222D02*
X11847801Y-16073984D01*
X11847801Y-15969222D02*
X11857324Y-15950174D01*
X11857324Y-15950174D02*
X11876372Y-15940650D01*
X11876372Y-15940650D02*
X11904943Y-15940650D01*
X11904943Y-15940650D02*
X11923991Y-15950174D01*
X11923991Y-15950174D02*
X11933515Y-15969222D01*
X11933515Y-15969222D02*
X11933515Y-16073984D01*
X12323991Y-15864460D02*
X12152563Y-16121603D01*
X12581134Y-15873984D02*
X12600182Y-15873984D01*
X12600182Y-15873984D02*
X12619229Y-15883508D01*
X12619229Y-15883508D02*
X12628753Y-15893031D01*
X12628753Y-15893031D02*
X12638277Y-15912079D01*
X12638277Y-15912079D02*
X12647801Y-15950174D01*
X12647801Y-15950174D02*
X12647801Y-15997793D01*
X12647801Y-15997793D02*
X12638277Y-16035888D01*
X12638277Y-16035888D02*
X12628753Y-16054936D01*
X12628753Y-16054936D02*
X12619229Y-16064460D01*
X12619229Y-16064460D02*
X12600182Y-16073984D01*
X12600182Y-16073984D02*
X12581134Y-16073984D01*
X12581134Y-16073984D02*
X12562086Y-16064460D01*
X12562086Y-16064460D02*
X12552563Y-16054936D01*
X12552563Y-16054936D02*
X12543039Y-16035888D01*
X12543039Y-16035888D02*
X12533515Y-15997793D01*
X12533515Y-15997793D02*
X12533515Y-15950174D01*
X12533515Y-15950174D02*
X12543039Y-15912079D01*
X12543039Y-15912079D02*
X12552563Y-15893031D01*
X12552563Y-15893031D02*
X12562086Y-15883508D01*
X12562086Y-15883508D02*
X12581134Y-15873984D01*
X12733515Y-16054936D02*
X12743039Y-16064460D01*
X12743039Y-16064460D02*
X12733515Y-16073984D01*
X12733515Y-16073984D02*
X12723991Y-16064460D01*
X12723991Y-16064460D02*
X12733515Y-16054936D01*
X12733515Y-16054936D02*
X12733515Y-16073984D01*
X12866848Y-15873984D02*
X12885896Y-15873984D01*
X12885896Y-15873984D02*
X12904944Y-15883508D01*
X12904944Y-15883508D02*
X12914467Y-15893031D01*
X12914467Y-15893031D02*
X12923991Y-15912079D01*
X12923991Y-15912079D02*
X12933515Y-15950174D01*
X12933515Y-15950174D02*
X12933515Y-15997793D01*
X12933515Y-15997793D02*
X12923991Y-16035888D01*
X12923991Y-16035888D02*
X12914467Y-16054936D01*
X12914467Y-16054936D02*
X12904944Y-16064460D01*
X12904944Y-16064460D02*
X12885896Y-16073984D01*
X12885896Y-16073984D02*
X12866848Y-16073984D01*
X12866848Y-16073984D02*
X12847801Y-16064460D01*
X12847801Y-16064460D02*
X12838277Y-16054936D01*
X12838277Y-16054936D02*
X12828753Y-16035888D01*
X12828753Y-16035888D02*
X12819229Y-15997793D01*
X12819229Y-15997793D02*
X12819229Y-15950174D01*
X12819229Y-15950174D02*
X12828753Y-15912079D01*
X12828753Y-15912079D02*
X12838277Y-15893031D01*
X12838277Y-15893031D02*
X12847801Y-15883508D01*
X12847801Y-15883508D02*
X12866848Y-15873984D01*
X13104944Y-15940650D02*
X13104944Y-16073984D01*
X13057325Y-15864460D02*
X13009706Y-16007317D01*
X13009706Y-16007317D02*
X13133515Y-16007317D01*
X13190658Y-15873984D02*
X13323991Y-15873984D01*
X13323991Y-15873984D02*
X13238277Y-16073984D01*
X13390658Y-15893031D02*
X13400182Y-15883508D01*
X13400182Y-15883508D02*
X13419229Y-15873984D01*
X13419229Y-15873984D02*
X13466848Y-15873984D01*
X13466848Y-15873984D02*
X13485896Y-15883508D01*
X13485896Y-15883508D02*
X13495420Y-15893031D01*
X13495420Y-15893031D02*
X13504944Y-15912079D01*
X13504944Y-15912079D02*
X13504944Y-15931127D01*
X13504944Y-15931127D02*
X13495420Y-15959698D01*
X13495420Y-15959698D02*
X13381134Y-16073984D01*
X13381134Y-16073984D02*
X13504944Y-16073984D01*
X13581134Y-15873984D02*
X13581134Y-15912079D01*
X13657325Y-15873984D02*
X13657325Y-15912079D01*
X13952563Y-16150174D02*
X13943039Y-16140650D01*
X13943039Y-16140650D02*
X13923991Y-16112079D01*
X13923991Y-16112079D02*
X13914468Y-16093031D01*
X13914468Y-16093031D02*
X13904944Y-16064460D01*
X13904944Y-16064460D02*
X13895420Y-16016841D01*
X13895420Y-16016841D02*
X13895420Y-15978746D01*
X13895420Y-15978746D02*
X13904944Y-15931127D01*
X13904944Y-15931127D02*
X13914468Y-15902555D01*
X13914468Y-15902555D02*
X13923991Y-15883508D01*
X13923991Y-15883508D02*
X13943039Y-15854936D01*
X13943039Y-15854936D02*
X13952563Y-15845412D01*
X14019229Y-15893031D02*
X14028753Y-15883508D01*
X14028753Y-15883508D02*
X14047801Y-15873984D01*
X14047801Y-15873984D02*
X14095420Y-15873984D01*
X14095420Y-15873984D02*
X14114468Y-15883508D01*
X14114468Y-15883508D02*
X14123991Y-15893031D01*
X14123991Y-15893031D02*
X14133515Y-15912079D01*
X14133515Y-15912079D02*
X14133515Y-15931127D01*
X14133515Y-15931127D02*
X14123991Y-15959698D01*
X14123991Y-15959698D02*
X14009706Y-16073984D01*
X14009706Y-16073984D02*
X14133515Y-16073984D01*
X14247801Y-15959698D02*
X14228753Y-15950174D01*
X14228753Y-15950174D02*
X14219229Y-15940650D01*
X14219229Y-15940650D02*
X14209706Y-15921603D01*
X14209706Y-15921603D02*
X14209706Y-15912079D01*
X14209706Y-15912079D02*
X14219229Y-15893031D01*
X14219229Y-15893031D02*
X14228753Y-15883508D01*
X14228753Y-15883508D02*
X14247801Y-15873984D01*
X14247801Y-15873984D02*
X14285896Y-15873984D01*
X14285896Y-15873984D02*
X14304944Y-15883508D01*
X14304944Y-15883508D02*
X14314468Y-15893031D01*
X14314468Y-15893031D02*
X14323991Y-15912079D01*
X14323991Y-15912079D02*
X14323991Y-15921603D01*
X14323991Y-15921603D02*
X14314468Y-15940650D01*
X14314468Y-15940650D02*
X14304944Y-15950174D01*
X14304944Y-15950174D02*
X14285896Y-15959698D01*
X14285896Y-15959698D02*
X14247801Y-15959698D01*
X14247801Y-15959698D02*
X14228753Y-15969222D01*
X14228753Y-15969222D02*
X14219229Y-15978746D01*
X14219229Y-15978746D02*
X14209706Y-15997793D01*
X14209706Y-15997793D02*
X14209706Y-16035888D01*
X14209706Y-16035888D02*
X14219229Y-16054936D01*
X14219229Y-16054936D02*
X14228753Y-16064460D01*
X14228753Y-16064460D02*
X14247801Y-16073984D01*
X14247801Y-16073984D02*
X14285896Y-16073984D01*
X14285896Y-16073984D02*
X14304944Y-16064460D01*
X14304944Y-16064460D02*
X14314468Y-16054936D01*
X14314468Y-16054936D02*
X14323991Y-16035888D01*
X14323991Y-16035888D02*
X14323991Y-15997793D01*
X14323991Y-15997793D02*
X14314468Y-15978746D01*
X14314468Y-15978746D02*
X14304944Y-15969222D01*
X14304944Y-15969222D02*
X14285896Y-15959698D01*
X14562087Y-16073984D02*
X14562087Y-15873984D01*
X14647801Y-16073984D02*
X14647801Y-15969222D01*
X14647801Y-15969222D02*
X14638277Y-15950174D01*
X14638277Y-15950174D02*
X14619230Y-15940650D01*
X14619230Y-15940650D02*
X14590658Y-15940650D01*
X14590658Y-15940650D02*
X14571610Y-15950174D01*
X14571610Y-15950174D02*
X14562087Y-15959698D01*
X14771610Y-16073984D02*
X14752563Y-16064460D01*
X14752563Y-16064460D02*
X14743039Y-16054936D01*
X14743039Y-16054936D02*
X14733515Y-16035888D01*
X14733515Y-16035888D02*
X14733515Y-15978746D01*
X14733515Y-15978746D02*
X14743039Y-15959698D01*
X14743039Y-15959698D02*
X14752563Y-15950174D01*
X14752563Y-15950174D02*
X14771610Y-15940650D01*
X14771610Y-15940650D02*
X14800182Y-15940650D01*
X14800182Y-15940650D02*
X14819230Y-15950174D01*
X14819230Y-15950174D02*
X14828753Y-15959698D01*
X14828753Y-15959698D02*
X14838277Y-15978746D01*
X14838277Y-15978746D02*
X14838277Y-16035888D01*
X14838277Y-16035888D02*
X14828753Y-16054936D01*
X14828753Y-16054936D02*
X14819230Y-16064460D01*
X14819230Y-16064460D02*
X14800182Y-16073984D01*
X14800182Y-16073984D02*
X14771610Y-16073984D01*
X14952563Y-16073984D02*
X14933515Y-16064460D01*
X14933515Y-16064460D02*
X14923991Y-16045412D01*
X14923991Y-16045412D02*
X14923991Y-15873984D01*
X15104944Y-16064460D02*
X15085896Y-16073984D01*
X15085896Y-16073984D02*
X15047801Y-16073984D01*
X15047801Y-16073984D02*
X15028753Y-16064460D01*
X15028753Y-16064460D02*
X15019230Y-16045412D01*
X15019230Y-16045412D02*
X15019230Y-15969222D01*
X15019230Y-15969222D02*
X15028753Y-15950174D01*
X15028753Y-15950174D02*
X15047801Y-15940650D01*
X15047801Y-15940650D02*
X15085896Y-15940650D01*
X15085896Y-15940650D02*
X15104944Y-15950174D01*
X15104944Y-15950174D02*
X15114468Y-15969222D01*
X15114468Y-15969222D02*
X15114468Y-15988269D01*
X15114468Y-15988269D02*
X15019230Y-16007317D01*
X15190658Y-16064460D02*
X15209706Y-16073984D01*
X15209706Y-16073984D02*
X15247801Y-16073984D01*
X15247801Y-16073984D02*
X15266849Y-16064460D01*
X15266849Y-16064460D02*
X15276372Y-16045412D01*
X15276372Y-16045412D02*
X15276372Y-16035888D01*
X15276372Y-16035888D02*
X15266849Y-16016841D01*
X15266849Y-16016841D02*
X15247801Y-16007317D01*
X15247801Y-16007317D02*
X15219230Y-16007317D01*
X15219230Y-16007317D02*
X15200182Y-15997793D01*
X15200182Y-15997793D02*
X15190658Y-15978746D01*
X15190658Y-15978746D02*
X15190658Y-15969222D01*
X15190658Y-15969222D02*
X15200182Y-15950174D01*
X15200182Y-15950174D02*
X15219230Y-15940650D01*
X15219230Y-15940650D02*
X15247801Y-15940650D01*
X15247801Y-15940650D02*
X15266849Y-15950174D01*
X15343039Y-16150174D02*
X15352563Y-16140650D01*
X15352563Y-16140650D02*
X15371611Y-16112079D01*
X15371611Y-16112079D02*
X15381134Y-16093031D01*
X15381134Y-16093031D02*
X15390658Y-16064460D01*
X15390658Y-16064460D02*
X15400182Y-16016841D01*
X15400182Y-16016841D02*
X15400182Y-15978746D01*
X15400182Y-15978746D02*
X15390658Y-15931127D01*
X15390658Y-15931127D02*
X15381134Y-15902555D01*
X15381134Y-15902555D02*
X15371611Y-15883508D01*
X15371611Y-15883508D02*
X15352563Y-15854936D01*
X15352563Y-15854936D02*
X15343039Y-15845412D01*
D14*
X10207500Y-16161500D02*
X10377500Y-16331500D01*
X10377500Y-16161500D02*
X10207500Y-16331500D01*
X10292500Y-16161500D02*
X10292500Y-16331500D01*
X10207500Y-16246500D02*
X10377500Y-16246500D01*
D11*
X10743039Y-16337984D02*
X10628753Y-16337984D01*
X10685896Y-16337984D02*
X10685896Y-16137984D01*
X10685896Y-16137984D02*
X10666848Y-16166555D01*
X10666848Y-16166555D02*
X10647801Y-16185603D01*
X10647801Y-16185603D02*
X10628753Y-16195127D01*
X10828753Y-16318936D02*
X10838277Y-16328460D01*
X10838277Y-16328460D02*
X10828753Y-16337984D01*
X10828753Y-16337984D02*
X10819229Y-16328460D01*
X10819229Y-16328460D02*
X10828753Y-16318936D01*
X10828753Y-16318936D02*
X10828753Y-16337984D01*
X10904944Y-16137984D02*
X11038277Y-16137984D01*
X11038277Y-16137984D02*
X10952563Y-16337984D01*
X11152563Y-16137984D02*
X11171610Y-16137984D01*
X11171610Y-16137984D02*
X11190658Y-16147508D01*
X11190658Y-16147508D02*
X11200182Y-16157031D01*
X11200182Y-16157031D02*
X11209705Y-16176079D01*
X11209705Y-16176079D02*
X11219229Y-16214174D01*
X11219229Y-16214174D02*
X11219229Y-16261793D01*
X11219229Y-16261793D02*
X11209705Y-16299888D01*
X11209705Y-16299888D02*
X11200182Y-16318936D01*
X11200182Y-16318936D02*
X11190658Y-16328460D01*
X11190658Y-16328460D02*
X11171610Y-16337984D01*
X11171610Y-16337984D02*
X11152563Y-16337984D01*
X11152563Y-16337984D02*
X11133515Y-16328460D01*
X11133515Y-16328460D02*
X11123991Y-16318936D01*
X11123991Y-16318936D02*
X11114467Y-16299888D01*
X11114467Y-16299888D02*
X11104944Y-16261793D01*
X11104944Y-16261793D02*
X11104944Y-16214174D01*
X11104944Y-16214174D02*
X11114467Y-16176079D01*
X11114467Y-16176079D02*
X11123991Y-16157031D01*
X11123991Y-16157031D02*
X11133515Y-16147508D01*
X11133515Y-16147508D02*
X11152563Y-16137984D01*
X11343039Y-16137984D02*
X11362086Y-16137984D01*
X11362086Y-16137984D02*
X11381134Y-16147508D01*
X11381134Y-16147508D02*
X11390658Y-16157031D01*
X11390658Y-16157031D02*
X11400182Y-16176079D01*
X11400182Y-16176079D02*
X11409705Y-16214174D01*
X11409705Y-16214174D02*
X11409705Y-16261793D01*
X11409705Y-16261793D02*
X11400182Y-16299888D01*
X11400182Y-16299888D02*
X11390658Y-16318936D01*
X11390658Y-16318936D02*
X11381134Y-16328460D01*
X11381134Y-16328460D02*
X11362086Y-16337984D01*
X11362086Y-16337984D02*
X11343039Y-16337984D01*
X11343039Y-16337984D02*
X11323991Y-16328460D01*
X11323991Y-16328460D02*
X11314467Y-16318936D01*
X11314467Y-16318936D02*
X11304943Y-16299888D01*
X11304943Y-16299888D02*
X11295420Y-16261793D01*
X11295420Y-16261793D02*
X11295420Y-16214174D01*
X11295420Y-16214174D02*
X11304943Y-16176079D01*
X11304943Y-16176079D02*
X11314467Y-16157031D01*
X11314467Y-16157031D02*
X11323991Y-16147508D01*
X11323991Y-16147508D02*
X11343039Y-16137984D01*
X11495420Y-16337984D02*
X11495420Y-16204650D01*
X11495420Y-16223698D02*
X11504943Y-16214174D01*
X11504943Y-16214174D02*
X11523991Y-16204650D01*
X11523991Y-16204650D02*
X11552563Y-16204650D01*
X11552563Y-16204650D02*
X11571610Y-16214174D01*
X11571610Y-16214174D02*
X11581134Y-16233222D01*
X11581134Y-16233222D02*
X11581134Y-16337984D01*
X11581134Y-16233222D02*
X11590658Y-16214174D01*
X11590658Y-16214174D02*
X11609705Y-16204650D01*
X11609705Y-16204650D02*
X11638277Y-16204650D01*
X11638277Y-16204650D02*
X11657324Y-16214174D01*
X11657324Y-16214174D02*
X11666848Y-16233222D01*
X11666848Y-16233222D02*
X11666848Y-16337984D01*
X11762086Y-16337984D02*
X11762086Y-16204650D01*
X11762086Y-16223698D02*
X11771610Y-16214174D01*
X11771610Y-16214174D02*
X11790658Y-16204650D01*
X11790658Y-16204650D02*
X11819229Y-16204650D01*
X11819229Y-16204650D02*
X11838277Y-16214174D01*
X11838277Y-16214174D02*
X11847801Y-16233222D01*
X11847801Y-16233222D02*
X11847801Y-16337984D01*
X11847801Y-16233222D02*
X11857324Y-16214174D01*
X11857324Y-16214174D02*
X11876372Y-16204650D01*
X11876372Y-16204650D02*
X11904943Y-16204650D01*
X11904943Y-16204650D02*
X11923991Y-16214174D01*
X11923991Y-16214174D02*
X11933515Y-16233222D01*
X11933515Y-16233222D02*
X11933515Y-16337984D01*
X12323991Y-16128460D02*
X12152563Y-16385603D01*
X12581134Y-16137984D02*
X12600182Y-16137984D01*
X12600182Y-16137984D02*
X12619229Y-16147508D01*
X12619229Y-16147508D02*
X12628753Y-16157031D01*
X12628753Y-16157031D02*
X12638277Y-16176079D01*
X12638277Y-16176079D02*
X12647801Y-16214174D01*
X12647801Y-16214174D02*
X12647801Y-16261793D01*
X12647801Y-16261793D02*
X12638277Y-16299888D01*
X12638277Y-16299888D02*
X12628753Y-16318936D01*
X12628753Y-16318936D02*
X12619229Y-16328460D01*
X12619229Y-16328460D02*
X12600182Y-16337984D01*
X12600182Y-16337984D02*
X12581134Y-16337984D01*
X12581134Y-16337984D02*
X12562086Y-16328460D01*
X12562086Y-16328460D02*
X12552563Y-16318936D01*
X12552563Y-16318936D02*
X12543039Y-16299888D01*
X12543039Y-16299888D02*
X12533515Y-16261793D01*
X12533515Y-16261793D02*
X12533515Y-16214174D01*
X12533515Y-16214174D02*
X12543039Y-16176079D01*
X12543039Y-16176079D02*
X12552563Y-16157031D01*
X12552563Y-16157031D02*
X12562086Y-16147508D01*
X12562086Y-16147508D02*
X12581134Y-16137984D01*
X12733515Y-16318936D02*
X12743039Y-16328460D01*
X12743039Y-16328460D02*
X12733515Y-16337984D01*
X12733515Y-16337984D02*
X12723991Y-16328460D01*
X12723991Y-16328460D02*
X12733515Y-16318936D01*
X12733515Y-16318936D02*
X12733515Y-16337984D01*
X12866848Y-16137984D02*
X12885896Y-16137984D01*
X12885896Y-16137984D02*
X12904944Y-16147508D01*
X12904944Y-16147508D02*
X12914467Y-16157031D01*
X12914467Y-16157031D02*
X12923991Y-16176079D01*
X12923991Y-16176079D02*
X12933515Y-16214174D01*
X12933515Y-16214174D02*
X12933515Y-16261793D01*
X12933515Y-16261793D02*
X12923991Y-16299888D01*
X12923991Y-16299888D02*
X12914467Y-16318936D01*
X12914467Y-16318936D02*
X12904944Y-16328460D01*
X12904944Y-16328460D02*
X12885896Y-16337984D01*
X12885896Y-16337984D02*
X12866848Y-16337984D01*
X12866848Y-16337984D02*
X12847801Y-16328460D01*
X12847801Y-16328460D02*
X12838277Y-16318936D01*
X12838277Y-16318936D02*
X12828753Y-16299888D01*
X12828753Y-16299888D02*
X12819229Y-16261793D01*
X12819229Y-16261793D02*
X12819229Y-16214174D01*
X12819229Y-16214174D02*
X12828753Y-16176079D01*
X12828753Y-16176079D02*
X12838277Y-16157031D01*
X12838277Y-16157031D02*
X12847801Y-16147508D01*
X12847801Y-16147508D02*
X12866848Y-16137984D01*
X13104944Y-16137984D02*
X13066848Y-16137984D01*
X13066848Y-16137984D02*
X13047801Y-16147508D01*
X13047801Y-16147508D02*
X13038277Y-16157031D01*
X13038277Y-16157031D02*
X13019229Y-16185603D01*
X13019229Y-16185603D02*
X13009706Y-16223698D01*
X13009706Y-16223698D02*
X13009706Y-16299888D01*
X13009706Y-16299888D02*
X13019229Y-16318936D01*
X13019229Y-16318936D02*
X13028753Y-16328460D01*
X13028753Y-16328460D02*
X13047801Y-16337984D01*
X13047801Y-16337984D02*
X13085896Y-16337984D01*
X13085896Y-16337984D02*
X13104944Y-16328460D01*
X13104944Y-16328460D02*
X13114467Y-16318936D01*
X13114467Y-16318936D02*
X13123991Y-16299888D01*
X13123991Y-16299888D02*
X13123991Y-16252269D01*
X13123991Y-16252269D02*
X13114467Y-16233222D01*
X13114467Y-16233222D02*
X13104944Y-16223698D01*
X13104944Y-16223698D02*
X13085896Y-16214174D01*
X13085896Y-16214174D02*
X13047801Y-16214174D01*
X13047801Y-16214174D02*
X13028753Y-16223698D01*
X13028753Y-16223698D02*
X13019229Y-16233222D01*
X13019229Y-16233222D02*
X13009706Y-16252269D01*
X13295420Y-16137984D02*
X13257325Y-16137984D01*
X13257325Y-16137984D02*
X13238277Y-16147508D01*
X13238277Y-16147508D02*
X13228753Y-16157031D01*
X13228753Y-16157031D02*
X13209706Y-16185603D01*
X13209706Y-16185603D02*
X13200182Y-16223698D01*
X13200182Y-16223698D02*
X13200182Y-16299888D01*
X13200182Y-16299888D02*
X13209706Y-16318936D01*
X13209706Y-16318936D02*
X13219229Y-16328460D01*
X13219229Y-16328460D02*
X13238277Y-16337984D01*
X13238277Y-16337984D02*
X13276372Y-16337984D01*
X13276372Y-16337984D02*
X13295420Y-16328460D01*
X13295420Y-16328460D02*
X13304944Y-16318936D01*
X13304944Y-16318936D02*
X13314467Y-16299888D01*
X13314467Y-16299888D02*
X13314467Y-16252269D01*
X13314467Y-16252269D02*
X13304944Y-16233222D01*
X13304944Y-16233222D02*
X13295420Y-16223698D01*
X13295420Y-16223698D02*
X13276372Y-16214174D01*
X13276372Y-16214174D02*
X13238277Y-16214174D01*
X13238277Y-16214174D02*
X13219229Y-16223698D01*
X13219229Y-16223698D02*
X13209706Y-16233222D01*
X13209706Y-16233222D02*
X13200182Y-16252269D01*
X13409706Y-16337984D02*
X13447801Y-16337984D01*
X13447801Y-16337984D02*
X13466848Y-16328460D01*
X13466848Y-16328460D02*
X13476372Y-16318936D01*
X13476372Y-16318936D02*
X13495420Y-16290365D01*
X13495420Y-16290365D02*
X13504944Y-16252269D01*
X13504944Y-16252269D02*
X13504944Y-16176079D01*
X13504944Y-16176079D02*
X13495420Y-16157031D01*
X13495420Y-16157031D02*
X13485896Y-16147508D01*
X13485896Y-16147508D02*
X13466848Y-16137984D01*
X13466848Y-16137984D02*
X13428753Y-16137984D01*
X13428753Y-16137984D02*
X13409706Y-16147508D01*
X13409706Y-16147508D02*
X13400182Y-16157031D01*
X13400182Y-16157031D02*
X13390658Y-16176079D01*
X13390658Y-16176079D02*
X13390658Y-16223698D01*
X13390658Y-16223698D02*
X13400182Y-16242746D01*
X13400182Y-16242746D02*
X13409706Y-16252269D01*
X13409706Y-16252269D02*
X13428753Y-16261793D01*
X13428753Y-16261793D02*
X13466848Y-16261793D01*
X13466848Y-16261793D02*
X13485896Y-16252269D01*
X13485896Y-16252269D02*
X13495420Y-16242746D01*
X13495420Y-16242746D02*
X13504944Y-16223698D01*
X13581134Y-16137984D02*
X13581134Y-16176079D01*
X13657325Y-16137984D02*
X13657325Y-16176079D01*
X13952563Y-16414174D02*
X13943039Y-16404650D01*
X13943039Y-16404650D02*
X13923991Y-16376079D01*
X13923991Y-16376079D02*
X13914468Y-16357031D01*
X13914468Y-16357031D02*
X13904944Y-16328460D01*
X13904944Y-16328460D02*
X13895420Y-16280841D01*
X13895420Y-16280841D02*
X13895420Y-16242746D01*
X13895420Y-16242746D02*
X13904944Y-16195127D01*
X13904944Y-16195127D02*
X13914468Y-16166555D01*
X13914468Y-16166555D02*
X13923991Y-16147508D01*
X13923991Y-16147508D02*
X13943039Y-16118936D01*
X13943039Y-16118936D02*
X13952563Y-16109412D01*
X14123991Y-16137984D02*
X14028753Y-16137984D01*
X14028753Y-16137984D02*
X14019229Y-16233222D01*
X14019229Y-16233222D02*
X14028753Y-16223698D01*
X14028753Y-16223698D02*
X14047801Y-16214174D01*
X14047801Y-16214174D02*
X14095420Y-16214174D01*
X14095420Y-16214174D02*
X14114468Y-16223698D01*
X14114468Y-16223698D02*
X14123991Y-16233222D01*
X14123991Y-16233222D02*
X14133515Y-16252269D01*
X14133515Y-16252269D02*
X14133515Y-16299888D01*
X14133515Y-16299888D02*
X14123991Y-16318936D01*
X14123991Y-16318936D02*
X14114468Y-16328460D01*
X14114468Y-16328460D02*
X14095420Y-16337984D01*
X14095420Y-16337984D02*
X14047801Y-16337984D01*
X14047801Y-16337984D02*
X14028753Y-16328460D01*
X14028753Y-16328460D02*
X14019229Y-16318936D01*
X14371610Y-16337984D02*
X14371610Y-16137984D01*
X14457325Y-16337984D02*
X14457325Y-16233222D01*
X14457325Y-16233222D02*
X14447801Y-16214174D01*
X14447801Y-16214174D02*
X14428753Y-16204650D01*
X14428753Y-16204650D02*
X14400182Y-16204650D01*
X14400182Y-16204650D02*
X14381134Y-16214174D01*
X14381134Y-16214174D02*
X14371610Y-16223698D01*
X14581134Y-16337984D02*
X14562087Y-16328460D01*
X14562087Y-16328460D02*
X14552563Y-16318936D01*
X14552563Y-16318936D02*
X14543039Y-16299888D01*
X14543039Y-16299888D02*
X14543039Y-16242746D01*
X14543039Y-16242746D02*
X14552563Y-16223698D01*
X14552563Y-16223698D02*
X14562087Y-16214174D01*
X14562087Y-16214174D02*
X14581134Y-16204650D01*
X14581134Y-16204650D02*
X14609706Y-16204650D01*
X14609706Y-16204650D02*
X14628753Y-16214174D01*
X14628753Y-16214174D02*
X14638277Y-16223698D01*
X14638277Y-16223698D02*
X14647801Y-16242746D01*
X14647801Y-16242746D02*
X14647801Y-16299888D01*
X14647801Y-16299888D02*
X14638277Y-16318936D01*
X14638277Y-16318936D02*
X14628753Y-16328460D01*
X14628753Y-16328460D02*
X14609706Y-16337984D01*
X14609706Y-16337984D02*
X14581134Y-16337984D01*
X14762087Y-16337984D02*
X14743039Y-16328460D01*
X14743039Y-16328460D02*
X14733515Y-16309412D01*
X14733515Y-16309412D02*
X14733515Y-16137984D01*
X14914468Y-16328460D02*
X14895420Y-16337984D01*
X14895420Y-16337984D02*
X14857325Y-16337984D01*
X14857325Y-16337984D02*
X14838277Y-16328460D01*
X14838277Y-16328460D02*
X14828753Y-16309412D01*
X14828753Y-16309412D02*
X14828753Y-16233222D01*
X14828753Y-16233222D02*
X14838277Y-16214174D01*
X14838277Y-16214174D02*
X14857325Y-16204650D01*
X14857325Y-16204650D02*
X14895420Y-16204650D01*
X14895420Y-16204650D02*
X14914468Y-16214174D01*
X14914468Y-16214174D02*
X14923991Y-16233222D01*
X14923991Y-16233222D02*
X14923991Y-16252269D01*
X14923991Y-16252269D02*
X14828753Y-16271317D01*
X15000182Y-16328460D02*
X15019230Y-16337984D01*
X15019230Y-16337984D02*
X15057325Y-16337984D01*
X15057325Y-16337984D02*
X15076372Y-16328460D01*
X15076372Y-16328460D02*
X15085896Y-16309412D01*
X15085896Y-16309412D02*
X15085896Y-16299888D01*
X15085896Y-16299888D02*
X15076372Y-16280841D01*
X15076372Y-16280841D02*
X15057325Y-16271317D01*
X15057325Y-16271317D02*
X15028753Y-16271317D01*
X15028753Y-16271317D02*
X15009706Y-16261793D01*
X15009706Y-16261793D02*
X15000182Y-16242746D01*
X15000182Y-16242746D02*
X15000182Y-16233222D01*
X15000182Y-16233222D02*
X15009706Y-16214174D01*
X15009706Y-16214174D02*
X15028753Y-16204650D01*
X15028753Y-16204650D02*
X15057325Y-16204650D01*
X15057325Y-16204650D02*
X15076372Y-16214174D01*
X15152563Y-16414174D02*
X15162087Y-16404650D01*
X15162087Y-16404650D02*
X15181134Y-16376079D01*
X15181134Y-16376079D02*
X15190658Y-16357031D01*
X15190658Y-16357031D02*
X15200182Y-16328460D01*
X15200182Y-16328460D02*
X15209706Y-16280841D01*
X15209706Y-16280841D02*
X15209706Y-16242746D01*
X15209706Y-16242746D02*
X15200182Y-16195127D01*
X15200182Y-16195127D02*
X15190658Y-16166555D01*
X15190658Y-16166555D02*
X15181134Y-16147508D01*
X15181134Y-16147508D02*
X15162087Y-16118936D01*
X15162087Y-16118936D02*
X15152563Y-16109412D01*
M02*
