M48
; DRILL file {KiCad 8.0.7-8.0.7-0~ubuntu22.04.1} date 2024-12-29T11:33:38+0100
; FORMAT={-:-/ absolute / inch / decimal}
; #@! TF.CreationDate,2024-12-29T11:33:38+01:00
; #@! TF.GenerationSoftware,Kicad,Pcbnew,8.0.7-8.0.7-0~ubuntu22.04.1
; #@! TF.FileFunction,Plated,1,2,PTH
FMAT,2
INCH
; #@! TA.AperFunction,Plated,PTH,ViaDrill
T1C0.0118
; #@! TA.AperFunction,Plated,PTH,ViaDrill
T2C0.0236
; #@! TA.AperFunction,Plated,PTH,ComponentDrill
T3C0.0276
; #@! TA.AperFunction,Plated,PTH,ComponentDrill
T4C0.0300
; #@! TA.AperFunction,Plated,PTH,ComponentDrill
T5C0.0394
; #@! TA.AperFunction,Plated,PTH,ComponentDrill
T6C0.0472
; #@! TA.AperFunction,Plated,PTH,ComponentDrill
T7C0.0669
%
G90
G05
T1
X4.499Y-4.8031
X4.499Y-4.8809
X4.5Y-4.7382
X4.501Y-3.2608
X4.501Y-4.6644
X4.502Y-3.3484
X4.502Y-3.4882
X4.502Y-3.6663
X4.502Y-4.6043
X4.503Y-3.564
X4.503Y-3.8091
X4.503Y-3.9567
X4.503Y-4.0699
X4.503Y-4.2313
X4.503Y-4.3366
X4.503Y-4.5177
X4.6358Y-3.8553
X4.6909Y-3.6417
X4.6949Y-3.3484
X4.6949Y-4.5965
X4.6949Y-4.6949
X4.6969Y-4.125
X4.6978Y-4.0482
X4.6978Y-4.3051
X4.6978Y-4.378
X4.7943Y-3.873
X4.7992Y-3.6604
X4.8051Y-3.6988
X4.8416Y-4.4794
X4.8465Y-4.5551
X4.8632Y-3.6988
X4.9055Y-3.5138
X4.9134Y-4.2913
X5.0128Y-3.9734
X5.0197Y-3.5827
X5.0551Y-4.4449
X5.0945Y-4.4449
X5.1024Y-3.6772
X5.1102Y-3.5827
X5.1122Y-3.0709
X5.1152Y-4.1004
X5.1358Y-3.3346
X5.1496Y-3.5827
X5.1496Y-3.7126
X5.1535Y-4.5433
X5.1555Y-3.9734
X5.1772Y-4.4301
X5.1811Y-3.5591
X5.1811Y-3.6535
X5.1831Y-3.1594
X5.189Y-2.9921
X5.2323Y-4.6093
X5.252Y-3.378
X5.252Y-3.437
X5.253Y-4.1024
X5.2638Y-4.7382
X5.2697Y-3.0787
X5.2697Y-3.1289
X5.2835Y-3.2697
X5.2835Y-3.4724
X5.2835Y-4.0344
X5.2913Y-4.0827
X5.3031Y-3.1024
X5.3189Y-3.4134
X5.3189Y-4.0591
X5.3346Y-3.0571
X5.3504Y-3.4508
X5.3504Y-3.498
X5.3504Y-4.0128
X5.3701Y-4.3189
X5.3819Y-2.9902
X5.3862Y-3.5231
X5.4154Y-3.1575
X5.7539Y-2.9882
X5.7835Y-3.9173
X5.8898Y-4.1693
X5.8937Y-3.9685
X5.9803Y-2.9882
X6.0Y-4.0709
X6.1358Y-3.5157
X6.1693Y-3.3209
X6.1713Y-4.372
X6.3543Y-3.5157
X6.4665Y-2.9764
X6.5768Y-4.1752
X6.6417Y-4.1142
X6.6565Y-4.6024
X6.6732Y-3.0276
X6.6732Y-3.185
X6.6732Y-3.2638
X6.6742Y-3.1093
X6.7146Y-3.5394
X6.7224Y-4.3976
X6.7411Y-3.4311
X6.7839Y-3.4681
X6.7937Y-3.8272
X6.8327Y-3.6713
X6.8327Y-3.7717
X6.835Y-3.8807
X6.9636Y-3.0256
X7.0423Y-4.436
X7.0433Y-4.1516
X7.0433Y-4.2933
X7.063Y-3.5177
X7.0823Y-3.8
X7.0866Y-3.0827
X7.0925Y-3.4941
X7.1075Y-3.8807
X7.1181Y-3.3504
X7.1417Y-3.3012
X7.1417Y-3.8272
X7.1713Y-3.7988
X7.2106Y-3.3012
X7.2126Y-3.3504
X7.2736Y-2.9587
X7.2933Y-3.9252
X7.2937Y-3.8252
X7.3031Y-3.5768
X7.3602Y-3.6713
X7.3957Y-3.7717
X7.436Y-3.877
X7.4429Y-3.7894
X7.6752Y-3.7894
T2
X5.9941Y-4.7431
X7.5787Y-4.5541
T3
X4.8848Y-4.9793
X4.8858Y-4.8593
X4.9469Y-3.0138
X4.9469Y-3.1319
X4.9872Y-4.9793
X4.9882Y-4.8593
X5.0551Y-3.0138
X5.0551Y-3.1319
T4
X5.5343Y-3.3681
X5.5343Y-3.4681
X5.5343Y-3.5681
X5.5343Y-3.6681
X5.5343Y-3.7681
X5.5343Y-3.8681
X5.5343Y-3.9681
X5.5343Y-4.0681
X5.5343Y-4.1681
X5.5343Y-4.2681
X5.5343Y-4.3681
X5.5343Y-4.4681
X5.5343Y-4.5681
X6.4343Y-3.3681
X6.4343Y-3.4681
X6.4343Y-3.5681
X6.4343Y-3.6681
X6.4343Y-3.7681
X6.4343Y-3.8681
X6.4343Y-3.9681
X6.4343Y-4.0681
X6.4343Y-4.1681
X6.4343Y-4.2681
X6.4343Y-4.3681
X6.4343Y-4.4681
X6.4343Y-4.5681
T5
X5.6138Y-2.2264
X5.6138Y-2.6264
X5.6138Y-2.7264
X5.9138Y-2.2264
X5.9138Y-2.6264
X5.9138Y-2.7264
X6.098Y-2.2264
X6.098Y-2.6264
X6.098Y-2.7264
X6.398Y-2.2264
X6.398Y-2.6264
X6.398Y-2.7264
X6.5862Y-2.2283
X6.5862Y-2.6283
X6.5862Y-2.7283
X6.7638Y-4.9429
X6.7642Y-4.7429
X6.8862Y-2.2283
X6.8862Y-2.6283
X6.8862Y-2.7283
X7.0744Y-2.2303
X7.0744Y-2.6303
X7.0744Y-2.7303
X7.3504Y-4.0146
X7.3504Y-4.1146
X7.3504Y-4.2146
X7.3504Y-4.3146
X7.3504Y-4.4146
X7.3744Y-2.2303
X7.3744Y-2.6303
X7.3744Y-2.7303
X7.5256Y-2.9465
X7.5256Y-3.0465
X7.5256Y-3.1465
X7.5256Y-3.2465
X7.5256Y-3.3465
X7.5256Y-3.5394
X7.5256Y-3.6394
X7.5256Y-3.7394
X7.5256Y-3.8394
X7.5256Y-4.0146
X7.5256Y-4.1146
X7.5256Y-4.2146
X7.5256Y-4.3146
X7.5256Y-4.4146
T6
X4.3917Y-3.3238
X4.3917Y-3.4616
X4.3917Y-3.6004
X4.3917Y-3.7382
X4.3917Y-3.873
X4.3917Y-4.0108
X4.3917Y-4.1496
X4.3917Y-4.2874
X4.3917Y-4.4262
X4.3917Y-4.564
X4.3917Y-4.7018
X4.3917Y-4.8396
X4.7516Y-2.0236
X4.9484Y-2.6339
X5.1453Y-2.6339
X5.3421Y-2.0236
X5.6161Y-2.0344
X5.7539Y-2.0344
X5.8917Y-2.0344
X6.1024Y-2.0364
X6.2402Y-2.0364
X6.378Y-2.0364
X6.5994Y-2.0335
X6.7372Y-2.0335
X6.875Y-2.0335
X7.0906Y-2.0325
X7.2283Y-2.0325
X7.3661Y-2.0325
T7
X4.3169Y-2.2235
X4.3169Y-2.4204
X4.3169Y-2.6172
X6.6594Y-5.2224
X6.8563Y-5.2224
T5
G00X7.1437Y-4.9429
M15
G01X7.2461Y-4.9429
M16
G05
G00X7.1516Y-5.1909
M15
G01X7.2382Y-5.1909
M16
G05
G00X7.3839Y-5.0138
M15
G01X7.3839Y-5.1004
M16
G05
M30
