%TF.GenerationSoftware,KiCad,Pcbnew,8.0.7-8.0.7-0~ubuntu22.04.1*%
%TF.CreationDate,2024-12-29T11:33:44+01:00*%
%TF.ProjectId,monitor_consumo,6d6f6e69-746f-4725-9f63-6f6e73756d6f,rev?*%
%TF.SameCoordinates,Original*%
%TF.FileFunction,Legend,Bot*%
%TF.FilePolarity,Positive*%
%FSLAX46Y46*%
G04 Gerber Fmt 4.6, Leading zero omitted, Abs format (unit mm)*
G04 Created by KiCad (PCBNEW 8.0.7-8.0.7-0~ubuntu22.04.1) date 2024-12-29 11:33:44*
%MOMM*%
%LPD*%
G01*
G04 APERTURE LIST*
%ADD10C,0.200000*%
%ADD11C,0.300000*%
G04 APERTURE END LIST*
D10*
X125050564Y-127967219D02*
X124383898Y-127967219D01*
X124383898Y-127967219D02*
X125050564Y-128967219D01*
X125050564Y-128967219D02*
X124383898Y-128967219D01*
X124098183Y-127967219D02*
X123431517Y-128967219D01*
X123431517Y-127967219D02*
X124098183Y-128967219D01*
X122860088Y-127967219D02*
X122764850Y-127967219D01*
X122764850Y-127967219D02*
X122669612Y-128014838D01*
X122669612Y-128014838D02*
X122621993Y-128062457D01*
X122621993Y-128062457D02*
X122574374Y-128157695D01*
X122574374Y-128157695D02*
X122526755Y-128348171D01*
X122526755Y-128348171D02*
X122526755Y-128586266D01*
X122526755Y-128586266D02*
X122574374Y-128776742D01*
X122574374Y-128776742D02*
X122621993Y-128871980D01*
X122621993Y-128871980D02*
X122669612Y-128919600D01*
X122669612Y-128919600D02*
X122764850Y-128967219D01*
X122764850Y-128967219D02*
X122860088Y-128967219D01*
X122860088Y-128967219D02*
X122955326Y-128919600D01*
X122955326Y-128919600D02*
X123002945Y-128871980D01*
X123002945Y-128871980D02*
X123050564Y-128776742D01*
X123050564Y-128776742D02*
X123098183Y-128586266D01*
X123098183Y-128586266D02*
X123098183Y-128348171D01*
X123098183Y-128348171D02*
X123050564Y-128157695D01*
X123050564Y-128157695D02*
X123002945Y-128062457D01*
X123002945Y-128062457D02*
X122955326Y-128014838D01*
X122955326Y-128014838D02*
X122860088Y-127967219D01*
X128555326Y-128992219D02*
X128555326Y-127992219D01*
X127412470Y-129087457D02*
X127507708Y-129039838D01*
X127507708Y-129039838D02*
X127602946Y-128944600D01*
X127602946Y-128944600D02*
X127745803Y-128801742D01*
X127745803Y-128801742D02*
X127841041Y-128754123D01*
X127841041Y-128754123D02*
X127936279Y-128754123D01*
X127888660Y-128992219D02*
X127983898Y-128944600D01*
X127983898Y-128944600D02*
X128079136Y-128849361D01*
X128079136Y-128849361D02*
X128126755Y-128658885D01*
X128126755Y-128658885D02*
X128126755Y-128325552D01*
X128126755Y-128325552D02*
X128079136Y-128135076D01*
X128079136Y-128135076D02*
X127983898Y-128039838D01*
X127983898Y-128039838D02*
X127888660Y-127992219D01*
X127888660Y-127992219D02*
X127698184Y-127992219D01*
X127698184Y-127992219D02*
X127602946Y-128039838D01*
X127602946Y-128039838D02*
X127507708Y-128135076D01*
X127507708Y-128135076D02*
X127460089Y-128325552D01*
X127460089Y-128325552D02*
X127460089Y-128658885D01*
X127460089Y-128658885D02*
X127507708Y-128849361D01*
X127507708Y-128849361D02*
X127602946Y-128944600D01*
X127602946Y-128944600D02*
X127698184Y-128992219D01*
X127698184Y-128992219D02*
X127888660Y-128992219D01*
X126460089Y-128992219D02*
X126793422Y-128516028D01*
X127031517Y-128992219D02*
X127031517Y-127992219D01*
X127031517Y-127992219D02*
X126650565Y-127992219D01*
X126650565Y-127992219D02*
X126555327Y-128039838D01*
X126555327Y-128039838D02*
X126507708Y-128087457D01*
X126507708Y-128087457D02*
X126460089Y-128182695D01*
X126460089Y-128182695D02*
X126460089Y-128325552D01*
X126460089Y-128325552D02*
X126507708Y-128420790D01*
X126507708Y-128420790D02*
X126555327Y-128468409D01*
X126555327Y-128468409D02*
X126650565Y-128516028D01*
X126650565Y-128516028D02*
X127031517Y-128516028D01*
X125841041Y-127992219D02*
X125745803Y-127992219D01*
X125745803Y-127992219D02*
X125650565Y-128039838D01*
X125650565Y-128039838D02*
X125602946Y-128087457D01*
X125602946Y-128087457D02*
X125555327Y-128182695D01*
X125555327Y-128182695D02*
X125507708Y-128373171D01*
X125507708Y-128373171D02*
X125507708Y-128611266D01*
X125507708Y-128611266D02*
X125555327Y-128801742D01*
X125555327Y-128801742D02*
X125602946Y-128896980D01*
X125602946Y-128896980D02*
X125650565Y-128944600D01*
X125650565Y-128944600D02*
X125745803Y-128992219D01*
X125745803Y-128992219D02*
X125841041Y-128992219D01*
X125841041Y-128992219D02*
X125936279Y-128944600D01*
X125936279Y-128944600D02*
X125983898Y-128896980D01*
X125983898Y-128896980D02*
X126031517Y-128801742D01*
X126031517Y-128801742D02*
X126079136Y-128611266D01*
X126079136Y-128611266D02*
X126079136Y-128373171D01*
X126079136Y-128373171D02*
X126031517Y-128182695D01*
X126031517Y-128182695D02*
X125983898Y-128087457D01*
X125983898Y-128087457D02*
X125936279Y-128039838D01*
X125936279Y-128039838D02*
X125841041Y-127992219D01*
X129860326Y-75187219D02*
X129860326Y-74187219D01*
X128812708Y-75187219D02*
X129146041Y-74711028D01*
X129384136Y-75187219D02*
X129384136Y-74187219D01*
X129384136Y-74187219D02*
X129003184Y-74187219D01*
X129003184Y-74187219D02*
X128907946Y-74234838D01*
X128907946Y-74234838D02*
X128860327Y-74282457D01*
X128860327Y-74282457D02*
X128812708Y-74377695D01*
X128812708Y-74377695D02*
X128812708Y-74520552D01*
X128812708Y-74520552D02*
X128860327Y-74615790D01*
X128860327Y-74615790D02*
X128907946Y-74663409D01*
X128907946Y-74663409D02*
X129003184Y-74711028D01*
X129003184Y-74711028D02*
X129384136Y-74711028D01*
X127717470Y-75282457D02*
X127812708Y-75234838D01*
X127812708Y-75234838D02*
X127907946Y-75139600D01*
X127907946Y-75139600D02*
X128050803Y-74996742D01*
X128050803Y-74996742D02*
X128146041Y-74949123D01*
X128146041Y-74949123D02*
X128241279Y-74949123D01*
X128193660Y-75187219D02*
X128288898Y-75139600D01*
X128288898Y-75139600D02*
X128384136Y-75044361D01*
X128384136Y-75044361D02*
X128431755Y-74853885D01*
X128431755Y-74853885D02*
X128431755Y-74520552D01*
X128431755Y-74520552D02*
X128384136Y-74330076D01*
X128384136Y-74330076D02*
X128288898Y-74234838D01*
X128288898Y-74234838D02*
X128193660Y-74187219D01*
X128193660Y-74187219D02*
X128003184Y-74187219D01*
X128003184Y-74187219D02*
X127907946Y-74234838D01*
X127907946Y-74234838D02*
X127812708Y-74330076D01*
X127812708Y-74330076D02*
X127765089Y-74520552D01*
X127765089Y-74520552D02*
X127765089Y-74853885D01*
X127765089Y-74853885D02*
X127812708Y-75044361D01*
X127812708Y-75044361D02*
X127907946Y-75139600D01*
X127907946Y-75139600D02*
X128003184Y-75187219D01*
X128003184Y-75187219D02*
X128193660Y-75187219D01*
X127146041Y-74187219D02*
X127050803Y-74187219D01*
X127050803Y-74187219D02*
X126955565Y-74234838D01*
X126955565Y-74234838D02*
X126907946Y-74282457D01*
X126907946Y-74282457D02*
X126860327Y-74377695D01*
X126860327Y-74377695D02*
X126812708Y-74568171D01*
X126812708Y-74568171D02*
X126812708Y-74806266D01*
X126812708Y-74806266D02*
X126860327Y-74996742D01*
X126860327Y-74996742D02*
X126907946Y-75091980D01*
X126907946Y-75091980D02*
X126955565Y-75139600D01*
X126955565Y-75139600D02*
X127050803Y-75187219D01*
X127050803Y-75187219D02*
X127146041Y-75187219D01*
X127146041Y-75187219D02*
X127241279Y-75139600D01*
X127241279Y-75139600D02*
X127288898Y-75091980D01*
X127288898Y-75091980D02*
X127336517Y-74996742D01*
X127336517Y-74996742D02*
X127384136Y-74806266D01*
X127384136Y-74806266D02*
X127384136Y-74568171D01*
X127384136Y-74568171D02*
X127336517Y-74377695D01*
X127336517Y-74377695D02*
X127288898Y-74282457D01*
X127288898Y-74282457D02*
X127241279Y-74234838D01*
X127241279Y-74234838D02*
X127146041Y-74187219D01*
X126245564Y-74187219D02*
X125578898Y-74187219D01*
X125578898Y-74187219D02*
X126245564Y-75187219D01*
X126245564Y-75187219D02*
X125578898Y-75187219D01*
X125293183Y-74187219D02*
X124626517Y-75187219D01*
X124626517Y-74187219D02*
X125293183Y-75187219D01*
X124055088Y-74187219D02*
X123959850Y-74187219D01*
X123959850Y-74187219D02*
X123864612Y-74234838D01*
X123864612Y-74234838D02*
X123816993Y-74282457D01*
X123816993Y-74282457D02*
X123769374Y-74377695D01*
X123769374Y-74377695D02*
X123721755Y-74568171D01*
X123721755Y-74568171D02*
X123721755Y-74806266D01*
X123721755Y-74806266D02*
X123769374Y-74996742D01*
X123769374Y-74996742D02*
X123816993Y-75091980D01*
X123816993Y-75091980D02*
X123864612Y-75139600D01*
X123864612Y-75139600D02*
X123959850Y-75187219D01*
X123959850Y-75187219D02*
X124055088Y-75187219D01*
X124055088Y-75187219D02*
X124150326Y-75139600D01*
X124150326Y-75139600D02*
X124197945Y-75091980D01*
X124197945Y-75091980D02*
X124245564Y-74996742D01*
X124245564Y-74996742D02*
X124293183Y-74806266D01*
X124293183Y-74806266D02*
X124293183Y-74568171D01*
X124293183Y-74568171D02*
X124245564Y-74377695D01*
X124245564Y-74377695D02*
X124197945Y-74282457D01*
X124197945Y-74282457D02*
X124150326Y-74234838D01*
X124150326Y-74234838D02*
X124055088Y-74187219D01*
X124980326Y-122192219D02*
X124980326Y-121192219D01*
X124504136Y-122192219D02*
X124504136Y-121192219D01*
X124504136Y-121192219D02*
X123932708Y-122192219D01*
X123932708Y-122192219D02*
X123932708Y-121192219D01*
X123456517Y-122192219D02*
X123456517Y-121192219D01*
X123456517Y-121192219D02*
X123075565Y-121192219D01*
X123075565Y-121192219D02*
X122980327Y-121239838D01*
X122980327Y-121239838D02*
X122932708Y-121287457D01*
X122932708Y-121287457D02*
X122885089Y-121382695D01*
X122885089Y-121382695D02*
X122885089Y-121525552D01*
X122885089Y-121525552D02*
X122932708Y-121620790D01*
X122932708Y-121620790D02*
X122980327Y-121668409D01*
X122980327Y-121668409D02*
X123075565Y-121716028D01*
X123075565Y-121716028D02*
X123456517Y-121716028D01*
D11*
X132491917Y-48543685D02*
X132420489Y-48472257D01*
X132420489Y-48472257D02*
X132277632Y-48400828D01*
X132277632Y-48400828D02*
X131920489Y-48400828D01*
X131920489Y-48400828D02*
X131777632Y-48472257D01*
X131777632Y-48472257D02*
X131706203Y-48543685D01*
X131706203Y-48543685D02*
X131634774Y-48686542D01*
X131634774Y-48686542D02*
X131634774Y-48829400D01*
X131634774Y-48829400D02*
X131706203Y-49043685D01*
X131706203Y-49043685D02*
X132563346Y-49900828D01*
X132563346Y-49900828D02*
X131634774Y-49900828D01*
X131134775Y-48400828D02*
X130206203Y-48400828D01*
X130206203Y-48400828D02*
X130706203Y-48972257D01*
X130706203Y-48972257D02*
X130491918Y-48972257D01*
X130491918Y-48972257D02*
X130349061Y-49043685D01*
X130349061Y-49043685D02*
X130277632Y-49115114D01*
X130277632Y-49115114D02*
X130206203Y-49257971D01*
X130206203Y-49257971D02*
X130206203Y-49615114D01*
X130206203Y-49615114D02*
X130277632Y-49757971D01*
X130277632Y-49757971D02*
X130349061Y-49829400D01*
X130349061Y-49829400D02*
X130491918Y-49900828D01*
X130491918Y-49900828D02*
X130920489Y-49900828D01*
X130920489Y-49900828D02*
X131063346Y-49829400D01*
X131063346Y-49829400D02*
X131134775Y-49757971D01*
X129277632Y-48400828D02*
X129134775Y-48400828D01*
X129134775Y-48400828D02*
X128991918Y-48472257D01*
X128991918Y-48472257D02*
X128920490Y-48543685D01*
X128920490Y-48543685D02*
X128849061Y-48686542D01*
X128849061Y-48686542D02*
X128777632Y-48972257D01*
X128777632Y-48972257D02*
X128777632Y-49329400D01*
X128777632Y-49329400D02*
X128849061Y-49615114D01*
X128849061Y-49615114D02*
X128920490Y-49757971D01*
X128920490Y-49757971D02*
X128991918Y-49829400D01*
X128991918Y-49829400D02*
X129134775Y-49900828D01*
X129134775Y-49900828D02*
X129277632Y-49900828D01*
X129277632Y-49900828D02*
X129420490Y-49829400D01*
X129420490Y-49829400D02*
X129491918Y-49757971D01*
X129491918Y-49757971D02*
X129563347Y-49615114D01*
X129563347Y-49615114D02*
X129634775Y-49329400D01*
X129634775Y-49329400D02*
X129634775Y-48972257D01*
X129634775Y-48972257D02*
X129563347Y-48686542D01*
X129563347Y-48686542D02*
X129491918Y-48543685D01*
X129491918Y-48543685D02*
X129420490Y-48472257D01*
X129420490Y-48472257D02*
X129277632Y-48400828D01*
X128349061Y-48400828D02*
X127849061Y-49900828D01*
X127849061Y-49900828D02*
X127349061Y-48400828D01*
X125777633Y-49472257D02*
X125063348Y-49472257D01*
X125920490Y-49900828D02*
X125420490Y-48400828D01*
X125420490Y-48400828D02*
X124920490Y-49900828D01*
X123563348Y-49757971D02*
X123634776Y-49829400D01*
X123634776Y-49829400D02*
X123849062Y-49900828D01*
X123849062Y-49900828D02*
X123991919Y-49900828D01*
X123991919Y-49900828D02*
X124206205Y-49829400D01*
X124206205Y-49829400D02*
X124349062Y-49686542D01*
X124349062Y-49686542D02*
X124420491Y-49543685D01*
X124420491Y-49543685D02*
X124491919Y-49257971D01*
X124491919Y-49257971D02*
X124491919Y-49043685D01*
X124491919Y-49043685D02*
X124420491Y-48757971D01*
X124420491Y-48757971D02*
X124349062Y-48615114D01*
X124349062Y-48615114D02*
X124206205Y-48472257D01*
X124206205Y-48472257D02*
X123991919Y-48400828D01*
X123991919Y-48400828D02*
X123849062Y-48400828D01*
X123849062Y-48400828D02*
X123634776Y-48472257D01*
X123634776Y-48472257D02*
X123563348Y-48543685D01*
D10*
X126530326Y-82047219D02*
X126530326Y-81047219D01*
X126054136Y-82047219D02*
X126054136Y-81047219D01*
X126054136Y-81047219D02*
X125482708Y-82047219D01*
X125482708Y-82047219D02*
X125482708Y-81047219D01*
X125006517Y-82047219D02*
X125006517Y-81047219D01*
X125006517Y-81047219D02*
X124625565Y-81047219D01*
X124625565Y-81047219D02*
X124530327Y-81094838D01*
X124530327Y-81094838D02*
X124482708Y-81142457D01*
X124482708Y-81142457D02*
X124435089Y-81237695D01*
X124435089Y-81237695D02*
X124435089Y-81380552D01*
X124435089Y-81380552D02*
X124482708Y-81475790D01*
X124482708Y-81475790D02*
X124530327Y-81523409D01*
X124530327Y-81523409D02*
X124625565Y-81571028D01*
X124625565Y-81571028D02*
X125006517Y-81571028D01*
X129360326Y-81847219D02*
X129360326Y-80847219D01*
X128884136Y-81847219D02*
X128884136Y-80847219D01*
X128884136Y-80847219D02*
X128312708Y-81847219D01*
X128312708Y-81847219D02*
X128312708Y-80847219D01*
X127836517Y-81847219D02*
X127836517Y-80847219D01*
X127836517Y-80847219D02*
X127265089Y-81847219D01*
X127265089Y-81847219D02*
X127265089Y-80847219D01*
D11*
X115945996Y-78804510D02*
X114445996Y-78804510D01*
X114945996Y-79304511D02*
X114945996Y-79875939D01*
X115945996Y-79518796D02*
X114660282Y-79518796D01*
X114660282Y-79518796D02*
X114517425Y-79590225D01*
X114517425Y-79590225D02*
X114445996Y-79733082D01*
X114445996Y-79733082D02*
X114445996Y-79875939D01*
X114945996Y-81304511D02*
X114945996Y-81875939D01*
X114445996Y-81518796D02*
X115731710Y-81518796D01*
X115731710Y-81518796D02*
X115874568Y-81590225D01*
X115874568Y-81590225D02*
X115945996Y-81733082D01*
X115945996Y-81733082D02*
X115945996Y-81875939D01*
X115945996Y-82375939D02*
X114445996Y-82375939D01*
X115945996Y-83018797D02*
X115160282Y-83018797D01*
X115160282Y-83018797D02*
X115017425Y-82947368D01*
X115017425Y-82947368D02*
X114945996Y-82804511D01*
X114945996Y-82804511D02*
X114945996Y-82590225D01*
X114945996Y-82590225D02*
X115017425Y-82447368D01*
X115017425Y-82447368D02*
X115088853Y-82375939D01*
X115874568Y-84304511D02*
X115945996Y-84161654D01*
X115945996Y-84161654D02*
X115945996Y-83875940D01*
X115945996Y-83875940D02*
X115874568Y-83733082D01*
X115874568Y-83733082D02*
X115731710Y-83661654D01*
X115731710Y-83661654D02*
X115160282Y-83661654D01*
X115160282Y-83661654D02*
X115017425Y-83733082D01*
X115017425Y-83733082D02*
X114945996Y-83875940D01*
X114945996Y-83875940D02*
X114945996Y-84161654D01*
X114945996Y-84161654D02*
X115017425Y-84304511D01*
X115017425Y-84304511D02*
X115160282Y-84375940D01*
X115160282Y-84375940D02*
X115303139Y-84375940D01*
X115303139Y-84375940D02*
X115445996Y-83661654D01*
X115874568Y-86804511D02*
X115945996Y-86661653D01*
X115945996Y-86661653D02*
X115945996Y-86375939D01*
X115945996Y-86375939D02*
X115874568Y-86233082D01*
X115874568Y-86233082D02*
X115803139Y-86161653D01*
X115803139Y-86161653D02*
X115660282Y-86090225D01*
X115660282Y-86090225D02*
X115231710Y-86090225D01*
X115231710Y-86090225D02*
X115088853Y-86161653D01*
X115088853Y-86161653D02*
X115017425Y-86233082D01*
X115017425Y-86233082D02*
X114945996Y-86375939D01*
X114945996Y-86375939D02*
X114945996Y-86661653D01*
X114945996Y-86661653D02*
X115017425Y-86804511D01*
X114945996Y-88090225D02*
X115945996Y-88090225D01*
X114945996Y-87447367D02*
X115731710Y-87447367D01*
X115731710Y-87447367D02*
X115874568Y-87518796D01*
X115874568Y-87518796D02*
X115945996Y-87661653D01*
X115945996Y-87661653D02*
X115945996Y-87875939D01*
X115945996Y-87875939D02*
X115874568Y-88018796D01*
X115874568Y-88018796D02*
X115803139Y-88090225D01*
X115945996Y-88804510D02*
X114945996Y-88804510D01*
X115231710Y-88804510D02*
X115088853Y-88875939D01*
X115088853Y-88875939D02*
X115017425Y-88947368D01*
X115017425Y-88947368D02*
X114945996Y-89090225D01*
X114945996Y-89090225D02*
X114945996Y-89233082D01*
X115945996Y-89733081D02*
X114945996Y-89733081D01*
X115231710Y-89733081D02*
X115088853Y-89804510D01*
X115088853Y-89804510D02*
X115017425Y-89875939D01*
X115017425Y-89875939D02*
X114945996Y-90018796D01*
X114945996Y-90018796D02*
X114945996Y-90161653D01*
X115874568Y-91233081D02*
X115945996Y-91090224D01*
X115945996Y-91090224D02*
X115945996Y-90804510D01*
X115945996Y-90804510D02*
X115874568Y-90661652D01*
X115874568Y-90661652D02*
X115731710Y-90590224D01*
X115731710Y-90590224D02*
X115160282Y-90590224D01*
X115160282Y-90590224D02*
X115017425Y-90661652D01*
X115017425Y-90661652D02*
X114945996Y-90804510D01*
X114945996Y-90804510D02*
X114945996Y-91090224D01*
X114945996Y-91090224D02*
X115017425Y-91233081D01*
X115017425Y-91233081D02*
X115160282Y-91304510D01*
X115160282Y-91304510D02*
X115303139Y-91304510D01*
X115303139Y-91304510D02*
X115445996Y-90590224D01*
X114945996Y-91947366D02*
X115945996Y-91947366D01*
X115088853Y-91947366D02*
X115017425Y-92018795D01*
X115017425Y-92018795D02*
X114945996Y-92161652D01*
X114945996Y-92161652D02*
X114945996Y-92375938D01*
X114945996Y-92375938D02*
X115017425Y-92518795D01*
X115017425Y-92518795D02*
X115160282Y-92590224D01*
X115160282Y-92590224D02*
X115945996Y-92590224D01*
X114945996Y-93090224D02*
X114945996Y-93661652D01*
X114445996Y-93304509D02*
X115731710Y-93304509D01*
X115731710Y-93304509D02*
X115874568Y-93375938D01*
X115874568Y-93375938D02*
X115945996Y-93518795D01*
X115945996Y-93518795D02*
X115945996Y-93661652D01*
X114945996Y-95090224D02*
X114945996Y-95661652D01*
X114445996Y-95304509D02*
X115731710Y-95304509D01*
X115731710Y-95304509D02*
X115874568Y-95375938D01*
X115874568Y-95375938D02*
X115945996Y-95518795D01*
X115945996Y-95518795D02*
X115945996Y-95661652D01*
X115945996Y-96161652D02*
X114945996Y-96161652D01*
X115231710Y-96161652D02*
X115088853Y-96233081D01*
X115088853Y-96233081D02*
X115017425Y-96304510D01*
X115017425Y-96304510D02*
X114945996Y-96447367D01*
X114945996Y-96447367D02*
X114945996Y-96590224D01*
X115945996Y-97733081D02*
X115160282Y-97733081D01*
X115160282Y-97733081D02*
X115017425Y-97661652D01*
X115017425Y-97661652D02*
X114945996Y-97518795D01*
X114945996Y-97518795D02*
X114945996Y-97233081D01*
X114945996Y-97233081D02*
X115017425Y-97090223D01*
X115874568Y-97733081D02*
X115945996Y-97590223D01*
X115945996Y-97590223D02*
X115945996Y-97233081D01*
X115945996Y-97233081D02*
X115874568Y-97090223D01*
X115874568Y-97090223D02*
X115731710Y-97018795D01*
X115731710Y-97018795D02*
X115588853Y-97018795D01*
X115588853Y-97018795D02*
X115445996Y-97090223D01*
X115445996Y-97090223D02*
X115374568Y-97233081D01*
X115374568Y-97233081D02*
X115374568Y-97590223D01*
X115374568Y-97590223D02*
X115303139Y-97733081D01*
X114945996Y-98447366D02*
X115945996Y-98447366D01*
X115088853Y-98447366D02*
X115017425Y-98518795D01*
X115017425Y-98518795D02*
X114945996Y-98661652D01*
X114945996Y-98661652D02*
X114945996Y-98875938D01*
X114945996Y-98875938D02*
X115017425Y-99018795D01*
X115017425Y-99018795D02*
X115160282Y-99090224D01*
X115160282Y-99090224D02*
X115945996Y-99090224D01*
X115874568Y-99733081D02*
X115945996Y-99875938D01*
X115945996Y-99875938D02*
X115945996Y-100161652D01*
X115945996Y-100161652D02*
X115874568Y-100304509D01*
X115874568Y-100304509D02*
X115731710Y-100375938D01*
X115731710Y-100375938D02*
X115660282Y-100375938D01*
X115660282Y-100375938D02*
X115517425Y-100304509D01*
X115517425Y-100304509D02*
X115445996Y-100161652D01*
X115445996Y-100161652D02*
X115445996Y-99947367D01*
X115445996Y-99947367D02*
X115374568Y-99804509D01*
X115374568Y-99804509D02*
X115231710Y-99733081D01*
X115231710Y-99733081D02*
X115160282Y-99733081D01*
X115160282Y-99733081D02*
X115017425Y-99804509D01*
X115017425Y-99804509D02*
X114945996Y-99947367D01*
X114945996Y-99947367D02*
X114945996Y-100161652D01*
X114945996Y-100161652D02*
X115017425Y-100304509D01*
X114945996Y-100804510D02*
X114945996Y-101375938D01*
X115945996Y-101018795D02*
X114660282Y-101018795D01*
X114660282Y-101018795D02*
X114517425Y-101090224D01*
X114517425Y-101090224D02*
X114445996Y-101233081D01*
X114445996Y-101233081D02*
X114445996Y-101375938D01*
X115945996Y-102090224D02*
X115874568Y-101947367D01*
X115874568Y-101947367D02*
X115803139Y-101875938D01*
X115803139Y-101875938D02*
X115660282Y-101804510D01*
X115660282Y-101804510D02*
X115231710Y-101804510D01*
X115231710Y-101804510D02*
X115088853Y-101875938D01*
X115088853Y-101875938D02*
X115017425Y-101947367D01*
X115017425Y-101947367D02*
X114945996Y-102090224D01*
X114945996Y-102090224D02*
X114945996Y-102304510D01*
X114945996Y-102304510D02*
X115017425Y-102447367D01*
X115017425Y-102447367D02*
X115088853Y-102518796D01*
X115088853Y-102518796D02*
X115231710Y-102590224D01*
X115231710Y-102590224D02*
X115660282Y-102590224D01*
X115660282Y-102590224D02*
X115803139Y-102518796D01*
X115803139Y-102518796D02*
X115874568Y-102447367D01*
X115874568Y-102447367D02*
X115945996Y-102304510D01*
X115945996Y-102304510D02*
X115945996Y-102090224D01*
X115945996Y-103233081D02*
X114945996Y-103233081D01*
X115231710Y-103233081D02*
X115088853Y-103304510D01*
X115088853Y-103304510D02*
X115017425Y-103375939D01*
X115017425Y-103375939D02*
X114945996Y-103518796D01*
X114945996Y-103518796D02*
X114945996Y-103661653D01*
X115945996Y-104161652D02*
X114945996Y-104161652D01*
X115088853Y-104161652D02*
X115017425Y-104233081D01*
X115017425Y-104233081D02*
X114945996Y-104375938D01*
X114945996Y-104375938D02*
X114945996Y-104590224D01*
X114945996Y-104590224D02*
X115017425Y-104733081D01*
X115017425Y-104733081D02*
X115160282Y-104804510D01*
X115160282Y-104804510D02*
X115945996Y-104804510D01*
X115160282Y-104804510D02*
X115017425Y-104875938D01*
X115017425Y-104875938D02*
X114945996Y-105018795D01*
X114945996Y-105018795D02*
X114945996Y-105233081D01*
X114945996Y-105233081D02*
X115017425Y-105375938D01*
X115017425Y-105375938D02*
X115160282Y-105447367D01*
X115160282Y-105447367D02*
X115945996Y-105447367D01*
X115874568Y-106733081D02*
X115945996Y-106590224D01*
X115945996Y-106590224D02*
X115945996Y-106304510D01*
X115945996Y-106304510D02*
X115874568Y-106161652D01*
X115874568Y-106161652D02*
X115731710Y-106090224D01*
X115731710Y-106090224D02*
X115160282Y-106090224D01*
X115160282Y-106090224D02*
X115017425Y-106161652D01*
X115017425Y-106161652D02*
X114945996Y-106304510D01*
X114945996Y-106304510D02*
X114945996Y-106590224D01*
X114945996Y-106590224D02*
X115017425Y-106733081D01*
X115017425Y-106733081D02*
X115160282Y-106804510D01*
X115160282Y-106804510D02*
X115303139Y-106804510D01*
X115303139Y-106804510D02*
X115445996Y-106090224D01*
X115945996Y-107447366D02*
X114945996Y-107447366D01*
X115231710Y-107447366D02*
X115088853Y-107518795D01*
X115088853Y-107518795D02*
X115017425Y-107590224D01*
X115017425Y-107590224D02*
X114945996Y-107733081D01*
X114945996Y-107733081D02*
X114945996Y-107875938D01*
X115874568Y-108304509D02*
X115945996Y-108447366D01*
X115945996Y-108447366D02*
X115945996Y-108733080D01*
X115945996Y-108733080D02*
X115874568Y-108875937D01*
X115874568Y-108875937D02*
X115731710Y-108947366D01*
X115731710Y-108947366D02*
X115660282Y-108947366D01*
X115660282Y-108947366D02*
X115517425Y-108875937D01*
X115517425Y-108875937D02*
X115445996Y-108733080D01*
X115445996Y-108733080D02*
X115445996Y-108518795D01*
X115445996Y-108518795D02*
X115374568Y-108375937D01*
X115374568Y-108375937D02*
X115231710Y-108304509D01*
X115231710Y-108304509D02*
X115160282Y-108304509D01*
X115160282Y-108304509D02*
X115017425Y-108375937D01*
X115017425Y-108375937D02*
X114945996Y-108518795D01*
X114945996Y-108518795D02*
X114945996Y-108733080D01*
X114945996Y-108733080D02*
X115017425Y-108875937D01*
X115945996Y-110733080D02*
X114445996Y-110733080D01*
X115945996Y-111375938D02*
X115160282Y-111375938D01*
X115160282Y-111375938D02*
X115017425Y-111304509D01*
X115017425Y-111304509D02*
X114945996Y-111161652D01*
X114945996Y-111161652D02*
X114945996Y-110947366D01*
X114945996Y-110947366D02*
X115017425Y-110804509D01*
X115017425Y-110804509D02*
X115088853Y-110733080D01*
X115945996Y-112733081D02*
X115160282Y-112733081D01*
X115160282Y-112733081D02*
X115017425Y-112661652D01*
X115017425Y-112661652D02*
X114945996Y-112518795D01*
X114945996Y-112518795D02*
X114945996Y-112233081D01*
X114945996Y-112233081D02*
X115017425Y-112090223D01*
X115874568Y-112733081D02*
X115945996Y-112590223D01*
X115945996Y-112590223D02*
X115945996Y-112233081D01*
X115945996Y-112233081D02*
X115874568Y-112090223D01*
X115874568Y-112090223D02*
X115731710Y-112018795D01*
X115731710Y-112018795D02*
X115588853Y-112018795D01*
X115588853Y-112018795D02*
X115445996Y-112090223D01*
X115445996Y-112090223D02*
X115374568Y-112233081D01*
X115374568Y-112233081D02*
X115374568Y-112590223D01*
X115374568Y-112590223D02*
X115303139Y-112733081D01*
X114945996Y-113304509D02*
X115945996Y-113661652D01*
X115945996Y-113661652D02*
X114945996Y-114018795D01*
X115874568Y-115161652D02*
X115945996Y-115018795D01*
X115945996Y-115018795D02*
X115945996Y-114733081D01*
X115945996Y-114733081D02*
X115874568Y-114590223D01*
X115874568Y-114590223D02*
X115731710Y-114518795D01*
X115731710Y-114518795D02*
X115160282Y-114518795D01*
X115160282Y-114518795D02*
X115017425Y-114590223D01*
X115017425Y-114590223D02*
X114945996Y-114733081D01*
X114945996Y-114733081D02*
X114945996Y-115018795D01*
X114945996Y-115018795D02*
X115017425Y-115161652D01*
X115017425Y-115161652D02*
X115160282Y-115233081D01*
X115160282Y-115233081D02*
X115303139Y-115233081D01*
X115303139Y-115233081D02*
X115445996Y-114518795D01*
X115945996Y-117661652D02*
X115160282Y-117661652D01*
X115160282Y-117661652D02*
X115017425Y-117590223D01*
X115017425Y-117590223D02*
X114945996Y-117447366D01*
X114945996Y-117447366D02*
X114945996Y-117161652D01*
X114945996Y-117161652D02*
X115017425Y-117018794D01*
X115874568Y-117661652D02*
X115945996Y-117518794D01*
X115945996Y-117518794D02*
X115945996Y-117161652D01*
X115945996Y-117161652D02*
X115874568Y-117018794D01*
X115874568Y-117018794D02*
X115731710Y-116947366D01*
X115731710Y-116947366D02*
X115588853Y-116947366D01*
X115588853Y-116947366D02*
X115445996Y-117018794D01*
X115445996Y-117018794D02*
X115374568Y-117161652D01*
X115374568Y-117161652D02*
X115374568Y-117518794D01*
X115374568Y-117518794D02*
X115303139Y-117661652D01*
X118360912Y-78804510D02*
X116860912Y-78804510D01*
X117432341Y-78804510D02*
X117360912Y-78947368D01*
X117360912Y-78947368D02*
X117360912Y-79233082D01*
X117360912Y-79233082D02*
X117432341Y-79375939D01*
X117432341Y-79375939D02*
X117503769Y-79447368D01*
X117503769Y-79447368D02*
X117646626Y-79518796D01*
X117646626Y-79518796D02*
X118075198Y-79518796D01*
X118075198Y-79518796D02*
X118218055Y-79447368D01*
X118218055Y-79447368D02*
X118289484Y-79375939D01*
X118289484Y-79375939D02*
X118360912Y-79233082D01*
X118360912Y-79233082D02*
X118360912Y-78947368D01*
X118360912Y-78947368D02*
X118289484Y-78804510D01*
X117360912Y-80804511D02*
X118360912Y-80804511D01*
X117360912Y-80161653D02*
X118146626Y-80161653D01*
X118146626Y-80161653D02*
X118289484Y-80233082D01*
X118289484Y-80233082D02*
X118360912Y-80375939D01*
X118360912Y-80375939D02*
X118360912Y-80590225D01*
X118360912Y-80590225D02*
X118289484Y-80733082D01*
X118289484Y-80733082D02*
X118218055Y-80804511D01*
X118360912Y-81518796D02*
X117360912Y-81518796D01*
X116860912Y-81518796D02*
X116932341Y-81447368D01*
X116932341Y-81447368D02*
X117003769Y-81518796D01*
X117003769Y-81518796D02*
X116932341Y-81590225D01*
X116932341Y-81590225D02*
X116860912Y-81518796D01*
X116860912Y-81518796D02*
X117003769Y-81518796D01*
X118360912Y-82447368D02*
X118289484Y-82304511D01*
X118289484Y-82304511D02*
X118146626Y-82233082D01*
X118146626Y-82233082D02*
X116860912Y-82233082D01*
X117360912Y-82804511D02*
X117360912Y-83375939D01*
X116860912Y-83018796D02*
X118146626Y-83018796D01*
X118146626Y-83018796D02*
X118289484Y-83090225D01*
X118289484Y-83090225D02*
X118360912Y-83233082D01*
X118360912Y-83233082D02*
X118360912Y-83375939D01*
X117789484Y-83875939D02*
X117789484Y-85018797D01*
X118360912Y-85733082D02*
X117360912Y-85733082D01*
X116860912Y-85733082D02*
X116932341Y-85661654D01*
X116932341Y-85661654D02*
X117003769Y-85733082D01*
X117003769Y-85733082D02*
X116932341Y-85804511D01*
X116932341Y-85804511D02*
X116860912Y-85733082D01*
X116860912Y-85733082D02*
X117003769Y-85733082D01*
X117360912Y-86447368D02*
X118360912Y-86447368D01*
X117503769Y-86447368D02*
X117432341Y-86518797D01*
X117432341Y-86518797D02*
X117360912Y-86661654D01*
X117360912Y-86661654D02*
X117360912Y-86875940D01*
X117360912Y-86875940D02*
X117432341Y-87018797D01*
X117432341Y-87018797D02*
X117575198Y-87090226D01*
X117575198Y-87090226D02*
X118360912Y-87090226D01*
X118360912Y-88947368D02*
X116860912Y-88947368D01*
X117432341Y-88947368D02*
X117360912Y-89090226D01*
X117360912Y-89090226D02*
X117360912Y-89375940D01*
X117360912Y-89375940D02*
X117432341Y-89518797D01*
X117432341Y-89518797D02*
X117503769Y-89590226D01*
X117503769Y-89590226D02*
X117646626Y-89661654D01*
X117646626Y-89661654D02*
X118075198Y-89661654D01*
X118075198Y-89661654D02*
X118218055Y-89590226D01*
X118218055Y-89590226D02*
X118289484Y-89518797D01*
X118289484Y-89518797D02*
X118360912Y-89375940D01*
X118360912Y-89375940D02*
X118360912Y-89090226D01*
X118360912Y-89090226D02*
X118289484Y-88947368D01*
X117360912Y-90947369D02*
X118360912Y-90947369D01*
X117360912Y-90304511D02*
X118146626Y-90304511D01*
X118146626Y-90304511D02*
X118289484Y-90375940D01*
X118289484Y-90375940D02*
X118360912Y-90518797D01*
X118360912Y-90518797D02*
X118360912Y-90733083D01*
X118360912Y-90733083D02*
X118289484Y-90875940D01*
X118289484Y-90875940D02*
X118218055Y-90947369D01*
X118360912Y-91661654D02*
X117360912Y-91661654D01*
X117646626Y-91661654D02*
X117503769Y-91733083D01*
X117503769Y-91733083D02*
X117432341Y-91804512D01*
X117432341Y-91804512D02*
X117360912Y-91947369D01*
X117360912Y-91947369D02*
X117360912Y-92090226D01*
X118360912Y-93233083D02*
X116860912Y-93233083D01*
X118289484Y-93233083D02*
X118360912Y-93090225D01*
X118360912Y-93090225D02*
X118360912Y-92804511D01*
X118360912Y-92804511D02*
X118289484Y-92661654D01*
X118289484Y-92661654D02*
X118218055Y-92590225D01*
X118218055Y-92590225D02*
X118075198Y-92518797D01*
X118075198Y-92518797D02*
X117646626Y-92518797D01*
X117646626Y-92518797D02*
X117503769Y-92590225D01*
X117503769Y-92590225D02*
X117432341Y-92661654D01*
X117432341Y-92661654D02*
X117360912Y-92804511D01*
X117360912Y-92804511D02*
X117360912Y-93090225D01*
X117360912Y-93090225D02*
X117432341Y-93233083D01*
X118289484Y-94518797D02*
X118360912Y-94375940D01*
X118360912Y-94375940D02*
X118360912Y-94090226D01*
X118360912Y-94090226D02*
X118289484Y-93947368D01*
X118289484Y-93947368D02*
X118146626Y-93875940D01*
X118146626Y-93875940D02*
X117575198Y-93875940D01*
X117575198Y-93875940D02*
X117432341Y-93947368D01*
X117432341Y-93947368D02*
X117360912Y-94090226D01*
X117360912Y-94090226D02*
X117360912Y-94375940D01*
X117360912Y-94375940D02*
X117432341Y-94518797D01*
X117432341Y-94518797D02*
X117575198Y-94590226D01*
X117575198Y-94590226D02*
X117718055Y-94590226D01*
X117718055Y-94590226D02*
X117860912Y-93875940D01*
X117360912Y-95233082D02*
X118360912Y-95233082D01*
X117503769Y-95233082D02*
X117432341Y-95304511D01*
X117432341Y-95304511D02*
X117360912Y-95447368D01*
X117360912Y-95447368D02*
X117360912Y-95661654D01*
X117360912Y-95661654D02*
X117432341Y-95804511D01*
X117432341Y-95804511D02*
X117575198Y-95875940D01*
X117575198Y-95875940D02*
X118360912Y-95875940D01*
X118360912Y-97733082D02*
X117360912Y-97733082D01*
X117646626Y-97733082D02*
X117503769Y-97804511D01*
X117503769Y-97804511D02*
X117432341Y-97875940D01*
X117432341Y-97875940D02*
X117360912Y-98018797D01*
X117360912Y-98018797D02*
X117360912Y-98161654D01*
X118289484Y-99233082D02*
X118360912Y-99090225D01*
X118360912Y-99090225D02*
X118360912Y-98804511D01*
X118360912Y-98804511D02*
X118289484Y-98661653D01*
X118289484Y-98661653D02*
X118146626Y-98590225D01*
X118146626Y-98590225D02*
X117575198Y-98590225D01*
X117575198Y-98590225D02*
X117432341Y-98661653D01*
X117432341Y-98661653D02*
X117360912Y-98804511D01*
X117360912Y-98804511D02*
X117360912Y-99090225D01*
X117360912Y-99090225D02*
X117432341Y-99233082D01*
X117432341Y-99233082D02*
X117575198Y-99304511D01*
X117575198Y-99304511D02*
X117718055Y-99304511D01*
X117718055Y-99304511D02*
X117860912Y-98590225D01*
X118289484Y-99875939D02*
X118360912Y-100018796D01*
X118360912Y-100018796D02*
X118360912Y-100304510D01*
X118360912Y-100304510D02*
X118289484Y-100447367D01*
X118289484Y-100447367D02*
X118146626Y-100518796D01*
X118146626Y-100518796D02*
X118075198Y-100518796D01*
X118075198Y-100518796D02*
X117932341Y-100447367D01*
X117932341Y-100447367D02*
X117860912Y-100304510D01*
X117860912Y-100304510D02*
X117860912Y-100090225D01*
X117860912Y-100090225D02*
X117789484Y-99947367D01*
X117789484Y-99947367D02*
X117646626Y-99875939D01*
X117646626Y-99875939D02*
X117575198Y-99875939D01*
X117575198Y-99875939D02*
X117432341Y-99947367D01*
X117432341Y-99947367D02*
X117360912Y-100090225D01*
X117360912Y-100090225D02*
X117360912Y-100304510D01*
X117360912Y-100304510D02*
X117432341Y-100447367D01*
X118360912Y-101161653D02*
X117360912Y-101161653D01*
X116860912Y-101161653D02*
X116932341Y-101090225D01*
X116932341Y-101090225D02*
X117003769Y-101161653D01*
X117003769Y-101161653D02*
X116932341Y-101233082D01*
X116932341Y-101233082D02*
X116860912Y-101161653D01*
X116860912Y-101161653D02*
X117003769Y-101161653D01*
X118289484Y-101804511D02*
X118360912Y-101947368D01*
X118360912Y-101947368D02*
X118360912Y-102233082D01*
X118360912Y-102233082D02*
X118289484Y-102375939D01*
X118289484Y-102375939D02*
X118146626Y-102447368D01*
X118146626Y-102447368D02*
X118075198Y-102447368D01*
X118075198Y-102447368D02*
X117932341Y-102375939D01*
X117932341Y-102375939D02*
X117860912Y-102233082D01*
X117860912Y-102233082D02*
X117860912Y-102018797D01*
X117860912Y-102018797D02*
X117789484Y-101875939D01*
X117789484Y-101875939D02*
X117646626Y-101804511D01*
X117646626Y-101804511D02*
X117575198Y-101804511D01*
X117575198Y-101804511D02*
X117432341Y-101875939D01*
X117432341Y-101875939D02*
X117360912Y-102018797D01*
X117360912Y-102018797D02*
X117360912Y-102233082D01*
X117360912Y-102233082D02*
X117432341Y-102375939D01*
X117360912Y-102875940D02*
X117360912Y-103447368D01*
X116860912Y-103090225D02*
X118146626Y-103090225D01*
X118146626Y-103090225D02*
X118289484Y-103161654D01*
X118289484Y-103161654D02*
X118360912Y-103304511D01*
X118360912Y-103304511D02*
X118360912Y-103447368D01*
X118360912Y-104161654D02*
X118289484Y-104018797D01*
X118289484Y-104018797D02*
X118218055Y-103947368D01*
X118218055Y-103947368D02*
X118075198Y-103875940D01*
X118075198Y-103875940D02*
X117646626Y-103875940D01*
X117646626Y-103875940D02*
X117503769Y-103947368D01*
X117503769Y-103947368D02*
X117432341Y-104018797D01*
X117432341Y-104018797D02*
X117360912Y-104161654D01*
X117360912Y-104161654D02*
X117360912Y-104375940D01*
X117360912Y-104375940D02*
X117432341Y-104518797D01*
X117432341Y-104518797D02*
X117503769Y-104590226D01*
X117503769Y-104590226D02*
X117646626Y-104661654D01*
X117646626Y-104661654D02*
X118075198Y-104661654D01*
X118075198Y-104661654D02*
X118218055Y-104590226D01*
X118218055Y-104590226D02*
X118289484Y-104518797D01*
X118289484Y-104518797D02*
X118360912Y-104375940D01*
X118360912Y-104375940D02*
X118360912Y-104161654D01*
X118360912Y-105304511D02*
X117360912Y-105304511D01*
X117646626Y-105304511D02*
X117503769Y-105375940D01*
X117503769Y-105375940D02*
X117432341Y-105447369D01*
X117432341Y-105447369D02*
X117360912Y-105590226D01*
X117360912Y-105590226D02*
X117360912Y-105733083D01*
X118932341Y-107804511D02*
X118860912Y-107733082D01*
X118860912Y-107733082D02*
X118646626Y-107590225D01*
X118646626Y-107590225D02*
X118503769Y-107518797D01*
X118503769Y-107518797D02*
X118289484Y-107447368D01*
X118289484Y-107447368D02*
X117932341Y-107375939D01*
X117932341Y-107375939D02*
X117646626Y-107375939D01*
X117646626Y-107375939D02*
X117289484Y-107447368D01*
X117289484Y-107447368D02*
X117075198Y-107518797D01*
X117075198Y-107518797D02*
X116932341Y-107590225D01*
X116932341Y-107590225D02*
X116718055Y-107733082D01*
X116718055Y-107733082D02*
X116646626Y-107804511D01*
X118218055Y-109233082D02*
X118289484Y-109161654D01*
X118289484Y-109161654D02*
X118360912Y-108947368D01*
X118360912Y-108947368D02*
X118360912Y-108804511D01*
X118360912Y-108804511D02*
X118289484Y-108590225D01*
X118289484Y-108590225D02*
X118146626Y-108447368D01*
X118146626Y-108447368D02*
X118003769Y-108375939D01*
X118003769Y-108375939D02*
X117718055Y-108304511D01*
X117718055Y-108304511D02*
X117503769Y-108304511D01*
X117503769Y-108304511D02*
X117218055Y-108375939D01*
X117218055Y-108375939D02*
X117075198Y-108447368D01*
X117075198Y-108447368D02*
X116932341Y-108590225D01*
X116932341Y-108590225D02*
X116860912Y-108804511D01*
X116860912Y-108804511D02*
X116860912Y-108947368D01*
X116860912Y-108947368D02*
X116932341Y-109161654D01*
X116932341Y-109161654D02*
X117003769Y-109233082D01*
X116860912Y-109661654D02*
X116860912Y-110518797D01*
X118360912Y-110090225D02*
X116860912Y-110090225D01*
X117360912Y-111947368D02*
X117360912Y-112518796D01*
X116860912Y-112161653D02*
X118146626Y-112161653D01*
X118146626Y-112161653D02*
X118289484Y-112233082D01*
X118289484Y-112233082D02*
X118360912Y-112375939D01*
X118360912Y-112375939D02*
X118360912Y-112518796D01*
X118360912Y-113233082D02*
X118289484Y-113090225D01*
X118289484Y-113090225D02*
X118218055Y-113018796D01*
X118218055Y-113018796D02*
X118075198Y-112947368D01*
X118075198Y-112947368D02*
X117646626Y-112947368D01*
X117646626Y-112947368D02*
X117503769Y-113018796D01*
X117503769Y-113018796D02*
X117432341Y-113090225D01*
X117432341Y-113090225D02*
X117360912Y-113233082D01*
X117360912Y-113233082D02*
X117360912Y-113447368D01*
X117360912Y-113447368D02*
X117432341Y-113590225D01*
X117432341Y-113590225D02*
X117503769Y-113661654D01*
X117503769Y-113661654D02*
X117646626Y-113733082D01*
X117646626Y-113733082D02*
X118075198Y-113733082D01*
X118075198Y-113733082D02*
X118218055Y-113661654D01*
X118218055Y-113661654D02*
X118289484Y-113590225D01*
X118289484Y-113590225D02*
X118360912Y-113447368D01*
X118360912Y-113447368D02*
X118360912Y-113233082D01*
X116860912Y-115304511D02*
X118360912Y-115804511D01*
X118360912Y-115804511D02*
X116860912Y-116304511D01*
X118932341Y-116661653D02*
X118860912Y-116733082D01*
X118860912Y-116733082D02*
X118646626Y-116875939D01*
X118646626Y-116875939D02*
X118503769Y-116947368D01*
X118503769Y-116947368D02*
X118289484Y-117018796D01*
X118289484Y-117018796D02*
X117932341Y-117090225D01*
X117932341Y-117090225D02*
X117646626Y-117090225D01*
X117646626Y-117090225D02*
X117289484Y-117018796D01*
X117289484Y-117018796D02*
X117075198Y-116947368D01*
X117075198Y-116947368D02*
X116932341Y-116875939D01*
X116932341Y-116875939D02*
X116718055Y-116733082D01*
X116718055Y-116733082D02*
X116646626Y-116661653D01*
X118289484Y-117875939D02*
X118360912Y-117875939D01*
X118360912Y-117875939D02*
X118503769Y-117804510D01*
X118503769Y-117804510D02*
X118575198Y-117733082D01*
X120775828Y-79447368D02*
X119275828Y-79447368D01*
X120704400Y-79447368D02*
X120775828Y-79304510D01*
X120775828Y-79304510D02*
X120775828Y-79018796D01*
X120775828Y-79018796D02*
X120704400Y-78875939D01*
X120704400Y-78875939D02*
X120632971Y-78804510D01*
X120632971Y-78804510D02*
X120490114Y-78733082D01*
X120490114Y-78733082D02*
X120061542Y-78733082D01*
X120061542Y-78733082D02*
X119918685Y-78804510D01*
X119918685Y-78804510D02*
X119847257Y-78875939D01*
X119847257Y-78875939D02*
X119775828Y-79018796D01*
X119775828Y-79018796D02*
X119775828Y-79304510D01*
X119775828Y-79304510D02*
X119847257Y-79447368D01*
X120775828Y-80375939D02*
X120704400Y-80233082D01*
X120704400Y-80233082D02*
X120632971Y-80161653D01*
X120632971Y-80161653D02*
X120490114Y-80090225D01*
X120490114Y-80090225D02*
X120061542Y-80090225D01*
X120061542Y-80090225D02*
X119918685Y-80161653D01*
X119918685Y-80161653D02*
X119847257Y-80233082D01*
X119847257Y-80233082D02*
X119775828Y-80375939D01*
X119775828Y-80375939D02*
X119775828Y-80590225D01*
X119775828Y-80590225D02*
X119847257Y-80733082D01*
X119847257Y-80733082D02*
X119918685Y-80804511D01*
X119918685Y-80804511D02*
X120061542Y-80875939D01*
X120061542Y-80875939D02*
X120490114Y-80875939D01*
X120490114Y-80875939D02*
X120632971Y-80804511D01*
X120632971Y-80804511D02*
X120704400Y-80733082D01*
X120704400Y-80733082D02*
X120775828Y-80590225D01*
X120775828Y-80590225D02*
X120775828Y-80375939D01*
X119775828Y-82661653D02*
X120775828Y-82661653D01*
X119918685Y-82661653D02*
X119847257Y-82733082D01*
X119847257Y-82733082D02*
X119775828Y-82875939D01*
X119775828Y-82875939D02*
X119775828Y-83090225D01*
X119775828Y-83090225D02*
X119847257Y-83233082D01*
X119847257Y-83233082D02*
X119990114Y-83304511D01*
X119990114Y-83304511D02*
X120775828Y-83304511D01*
X120775828Y-84233082D02*
X120704400Y-84090225D01*
X120704400Y-84090225D02*
X120632971Y-84018796D01*
X120632971Y-84018796D02*
X120490114Y-83947368D01*
X120490114Y-83947368D02*
X120061542Y-83947368D01*
X120061542Y-83947368D02*
X119918685Y-84018796D01*
X119918685Y-84018796D02*
X119847257Y-84090225D01*
X119847257Y-84090225D02*
X119775828Y-84233082D01*
X119775828Y-84233082D02*
X119775828Y-84447368D01*
X119775828Y-84447368D02*
X119847257Y-84590225D01*
X119847257Y-84590225D02*
X119918685Y-84661654D01*
X119918685Y-84661654D02*
X120061542Y-84733082D01*
X120061542Y-84733082D02*
X120490114Y-84733082D01*
X120490114Y-84733082D02*
X120632971Y-84661654D01*
X120632971Y-84661654D02*
X120704400Y-84590225D01*
X120704400Y-84590225D02*
X120775828Y-84447368D01*
X120775828Y-84447368D02*
X120775828Y-84233082D01*
X119775828Y-85161654D02*
X119775828Y-85733082D01*
X119275828Y-85375939D02*
X120561542Y-85375939D01*
X120561542Y-85375939D02*
X120704400Y-85447368D01*
X120704400Y-85447368D02*
X120775828Y-85590225D01*
X120775828Y-85590225D02*
X120775828Y-85733082D01*
X120775828Y-87375939D02*
X119775828Y-87375939D01*
X119918685Y-87375939D02*
X119847257Y-87447368D01*
X119847257Y-87447368D02*
X119775828Y-87590225D01*
X119775828Y-87590225D02*
X119775828Y-87804511D01*
X119775828Y-87804511D02*
X119847257Y-87947368D01*
X119847257Y-87947368D02*
X119990114Y-88018797D01*
X119990114Y-88018797D02*
X120775828Y-88018797D01*
X119990114Y-88018797D02*
X119847257Y-88090225D01*
X119847257Y-88090225D02*
X119775828Y-88233082D01*
X119775828Y-88233082D02*
X119775828Y-88447368D01*
X119775828Y-88447368D02*
X119847257Y-88590225D01*
X119847257Y-88590225D02*
X119990114Y-88661654D01*
X119990114Y-88661654D02*
X120775828Y-88661654D01*
X120775828Y-89590225D02*
X120704400Y-89447368D01*
X120704400Y-89447368D02*
X120632971Y-89375939D01*
X120632971Y-89375939D02*
X120490114Y-89304511D01*
X120490114Y-89304511D02*
X120061542Y-89304511D01*
X120061542Y-89304511D02*
X119918685Y-89375939D01*
X119918685Y-89375939D02*
X119847257Y-89447368D01*
X119847257Y-89447368D02*
X119775828Y-89590225D01*
X119775828Y-89590225D02*
X119775828Y-89804511D01*
X119775828Y-89804511D02*
X119847257Y-89947368D01*
X119847257Y-89947368D02*
X119918685Y-90018797D01*
X119918685Y-90018797D02*
X120061542Y-90090225D01*
X120061542Y-90090225D02*
X120490114Y-90090225D01*
X120490114Y-90090225D02*
X120632971Y-90018797D01*
X120632971Y-90018797D02*
X120704400Y-89947368D01*
X120704400Y-89947368D02*
X120775828Y-89804511D01*
X120775828Y-89804511D02*
X120775828Y-89590225D01*
X119775828Y-91375940D02*
X120775828Y-91375940D01*
X119775828Y-90733082D02*
X120561542Y-90733082D01*
X120561542Y-90733082D02*
X120704400Y-90804511D01*
X120704400Y-90804511D02*
X120775828Y-90947368D01*
X120775828Y-90947368D02*
X120775828Y-91161654D01*
X120775828Y-91161654D02*
X120704400Y-91304511D01*
X120704400Y-91304511D02*
X120632971Y-91375940D01*
X119775828Y-92090225D02*
X120775828Y-92090225D01*
X119918685Y-92090225D02*
X119847257Y-92161654D01*
X119847257Y-92161654D02*
X119775828Y-92304511D01*
X119775828Y-92304511D02*
X119775828Y-92518797D01*
X119775828Y-92518797D02*
X119847257Y-92661654D01*
X119847257Y-92661654D02*
X119990114Y-92733083D01*
X119990114Y-92733083D02*
X120775828Y-92733083D01*
X119775828Y-93233083D02*
X119775828Y-93804511D01*
X119275828Y-93447368D02*
X120561542Y-93447368D01*
X120561542Y-93447368D02*
X120704400Y-93518797D01*
X120704400Y-93518797D02*
X120775828Y-93661654D01*
X120775828Y-93661654D02*
X120775828Y-93804511D01*
X119775828Y-95233083D02*
X119775828Y-95804511D01*
X119275828Y-95447368D02*
X120561542Y-95447368D01*
X120561542Y-95447368D02*
X120704400Y-95518797D01*
X120704400Y-95518797D02*
X120775828Y-95661654D01*
X120775828Y-95661654D02*
X120775828Y-95804511D01*
X120775828Y-96304511D02*
X119275828Y-96304511D01*
X120775828Y-96947369D02*
X119990114Y-96947369D01*
X119990114Y-96947369D02*
X119847257Y-96875940D01*
X119847257Y-96875940D02*
X119775828Y-96733083D01*
X119775828Y-96733083D02*
X119775828Y-96518797D01*
X119775828Y-96518797D02*
X119847257Y-96375940D01*
X119847257Y-96375940D02*
X119918685Y-96304511D01*
X120704400Y-98233083D02*
X120775828Y-98090226D01*
X120775828Y-98090226D02*
X120775828Y-97804512D01*
X120775828Y-97804512D02*
X120704400Y-97661654D01*
X120704400Y-97661654D02*
X120561542Y-97590226D01*
X120561542Y-97590226D02*
X119990114Y-97590226D01*
X119990114Y-97590226D02*
X119847257Y-97661654D01*
X119847257Y-97661654D02*
X119775828Y-97804512D01*
X119775828Y-97804512D02*
X119775828Y-98090226D01*
X119775828Y-98090226D02*
X119847257Y-98233083D01*
X119847257Y-98233083D02*
X119990114Y-98304512D01*
X119990114Y-98304512D02*
X120132971Y-98304512D01*
X120132971Y-98304512D02*
X120275828Y-97590226D01*
X119418685Y-100018797D02*
X119347257Y-100090225D01*
X119347257Y-100090225D02*
X119275828Y-100233083D01*
X119275828Y-100233083D02*
X119275828Y-100590225D01*
X119275828Y-100590225D02*
X119347257Y-100733083D01*
X119347257Y-100733083D02*
X119418685Y-100804511D01*
X119418685Y-100804511D02*
X119561542Y-100875940D01*
X119561542Y-100875940D02*
X119704400Y-100875940D01*
X119704400Y-100875940D02*
X119918685Y-100804511D01*
X119918685Y-100804511D02*
X120775828Y-99947368D01*
X120775828Y-99947368D02*
X120775828Y-100875940D01*
X119418685Y-101447368D02*
X119347257Y-101518796D01*
X119347257Y-101518796D02*
X119275828Y-101661654D01*
X119275828Y-101661654D02*
X119275828Y-102018796D01*
X119275828Y-102018796D02*
X119347257Y-102161654D01*
X119347257Y-102161654D02*
X119418685Y-102233082D01*
X119418685Y-102233082D02*
X119561542Y-102304511D01*
X119561542Y-102304511D02*
X119704400Y-102304511D01*
X119704400Y-102304511D02*
X119918685Y-102233082D01*
X119918685Y-102233082D02*
X120775828Y-101375939D01*
X120775828Y-101375939D02*
X120775828Y-102304511D01*
X120775828Y-103161653D02*
X120704400Y-103018796D01*
X120704400Y-103018796D02*
X120632971Y-102947367D01*
X120632971Y-102947367D02*
X120490114Y-102875939D01*
X120490114Y-102875939D02*
X120061542Y-102875939D01*
X120061542Y-102875939D02*
X119918685Y-102947367D01*
X119918685Y-102947367D02*
X119847257Y-103018796D01*
X119847257Y-103018796D02*
X119775828Y-103161653D01*
X119775828Y-103161653D02*
X119775828Y-103375939D01*
X119775828Y-103375939D02*
X119847257Y-103518796D01*
X119847257Y-103518796D02*
X119918685Y-103590225D01*
X119918685Y-103590225D02*
X120061542Y-103661653D01*
X120061542Y-103661653D02*
X120490114Y-103661653D01*
X120490114Y-103661653D02*
X120632971Y-103590225D01*
X120632971Y-103590225D02*
X120704400Y-103518796D01*
X120704400Y-103518796D02*
X120775828Y-103375939D01*
X120775828Y-103375939D02*
X120775828Y-103161653D01*
X120775828Y-104304510D02*
X119275828Y-104304510D01*
X120775828Y-104947368D02*
X119990114Y-104947368D01*
X119990114Y-104947368D02*
X119847257Y-104875939D01*
X119847257Y-104875939D02*
X119775828Y-104733082D01*
X119775828Y-104733082D02*
X119775828Y-104518796D01*
X119775828Y-104518796D02*
X119847257Y-104375939D01*
X119847257Y-104375939D02*
X119918685Y-104304510D01*
X120775828Y-105661653D02*
X119775828Y-105661653D01*
X119918685Y-105661653D02*
X119847257Y-105733082D01*
X119847257Y-105733082D02*
X119775828Y-105875939D01*
X119775828Y-105875939D02*
X119775828Y-106090225D01*
X119775828Y-106090225D02*
X119847257Y-106233082D01*
X119847257Y-106233082D02*
X119990114Y-106304511D01*
X119990114Y-106304511D02*
X120775828Y-106304511D01*
X119990114Y-106304511D02*
X119847257Y-106375939D01*
X119847257Y-106375939D02*
X119775828Y-106518796D01*
X119775828Y-106518796D02*
X119775828Y-106733082D01*
X119775828Y-106733082D02*
X119847257Y-106875939D01*
X119847257Y-106875939D02*
X119990114Y-106947368D01*
X119990114Y-106947368D02*
X120775828Y-106947368D01*
X120775828Y-108804510D02*
X119775828Y-108804510D01*
X120061542Y-108804510D02*
X119918685Y-108875939D01*
X119918685Y-108875939D02*
X119847257Y-108947368D01*
X119847257Y-108947368D02*
X119775828Y-109090225D01*
X119775828Y-109090225D02*
X119775828Y-109233082D01*
X120704400Y-110304510D02*
X120775828Y-110161653D01*
X120775828Y-110161653D02*
X120775828Y-109875939D01*
X120775828Y-109875939D02*
X120704400Y-109733081D01*
X120704400Y-109733081D02*
X120561542Y-109661653D01*
X120561542Y-109661653D02*
X119990114Y-109661653D01*
X119990114Y-109661653D02*
X119847257Y-109733081D01*
X119847257Y-109733081D02*
X119775828Y-109875939D01*
X119775828Y-109875939D02*
X119775828Y-110161653D01*
X119775828Y-110161653D02*
X119847257Y-110304510D01*
X119847257Y-110304510D02*
X119990114Y-110375939D01*
X119990114Y-110375939D02*
X120132971Y-110375939D01*
X120132971Y-110375939D02*
X120275828Y-109661653D01*
X120704400Y-110947367D02*
X120775828Y-111090224D01*
X120775828Y-111090224D02*
X120775828Y-111375938D01*
X120775828Y-111375938D02*
X120704400Y-111518795D01*
X120704400Y-111518795D02*
X120561542Y-111590224D01*
X120561542Y-111590224D02*
X120490114Y-111590224D01*
X120490114Y-111590224D02*
X120347257Y-111518795D01*
X120347257Y-111518795D02*
X120275828Y-111375938D01*
X120275828Y-111375938D02*
X120275828Y-111161653D01*
X120275828Y-111161653D02*
X120204400Y-111018795D01*
X120204400Y-111018795D02*
X120061542Y-110947367D01*
X120061542Y-110947367D02*
X119990114Y-110947367D01*
X119990114Y-110947367D02*
X119847257Y-111018795D01*
X119847257Y-111018795D02*
X119775828Y-111161653D01*
X119775828Y-111161653D02*
X119775828Y-111375938D01*
X119775828Y-111375938D02*
X119847257Y-111518795D01*
X120775828Y-112233081D02*
X119775828Y-112233081D01*
X119275828Y-112233081D02*
X119347257Y-112161653D01*
X119347257Y-112161653D02*
X119418685Y-112233081D01*
X119418685Y-112233081D02*
X119347257Y-112304510D01*
X119347257Y-112304510D02*
X119275828Y-112233081D01*
X119275828Y-112233081D02*
X119418685Y-112233081D01*
X120704400Y-112875939D02*
X120775828Y-113018796D01*
X120775828Y-113018796D02*
X120775828Y-113304510D01*
X120775828Y-113304510D02*
X120704400Y-113447367D01*
X120704400Y-113447367D02*
X120561542Y-113518796D01*
X120561542Y-113518796D02*
X120490114Y-113518796D01*
X120490114Y-113518796D02*
X120347257Y-113447367D01*
X120347257Y-113447367D02*
X120275828Y-113304510D01*
X120275828Y-113304510D02*
X120275828Y-113090225D01*
X120275828Y-113090225D02*
X120204400Y-112947367D01*
X120204400Y-112947367D02*
X120061542Y-112875939D01*
X120061542Y-112875939D02*
X119990114Y-112875939D01*
X119990114Y-112875939D02*
X119847257Y-112947367D01*
X119847257Y-112947367D02*
X119775828Y-113090225D01*
X119775828Y-113090225D02*
X119775828Y-113304510D01*
X119775828Y-113304510D02*
X119847257Y-113447367D01*
X119775828Y-113947368D02*
X119775828Y-114518796D01*
X119275828Y-114161653D02*
X120561542Y-114161653D01*
X120561542Y-114161653D02*
X120704400Y-114233082D01*
X120704400Y-114233082D02*
X120775828Y-114375939D01*
X120775828Y-114375939D02*
X120775828Y-114518796D01*
X120775828Y-115233082D02*
X120704400Y-115090225D01*
X120704400Y-115090225D02*
X120632971Y-115018796D01*
X120632971Y-115018796D02*
X120490114Y-114947368D01*
X120490114Y-114947368D02*
X120061542Y-114947368D01*
X120061542Y-114947368D02*
X119918685Y-115018796D01*
X119918685Y-115018796D02*
X119847257Y-115090225D01*
X119847257Y-115090225D02*
X119775828Y-115233082D01*
X119775828Y-115233082D02*
X119775828Y-115447368D01*
X119775828Y-115447368D02*
X119847257Y-115590225D01*
X119847257Y-115590225D02*
X119918685Y-115661654D01*
X119918685Y-115661654D02*
X120061542Y-115733082D01*
X120061542Y-115733082D02*
X120490114Y-115733082D01*
X120490114Y-115733082D02*
X120632971Y-115661654D01*
X120632971Y-115661654D02*
X120704400Y-115590225D01*
X120704400Y-115590225D02*
X120775828Y-115447368D01*
X120775828Y-115447368D02*
X120775828Y-115233082D01*
X120775828Y-116375939D02*
X119775828Y-116375939D01*
X120061542Y-116375939D02*
X119918685Y-116447368D01*
X119918685Y-116447368D02*
X119847257Y-116518797D01*
X119847257Y-116518797D02*
X119775828Y-116661654D01*
X119775828Y-116661654D02*
X119775828Y-116804511D01*
X120704400Y-117233082D02*
X120775828Y-117375939D01*
X120775828Y-117375939D02*
X120775828Y-117661653D01*
X120775828Y-117661653D02*
X120704400Y-117804510D01*
X120704400Y-117804510D02*
X120561542Y-117875939D01*
X120561542Y-117875939D02*
X120490114Y-117875939D01*
X120490114Y-117875939D02*
X120347257Y-117804510D01*
X120347257Y-117804510D02*
X120275828Y-117661653D01*
X120275828Y-117661653D02*
X120275828Y-117447368D01*
X120275828Y-117447368D02*
X120204400Y-117304510D01*
X120204400Y-117304510D02*
X120061542Y-117233082D01*
X120061542Y-117233082D02*
X119990114Y-117233082D01*
X119990114Y-117233082D02*
X119847257Y-117304510D01*
X119847257Y-117304510D02*
X119775828Y-117447368D01*
X119775828Y-117447368D02*
X119775828Y-117661653D01*
X119775828Y-117661653D02*
X119847257Y-117804510D01*
X120632971Y-118518796D02*
X120704400Y-118590225D01*
X120704400Y-118590225D02*
X120775828Y-118518796D01*
X120775828Y-118518796D02*
X120704400Y-118447368D01*
X120704400Y-118447368D02*
X120632971Y-118518796D01*
X120632971Y-118518796D02*
X120775828Y-118518796D01*
D10*
X127655326Y-122017219D02*
X127655326Y-121017219D01*
X127179136Y-122017219D02*
X127179136Y-121017219D01*
X127179136Y-121017219D02*
X126607708Y-122017219D01*
X126607708Y-122017219D02*
X126607708Y-121017219D01*
X126131517Y-122017219D02*
X126131517Y-121017219D01*
X126131517Y-121017219D02*
X125560089Y-122017219D01*
X125560089Y-122017219D02*
X125560089Y-121017219D01*
M02*
