%TF.GenerationSoftware,KiCad,Pcbnew,8.0.7-8.0.7-0~ubuntu22.04.1*%
%TF.CreationDate,2024-12-29T11:33:44+01:00*%
%TF.ProjectId,monitor_consumo,6d6f6e69-746f-4725-9f63-6f6e73756d6f,rev?*%
%TF.SameCoordinates,Original*%
%TF.FileFunction,Paste,Top*%
%TF.FilePolarity,Positive*%
%FSLAX46Y46*%
G04 Gerber Fmt 4.6, Leading zero omitted, Abs format (unit mm)*
G04 Created by KiCad (PCBNEW 8.0.7-8.0.7-0~ubuntu22.04.1) date 2024-12-29 11:33:44*
%MOMM*%
%LPD*%
G01*
G04 APERTURE LIST*
G04 Aperture macros list*
%AMRoundRect*
0 Rectangle with rounded corners*
0 $1 Rounding radius*
0 $2 $3 $4 $5 $6 $7 $8 $9 X,Y pos of 4 corners*
0 Add a 4 corners polygon primitive as box body*
4,1,4,$2,$3,$4,$5,$6,$7,$8,$9,$2,$3,0*
0 Add four circle primitives for the rounded corners*
1,1,$1+$1,$2,$3*
1,1,$1+$1,$4,$5*
1,1,$1+$1,$6,$7*
1,1,$1+$1,$8,$9*
0 Add four rect primitives between the rounded corners*
20,1,$1+$1,$2,$3,$4,$5,0*
20,1,$1+$1,$4,$5,$6,$7,0*
20,1,$1+$1,$6,$7,$8,$9,0*
20,1,$1+$1,$8,$9,$2,$3,0*%
G04 Aperture macros list end*
%ADD10R,1.000000X1.100000*%
%ADD11R,1.100000X1.000000*%
%ADD12R,1.000000X0.700000*%
%ADD13R,1.000000X0.500000*%
%ADD14RoundRect,0.218750X-0.218750X-0.256250X0.218750X-0.256250X0.218750X0.256250X-0.218750X0.256250X0*%
%ADD15R,0.700000X1.000000*%
%ADD16R,0.500000X1.000000*%
%ADD17RoundRect,0.042000X0.258000X-0.573000X0.258000X0.573000X-0.258000X0.573000X-0.258000X-0.573000X0*%
%ADD18R,1.500000X1.950000*%
%ADD19R,1.498600X0.330200*%
%ADD20R,0.330200X1.498600*%
%ADD21RoundRect,0.250000X-0.625000X0.312500X-0.625000X-0.312500X0.625000X-0.312500X0.625000X0.312500X0*%
%ADD22RoundRect,0.250000X0.400000X0.600000X-0.400000X0.600000X-0.400000X-0.600000X0.400000X-0.600000X0*%
%ADD23RoundRect,0.150000X-0.587500X-0.150000X0.587500X-0.150000X0.587500X0.150000X-0.587500X0.150000X0*%
%ADD24R,1.800000X0.590000*%
%ADD25RoundRect,0.250000X-1.000000X1.750000X-1.000000X-1.750000X1.000000X-1.750000X1.000000X1.750000X0*%
%ADD26RoundRect,0.150000X-0.875000X-0.150000X0.875000X-0.150000X0.875000X0.150000X-0.875000X0.150000X0*%
%ADD27RoundRect,0.250000X-1.050000X-0.550000X1.050000X-0.550000X1.050000X0.550000X-1.050000X0.550000X0*%
%ADD28RoundRect,0.218750X0.256250X-0.218750X0.256250X0.218750X-0.256250X0.218750X-0.256250X-0.218750X0*%
%ADD29RoundRect,0.250000X-1.000000X-0.900000X1.000000X-0.900000X1.000000X0.900000X-1.000000X0.900000X0*%
G04 APERTURE END LIST*
D10*
%TO.C,C11*%
X124900000Y-86600000D03*
X124900000Y-88300000D03*
%TD*%
D11*
%TO.C,C9*%
X116025000Y-96900000D03*
X117725000Y-96900000D03*
%TD*%
D10*
%TO.C,C31*%
X126850000Y-106150000D03*
X126850000Y-104450000D03*
%TD*%
%TO.C,R2*%
X175250000Y-94600000D03*
X173550000Y-94600000D03*
%TD*%
D12*
%TO.C,RN2*%
X132500000Y-79300000D03*
D13*
X132500000Y-78400000D03*
X132500000Y-77600000D03*
D12*
X132500000Y-76700000D03*
X130800000Y-76700000D03*
D13*
X130800000Y-77600000D03*
X130800000Y-78400000D03*
D12*
X130800000Y-79300000D03*
%TD*%
D11*
%TO.C,R25*%
X115900000Y-70150000D03*
X115900000Y-71850000D03*
%TD*%
D14*
%TO.C,D11*%
X135787500Y-100100000D03*
X137362500Y-100100000D03*
%TD*%
D12*
%TO.C,RN1*%
X136700000Y-76750000D03*
D13*
X136700000Y-77650000D03*
X136700000Y-78450000D03*
D12*
X136700000Y-79350000D03*
X138400000Y-79350000D03*
D13*
X138400000Y-78450000D03*
X138400000Y-77650000D03*
D12*
X138400000Y-76750000D03*
%TD*%
D11*
%TO.C,C23*%
X116150000Y-103850000D03*
X117850000Y-103850000D03*
%TD*%
D10*
%TO.C,R8*%
X170600000Y-80960000D03*
X172300000Y-80960000D03*
%TD*%
%TO.C,R22*%
X116075000Y-84000000D03*
X117775000Y-84000000D03*
%TD*%
D15*
%TO.C,RN3*%
X134200000Y-85800000D03*
D16*
X135100000Y-85800000D03*
X135900000Y-85800000D03*
D15*
X136800000Y-85800000D03*
X136800000Y-84100000D03*
D16*
X135900000Y-84100000D03*
X135100000Y-84100000D03*
D15*
X134200000Y-84100000D03*
%TD*%
D17*
%TO.C,Q4*%
X176850000Y-74000000D03*
X178750000Y-74000000D03*
X177800000Y-71880000D03*
%TD*%
D18*
%TO.C,Y2*%
X129125000Y-119450000D03*
X129125000Y-122300000D03*
X131425000Y-122300000D03*
X131425000Y-119450000D03*
%TD*%
D19*
%TO.C,IC1*%
X124800000Y-89800000D03*
X124800000Y-90300000D03*
X124800000Y-90800000D03*
X124800000Y-91300000D03*
X124800000Y-91800000D03*
X124800000Y-92300000D03*
X124800000Y-92800000D03*
X124800000Y-93300000D03*
X124800000Y-93800000D03*
X124800000Y-94300000D03*
X124800000Y-94800000D03*
X124800000Y-95300000D03*
D20*
X126350000Y-96850000D03*
X126850000Y-96850000D03*
X127350000Y-96850000D03*
X127850000Y-96850000D03*
X128350000Y-96850000D03*
X128850000Y-96850000D03*
X129350000Y-96850000D03*
X129850000Y-96850000D03*
X130350000Y-96850000D03*
X130850000Y-96850000D03*
X131350000Y-96850000D03*
X131850000Y-96850000D03*
D19*
X133400000Y-95300000D03*
X133400000Y-94800000D03*
X133400000Y-94300000D03*
X133400000Y-93800000D03*
X133400000Y-93300000D03*
X133400000Y-92800000D03*
X133400000Y-92300000D03*
X133400000Y-91800000D03*
X133400000Y-91300000D03*
X133400000Y-90800000D03*
X133400000Y-90300000D03*
X133400000Y-89800000D03*
D20*
X131850000Y-88250000D03*
X131350000Y-88250000D03*
X130850000Y-88250000D03*
X130350000Y-88250000D03*
X129850000Y-88250000D03*
X129350000Y-88250000D03*
X128850000Y-88250000D03*
X128350000Y-88250000D03*
X127850000Y-88250000D03*
X127350000Y-88250000D03*
X126850000Y-88250000D03*
X126350000Y-88250000D03*
%TD*%
D11*
%TO.C,C6*%
X119250000Y-99175000D03*
X120950000Y-99175000D03*
%TD*%
D10*
%TO.C,R19*%
X116075000Y-86125000D03*
X117775000Y-86125000D03*
%TD*%
%TO.C,C26*%
X135400000Y-111300000D03*
X135400000Y-109600000D03*
%TD*%
D21*
%TO.C,R29*%
X137800000Y-71925000D03*
X137800000Y-74850000D03*
%TD*%
D10*
%TO.C,R42*%
X119300000Y-114925000D03*
X121000000Y-114925000D03*
%TD*%
D19*
%TO.C,IC2*%
X124850000Y-109550000D03*
X124850000Y-110050000D03*
X124850000Y-110550000D03*
X124850000Y-111050000D03*
X124850000Y-111550000D03*
X124850000Y-112050000D03*
X124850000Y-112550000D03*
X124850000Y-113050000D03*
X124850000Y-113550000D03*
X124850000Y-114050000D03*
X124850000Y-114550000D03*
X124850000Y-115050000D03*
D20*
X126400000Y-116600000D03*
X126900000Y-116600000D03*
X127400000Y-116600000D03*
X127900000Y-116600000D03*
X128400000Y-116600000D03*
X128900000Y-116600000D03*
X129400000Y-116600000D03*
X129900000Y-116600000D03*
X130400000Y-116600000D03*
X130900000Y-116600000D03*
X131400000Y-116600000D03*
X131900000Y-116600000D03*
D19*
X133450000Y-115050000D03*
X133450000Y-114550000D03*
X133450000Y-114050000D03*
X133450000Y-113550000D03*
X133450000Y-113050000D03*
X133450000Y-112550000D03*
X133450000Y-112050000D03*
X133450000Y-111550000D03*
X133450000Y-111050000D03*
X133450000Y-110550000D03*
X133450000Y-110050000D03*
X133450000Y-109550000D03*
D20*
X131900000Y-108000000D03*
X131400000Y-108000000D03*
X130900000Y-108000000D03*
X130400000Y-108000000D03*
X129900000Y-108000000D03*
X129400000Y-108000000D03*
X128900000Y-108000000D03*
X128400000Y-108000000D03*
X127900000Y-108000000D03*
X127400000Y-108000000D03*
X126900000Y-108000000D03*
X126400000Y-108000000D03*
%TD*%
D10*
%TO.C,R26*%
X119225000Y-86125000D03*
X120925000Y-86125000D03*
%TD*%
D11*
%TO.C,C10*%
X120925000Y-96925000D03*
X119225000Y-96925000D03*
%TD*%
D10*
%TO.C,R9*%
X168370000Y-78930000D03*
X166670000Y-78930000D03*
%TD*%
%TO.C,R13*%
X185750000Y-87260000D03*
X187450000Y-87260000D03*
%TD*%
D11*
%TO.C,C17*%
X132100000Y-85800000D03*
X130400000Y-85800000D03*
%TD*%
D22*
%TO.C,D4*%
X185150000Y-72100000D03*
X181650000Y-72100000D03*
%TD*%
D11*
%TO.C,C13*%
X127200000Y-83550000D03*
X128900000Y-83550000D03*
%TD*%
D17*
%TO.C,Q1*%
X140300000Y-74020000D03*
X142200000Y-74020000D03*
X141250000Y-71900000D03*
%TD*%
D10*
%TO.C,R36*%
X116100000Y-114950000D03*
X117800000Y-114950000D03*
%TD*%
D11*
%TO.C,C22*%
X124550000Y-117000000D03*
X122850000Y-117000000D03*
%TD*%
D10*
%TO.C,R6*%
X166670000Y-82930000D03*
X168370000Y-82930000D03*
%TD*%
%TO.C,R24*%
X116075000Y-99225000D03*
X117775000Y-99225000D03*
%TD*%
%TO.C,R4*%
X173550000Y-97200000D03*
X175250000Y-97200000D03*
%TD*%
%TO.C,R38*%
X116150000Y-105925000D03*
X117850000Y-105925000D03*
%TD*%
D11*
%TO.C,C8*%
X116100000Y-89175000D03*
X117800000Y-89175000D03*
%TD*%
D23*
%TO.C,D10*%
X180325000Y-107175000D03*
X180325000Y-109075000D03*
X182200000Y-108125000D03*
%TD*%
D10*
%TO.C,C30*%
X127025000Y-118800000D03*
X127025000Y-120500000D03*
%TD*%
%TO.C,C29*%
X124800000Y-106300000D03*
X124800000Y-108000000D03*
%TD*%
D11*
%TO.C,C4*%
X119250000Y-84025000D03*
X120950000Y-84025000D03*
%TD*%
%TO.C,R17*%
X156800000Y-117800000D03*
X156800000Y-116100000D03*
%TD*%
D21*
%TO.C,R32*%
X130900000Y-71950000D03*
X130900000Y-74875000D03*
%TD*%
D11*
%TO.C,C20*%
X119300000Y-112525000D03*
X121000000Y-112525000D03*
%TD*%
D10*
%TO.C,C16*%
X123975000Y-98900000D03*
X123975000Y-100600000D03*
%TD*%
D22*
%TO.C,D2*%
X160500000Y-72050000D03*
X157000000Y-72050000D03*
%TD*%
D21*
%TO.C,R31*%
X133200000Y-71950000D03*
X133200000Y-74875000D03*
%TD*%
D11*
%TO.C,C24*%
X116075000Y-110300000D03*
X117775000Y-110300000D03*
%TD*%
%TO.C,C5*%
X119150000Y-91525000D03*
X120850000Y-91525000D03*
%TD*%
D10*
%TO.C,R14*%
X170600000Y-76960000D03*
X172300000Y-76960000D03*
%TD*%
%TO.C,R21*%
X116100000Y-101325000D03*
X117800000Y-101325000D03*
%TD*%
D22*
%TO.C,D3*%
X173000000Y-72100000D03*
X169500000Y-72100000D03*
%TD*%
D23*
%TO.C,D9*%
X180325000Y-110775000D03*
X180325000Y-112675000D03*
X182200000Y-111725000D03*
%TD*%
D10*
%TO.C,R34*%
X137400000Y-98050000D03*
X135700000Y-98050000D03*
%TD*%
%TO.C,R28*%
X119225000Y-101325000D03*
X120925000Y-101325000D03*
%TD*%
%TO.C,R15*%
X159550000Y-111050000D03*
X157850000Y-111050000D03*
%TD*%
%TO.C,R3*%
X170600000Y-82960000D03*
X172300000Y-82960000D03*
%TD*%
D11*
%TO.C,C19*%
X119275000Y-105925000D03*
X120975000Y-105925000D03*
%TD*%
D10*
%TO.C,R27*%
X119175000Y-93675000D03*
X120875000Y-93675000D03*
%TD*%
D17*
%TO.C,Q2*%
X151900000Y-74020000D03*
X153800000Y-74020000D03*
X152850000Y-71900000D03*
%TD*%
D10*
%TO.C,R39*%
X116075000Y-112525000D03*
X117775000Y-112525000D03*
%TD*%
%TO.C,C27*%
X123050000Y-118825000D03*
X123050000Y-120525000D03*
%TD*%
D11*
%TO.C,R45*%
X136050000Y-119050000D03*
X136050000Y-117350000D03*
%TD*%
D10*
%TO.C,R35*%
X116150000Y-108025000D03*
X117850000Y-108025000D03*
%TD*%
D17*
%TO.C,Q3*%
X164250000Y-73960000D03*
X166150000Y-73960000D03*
X165200000Y-71840000D03*
%TD*%
D24*
%TO.C,U1*%
X177495000Y-90805000D03*
X177495000Y-92075000D03*
X177495000Y-93345000D03*
X177495000Y-94615000D03*
X177495000Y-95885000D03*
X177495000Y-97155000D03*
X177495000Y-98425000D03*
X177495000Y-99695000D03*
X183805000Y-99695000D03*
X183805000Y-98425000D03*
X183805000Y-97155000D03*
X183805000Y-95885000D03*
X183805000Y-94615000D03*
X183805000Y-93345000D03*
X183805000Y-92075000D03*
X183805000Y-90805000D03*
%TD*%
D14*
%TO.C,D5*%
X166387500Y-116900000D03*
X167962500Y-116900000D03*
%TD*%
D10*
%TO.C,R37*%
X116100000Y-122950000D03*
X117800000Y-122950000D03*
%TD*%
%TO.C,R1*%
X175250000Y-92100000D03*
X173550000Y-92100000D03*
%TD*%
%TO.C,R20*%
X116075000Y-93675000D03*
X117775000Y-93675000D03*
%TD*%
D25*
%TO.C,C1*%
X192500000Y-118350000D03*
X192500000Y-124450000D03*
%TD*%
D14*
%TO.C,D7*%
X166387500Y-115250000D03*
X167962500Y-115250000D03*
%TD*%
D10*
%TO.C,R7*%
X168370000Y-80930000D03*
X166670000Y-80930000D03*
%TD*%
%TO.C,R12*%
X170600000Y-78960000D03*
X172300000Y-78960000D03*
%TD*%
D22*
%TO.C,D1*%
X147900000Y-72100000D03*
X144400000Y-72100000D03*
%TD*%
D26*
%TO.C,U2*%
X175450000Y-76205000D03*
X175450000Y-77475000D03*
X175450000Y-78745000D03*
X175450000Y-80015000D03*
X175450000Y-81285000D03*
X175450000Y-82555000D03*
X175450000Y-83825000D03*
X175450000Y-85095000D03*
X184750000Y-85095000D03*
X184750000Y-83825000D03*
X184750000Y-82555000D03*
X184750000Y-81285000D03*
X184750000Y-80015000D03*
X184750000Y-78745000D03*
X184750000Y-77475000D03*
X184750000Y-76205000D03*
%TD*%
D10*
%TO.C,R5*%
X173600000Y-99800000D03*
X175300000Y-99800000D03*
%TD*%
D18*
%TO.C,Y1*%
X128700000Y-99550000D03*
X128700000Y-102400000D03*
X131000000Y-102400000D03*
X131000000Y-99550000D03*
%TD*%
D10*
%TO.C,C18*%
X126075000Y-98925000D03*
X126075000Y-100625000D03*
%TD*%
D11*
%TO.C,C25*%
X116050000Y-118275000D03*
X117750000Y-118275000D03*
%TD*%
D10*
%TO.C,R43*%
X119300000Y-122950000D03*
X121000000Y-122950000D03*
%TD*%
%TO.C,C3*%
X186975000Y-120050000D03*
X186975000Y-118350000D03*
%TD*%
%TO.C,C28*%
X125050000Y-118800000D03*
X125050000Y-120500000D03*
%TD*%
%TO.C,R16*%
X145200000Y-100700000D03*
X146900000Y-100700000D03*
%TD*%
D27*
%TO.C,C2*%
X145450000Y-108550000D03*
X149050000Y-108550000D03*
%TD*%
D10*
%TO.C,R10*%
X168370000Y-76900000D03*
X166670000Y-76900000D03*
%TD*%
%TO.C,R11*%
X185770000Y-89260000D03*
X187470000Y-89260000D03*
%TD*%
%TO.C,R41*%
X119275000Y-108025000D03*
X120975000Y-108025000D03*
%TD*%
%TO.C,C12*%
X122800000Y-95000000D03*
X122800000Y-96700000D03*
%TD*%
%TO.C,R44*%
X146900000Y-98250000D03*
X145200000Y-98250000D03*
%TD*%
D11*
%TO.C,C21*%
X119275000Y-120550000D03*
X120975000Y-120550000D03*
%TD*%
D10*
%TO.C,C15*%
X135400000Y-91600000D03*
X135400000Y-89900000D03*
%TD*%
D11*
%TO.C,C33*%
X188600000Y-75590000D03*
X186900000Y-75590000D03*
%TD*%
D10*
%TO.C,R23*%
X116075000Y-91525000D03*
X117775000Y-91525000D03*
%TD*%
%TO.C,R33*%
X132150000Y-83550000D03*
X130450000Y-83550000D03*
%TD*%
D21*
%TO.C,R30*%
X135500000Y-71937500D03*
X135500000Y-74862500D03*
%TD*%
D10*
%TO.C,C32*%
X128900000Y-106150000D03*
X128900000Y-104450000D03*
%TD*%
D28*
%TO.C,D12*%
X136050000Y-122175000D03*
X136050000Y-120600000D03*
%TD*%
D10*
%TO.C,R40*%
X116100000Y-120525000D03*
X117800000Y-120525000D03*
%TD*%
D23*
%TO.C,D8*%
X180350000Y-103575000D03*
X180350000Y-105475000D03*
X182225000Y-104525000D03*
%TD*%
D11*
%TO.C,C14*%
X127200000Y-85800000D03*
X128900000Y-85800000D03*
%TD*%
D10*
%TO.C,R18*%
X168025000Y-113400000D03*
X166325000Y-113400000D03*
%TD*%
D11*
%TO.C,C7*%
X116100000Y-81450000D03*
X117800000Y-81450000D03*
%TD*%
D29*
%TO.C,D6*%
X179425000Y-120525000D03*
X183725000Y-120525000D03*
%TD*%
M02*
